#N canvas 24 23 1221 610 12;
#X obj 88 333 outlet~;
#X obj 52 16 inlet;
#N canvas 0 367 524 457 clap 0;
#X obj 58 211 noise~;
#X obj 58 254 hip~;
#X obj 58 297 lop~;
#X floatatom 220 114 5 0 0 0 - - -;
#X obj 220 217 + 500;
#X floatatom 302 115 5 0 0 0 - - -;
#X text 302 58 pass width;
#X obj 302 183 t b f;
#X obj 58 326 *~;
#N canvas 0 23 676 607 multi_env 0;
#X obj 37 37 inlet;
#X obj 68 396 *~ 1;
#X obj 68 419 outlet~;
#N canvas 306 29 739 461 vol_env 0;
#X obj 143 118 inlet;
#X obj 143 141 f 250;
#X msg 143 164 1 0.2 \, 0 \$1 0.2;
#X obj 143 187 vline~;
#X obj 143 210 *~;
#X obj 143 233 *~;
#X obj 143 256 outlet~;
#X text 180 220 steepen the decay curve;
#X obj 190 118 inlet;
#X connect 0 0 1 0;
#X connect 1 0 2 0;
#X connect 2 0 3 0;
#X connect 3 0 4 0;
#X connect 3 0 4 1;
#X connect 4 0 5 0;
#X connect 4 0 5 1;
#X connect 5 0 6 0;
#X connect 8 0 1 1;
#X restore 65 211 pd vol_env;
#N canvas 306 29 739 461 vol_env 0;
#X obj 143 118 inlet;
#X obj 143 141 f 250;
#X msg 143 164 1 0.2 \, 0 \$1 0.2;
#X obj 143 187 vline~;
#X obj 143 210 *~;
#X obj 143 233 *~;
#X obj 143 256 outlet~;
#X text 180 220 steepen the decay curve;
#X obj 190 118 inlet;
#X connect 0 0 1 0;
#X connect 1 0 2 0;
#X connect 2 0 3 0;
#X connect 3 0 4 0;
#X connect 3 0 4 1;
#X connect 4 0 5 0;
#X connect 4 0 5 1;
#X connect 5 0 6 0;
#X connect 8 0 1 1;
#X restore 147 211 pd vol_env;
#N canvas 306 29 739 461 vol_env 0;
#X obj 143 118 inlet;
#X obj 143 141 f 250;
#X msg 143 164 1 0.2 \, 0 \$1 0.2;
#X obj 143 187 vline~;
#X obj 143 210 *~;
#X obj 143 233 *~;
#X obj 143 256 outlet~;
#X text 180 220 steepen the decay curve;
#X obj 190 118 inlet;
#X connect 0 0 1 0;
#X connect 1 0 2 0;
#X connect 2 0 3 0;
#X connect 3 0 4 0;
#X connect 3 0 4 1;
#X connect 4 0 5 0;
#X connect 4 0 5 1;
#X connect 5 0 6 0;
#X connect 8 0 1 1;
#X restore 230 211 pd vol_env;
#N canvas 306 29 739 461 vol_env 0;
#X obj 143 118 inlet;
#X obj 143 141 f 250;
#X msg 143 164 1 0.2 \, 0 \$1 0.2;
#X obj 143 187 vline~;
#X obj 143 210 *~;
#X obj 143 233 *~;
#X obj 143 256 outlet~;
#X text 180 220 steepen the decay curve;
#X obj 190 118 inlet;
#X connect 0 0 1 0;
#X connect 1 0 2 0;
#X connect 2 0 3 0;
#X connect 3 0 4 0;
#X connect 3 0 4 1;
#X connect 4 0 5 0;
#X connect 4 0 5 1;
#X connect 5 0 6 0;
#X connect 8 0 1 1;
#X restore 312 211 pd vol_env;
#X obj 147 104 del 20;
#X obj 230 137 del 20;
#X obj 312 170 del 20;
#X obj 351 40 inlet;
#X floatatom 381 95 5 0 0 0 - - -;
#X obj 381 147 * 5;
#X obj 451 46 inlet;
#X obj 451 69 t b f;
#X text 347 21 delay;
#X text 452 27 decay;
#X connect 0 0 3 0;
#X connect 0 0 7 0;
#X connect 1 0 2 0;
#X connect 3 0 1 0;
#X connect 4 0 1 0;
#X connect 5 0 1 0;
#X connect 6 0 1 0;
#X connect 7 0 8 0;
#X connect 7 0 4 0;
#X connect 8 0 9 0;
#X connect 8 0 5 0;
#X connect 9 0 6 0;
#X connect 10 0 7 1;
#X connect 10 0 8 1;
#X connect 10 0 9 1;
#X connect 10 0 11 0;
#X connect 11 0 3 1;
#X connect 11 0 4 1;
#X connect 11 0 5 1;
#X connect 11 0 12 0;
#X connect 12 0 6 1;
#X connect 13 0 14 0;
#X connect 14 0 12 0;
#X connect 14 1 12 1;
#X restore 73 141 pd multi_env;
#X f 14;
#X floatatom 120 112 5 0 0 1 - - -;
#X floatatom 168 112 5 0 0 1 - - -;
#X obj 58 393 outlet~;
#X obj 73 78 inlet;
#X obj 120 78 inlet;
#X obj 168 78 inlet;
#X text 121 58 delay;
#X text 167 58 decay;
#X obj 220 78 inlet;
#X obj 302 79 inlet;
#X text 218 58 hi cutoff;
#X floatatom 392 250 5 0 0 0 - - -;
#X msg 339 313 0;
#X obj 57 362 *~;
#X msg 130 290 1;
#X obj 339 284 del 5000;
#X obj 392 78 inlet;
#X text 392 57 gate;
#X obj 392 221 sel 0;
#X obj 455 105 t b;
#X msg 339 259 stop;
#X floatatom 392 164 5 0 0 0 - - -;
#X connect 0 0 1 0;
#X connect 1 0 2 0;
#X connect 2 0 8 0;
#X connect 3 0 4 0;
#X connect 3 0 1 1;
#X connect 4 0 2 1;
#X connect 5 0 7 0;
#X connect 7 0 4 0;
#X connect 7 1 4 1;
#X connect 8 0 23 0;
#X connect 9 0 8 1;
#X connect 10 0 9 1;
#X connect 11 0 9 2;
#X connect 13 0 9 0;
#X connect 13 0 24 0;
#X connect 13 0 25 0;
#X connect 13 0 29 0;
#X connect 14 0 10 0;
#X connect 15 0 11 0;
#X connect 18 0 3 0;
#X connect 19 0 5 0;
#X connect 21 0 25 1;
#X connect 22 0 23 1;
#X connect 23 0 12 0;
#X connect 24 0 23 1;
#X connect 25 0 22 0;
#X connect 26 0 31 0;
#X connect 28 0 24 0;
#X connect 28 0 30 0;
#X connect 28 1 21 0;
#X connect 29 0 31 0;
#X connect 30 0 25 0;
#X connect 31 0 28 0;
#X restore 88 302 pd clap;
#X obj 379 46 bng 15 250 50 0 empty empty empty 17 7 0 10 -262144 -1
-1;
#X floatatom 48 188 7 0 0 0 - - -;
#X floatatom 247 188 7 0 0 0 - - -;
#X floatatom 117 188 7 0 0 0 - - -;
#X floatatom 184 188 7 0 0 0 - - -;
#X obj 48 78 vsl 15 100 0 50 0 1 empty \$0-delay delay 0 -9 0 10 -262144
-1 -1 990 1;
#X obj 247 78 vsl 15 100 0 5000 0 1 empty \$0-pass_width pass_width
0 -9 0 10 -262144 -1 -1 2970 1;
#X obj 117 78 vsl 15 100 0 500 0 1 empty \$0-decay decay 0 -9 0 10
-262144 -1 -1 1287 1;
#X obj 184 78 vsl 15 100 0 10000 0 1 empty \$0-hi_cutoff hi_cutoff
0 -9 0 10 -262144 -1 -1 1782 1;
#X floatatom 316 188 7 0 0 0 - - -;
#X obj 316 78 vsl 15 100 0 4000 0 1 empty \$0-gate_len gate_len 0 -9
0 10 -262144 -1 -1 0 1;
#X obj 47 230 hradio 20 1 1 16 empty empty presets 0 -8 0 10 -262144
-1 -1 0;
#X floatatom 371 231 3 0 0 0 - - -;
#X obj 300 266 + 1;
#X obj 462 240 sel 0 1 2 3 4 5 6 7 8 9 10 11 12 13 14;
#X obj 117 16 inlet;
#X obj 184 16 inlet;
#X obj 247 16 inlet;
#X obj 316 16 inlet;
#N canvas 757 23 500 422 preset_setup 0;
#X obj 71 18 inlet;
#X obj 71 310 outlet;
#N canvas 369 23 525 520 param_setup 0;
#X obj 108 410 f \$0;
#X obj 76 453 list append;
#X obj 76 381 t l b;
#X symbolatom 187 163 10 0 0 0 - - -;
#X symbolatom 187 201 10 0 0 0 - - -;
#X symbolatom 187 238 10 0 0 0 - - -;
#X obj 117 57 bng 15 250 50 0 empty empty empty 17 7 0 10 -262144 -1
-1;
#X obj 117 32 inlet;
#X obj 222 32 inlet;
#X obj 276 32 inlet;
#X obj 330 32 inlet;
#X obj 352 122 symbol p1;
#X obj 352 172 symbol p2;
#X obj 352 222 symbol p3;
#X obj 76 479 outlet;
#X obj 352 272 symbol p4;
#X obj 383 32 inlet;
#X symbolatom 187 272 10 0 0 0 - - -;
#X obj 117 80 t b b b b b b b b;
#X obj 352 320 symbol p5;
#X symbolatom 187 305 10 0 0 0 - - -;
#X obj 76 351 pack s s s s s;
#X obj 433 32 inlet;
#X connect 0 0 1 1;
#X connect 1 0 14 0;
#X connect 2 0 1 0;
#X connect 2 1 0 0;
#X connect 3 0 21 0;
#X connect 4 0 21 1;
#X connect 5 0 21 2;
#X connect 6 0 18 0;
#X connect 7 0 6 0;
#X connect 8 0 11 1;
#X connect 9 0 12 1;
#X connect 10 0 13 1;
#X connect 11 0 3 0;
#X connect 12 0 4 0;
#X connect 13 0 5 0;
#X connect 15 0 17 0;
#X connect 16 0 15 1;
#X connect 17 0 21 3;
#X connect 18 0 3 0;
#X connect 18 1 4 0;
#X connect 18 2 5 0;
#X connect 18 3 11 0;
#X connect 18 4 12 0;
#X connect 18 5 13 0;
#X connect 18 6 15 0;
#X connect 18 7 19 0;
#X connect 19 0 20 0;
#X connect 20 0 21 4;
#X connect 21 0 2 0;
#X connect 22 0 19 1;
#X restore 71 257 pd param_setup;
#X obj 99 48 loadbang;
#X obj 71 283 list append;
#X msg 146 76 symbol delay;
#X msg 156 106 symbol decay;
#X msg 166 136 symbol hi_cutoff;
#X msg 186 166 symbol pass_width;
#X msg 206 196 symbol gate_len;
#X connect 0 0 2 0;
#X connect 2 0 4 0;
#X connect 3 0 5 0;
#X connect 3 0 6 0;
#X connect 3 0 7 0;
#X connect 3 0 8 0;
#X connect 3 0 9 0;
#X connect 4 0 1 0;
#X connect 5 0 2 1;
#X connect 6 0 2 2;
#X connect 7 0 2 3;
#X connect 8 0 2 4;
#X connect 9 0 2 5;
#X restore 182 296 pd preset_setup;
#X msg 182 324 \; \$6-\$1 5 \; \$6-\$2 65 \; \$6-\$3 1800 \; \$6-\$4
1500 \; \$6-\$5 0;
#X msg 312 324 \; \$6-\$1 10 \; \$6-\$2 30 \; \$6-\$3 2500 \; \$6-\$4
1000 \; \$6-\$5 0;
#X msg 442 324 \; \$6-\$1 1.5 \; \$6-\$2 70 \; \$6-\$3 2500 \; \$6-\$4
50 \; \$6-\$5 0;
#X msg 567 324 \; \$6-\$1 12 \; \$6-\$2 20 \; \$6-\$3 9000 \; \$6-\$4
600 \; \$6-\$5 0;
#X msg 182 444 \; \$6-\$1 7.5 \; \$6-\$2 50 \; \$6-\$3 1010 \; \$6-\$4
4390 \; \$6-\$5 0;
#X msg 312 444 \; \$6-\$1 12 \; \$6-\$2 96 \; \$6-\$3 2500 \; \$6-\$4
3000 \; \$6-\$5 80;
#X msg 442 444 \; \$6-\$1 4 \; \$6-\$2 110 \; \$6-\$3 200 \; \$6-\$4
2400 \; \$6-\$5 0;
#X msg 567 444 \; \$6-\$1 12 \; \$6-\$2 20 \; \$6-\$3 4000 \; \$6-\$4
600 \; \$6-\$5 40;
#N canvas 757 23 500 422 preset_setup 0;
#X obj 71 18 inlet;
#X obj 71 310 outlet;
#N canvas 369 23 525 520 param_setup 0;
#X obj 108 410 f \$0;
#X obj 76 453 list append;
#X obj 76 381 t l b;
#X symbolatom 187 163 10 0 0 0 - - -;
#X symbolatom 187 201 10 0 0 0 - - -;
#X symbolatom 187 238 10 0 0 0 - - -;
#X obj 117 57 bng 15 250 50 0 empty empty empty 17 7 0 10 -262144 -1
-1;
#X obj 117 32 inlet;
#X obj 222 32 inlet;
#X obj 276 32 inlet;
#X obj 330 32 inlet;
#X obj 352 122 symbol p1;
#X obj 352 172 symbol p2;
#X obj 352 222 symbol p3;
#X obj 76 479 outlet;
#X obj 352 272 symbol p4;
#X obj 383 32 inlet;
#X symbolatom 187 272 10 0 0 0 - - -;
#X obj 117 80 t b b b b b b b b;
#X obj 352 320 symbol p5;
#X symbolatom 187 305 10 0 0 0 - - -;
#X obj 76 351 pack s s s s s;
#X obj 433 32 inlet;
#X connect 0 0 1 1;
#X connect 1 0 14 0;
#X connect 2 0 1 0;
#X connect 2 1 0 0;
#X connect 3 0 21 0;
#X connect 4 0 21 1;
#X connect 5 0 21 2;
#X connect 6 0 18 0;
#X connect 7 0 6 0;
#X connect 8 0 11 1;
#X connect 9 0 12 1;
#X connect 10 0 13 1;
#X connect 11 0 3 0;
#X connect 12 0 4 0;
#X connect 13 0 5 0;
#X connect 15 0 17 0;
#X connect 16 0 15 1;
#X connect 17 0 21 3;
#X connect 18 0 3 0;
#X connect 18 1 4 0;
#X connect 18 2 5 0;
#X connect 18 3 11 0;
#X connect 18 4 12 0;
#X connect 18 5 13 0;
#X connect 18 6 15 0;
#X connect 18 7 19 0;
#X connect 19 0 20 0;
#X connect 20 0 21 4;
#X connect 21 0 2 0;
#X connect 22 0 19 1;
#X restore 71 257 pd param_setup;
#X obj 99 48 loadbang;
#X obj 71 283 list append;
#X msg 146 76 symbol delay;
#X msg 156 106 symbol decay;
#X msg 166 136 symbol hi_cutoff;
#X msg 186 166 symbol pass_width;
#X msg 206 196 symbol gate_len;
#X connect 0 0 2 0;
#X connect 2 0 4 0;
#X connect 3 0 5 0;
#X connect 3 0 6 0;
#X connect 3 0 7 0;
#X connect 3 0 8 0;
#X connect 3 0 9 0;
#X connect 4 0 1 0;
#X connect 5 0 2 1;
#X connect 6 0 2 2;
#X connect 7 0 2 3;
#X connect 8 0 2 4;
#X connect 9 0 2 5;
#X restore 312 296 pd preset_setup;
#N canvas 757 23 500 422 preset_setup 0;
#X obj 71 18 inlet;
#X obj 71 310 outlet;
#N canvas 369 23 525 520 param_setup 0;
#X obj 108 410 f \$0;
#X obj 76 453 list append;
#X obj 76 381 t l b;
#X symbolatom 187 163 10 0 0 0 - - -;
#X symbolatom 187 201 10 0 0 0 - - -;
#X symbolatom 187 238 10 0 0 0 - - -;
#X obj 117 57 bng 15 250 50 0 empty empty empty 17 7 0 10 -262144 -1
-1;
#X obj 117 32 inlet;
#X obj 222 32 inlet;
#X obj 276 32 inlet;
#X obj 330 32 inlet;
#X obj 352 122 symbol p1;
#X obj 352 172 symbol p2;
#X obj 352 222 symbol p3;
#X obj 76 479 outlet;
#X obj 352 272 symbol p4;
#X obj 383 32 inlet;
#X symbolatom 187 272 10 0 0 0 - - -;
#X obj 117 80 t b b b b b b b b;
#X obj 352 320 symbol p5;
#X symbolatom 187 305 10 0 0 0 - - -;
#X obj 76 351 pack s s s s s;
#X obj 433 32 inlet;
#X connect 0 0 1 1;
#X connect 1 0 14 0;
#X connect 2 0 1 0;
#X connect 2 1 0 0;
#X connect 3 0 21 0;
#X connect 4 0 21 1;
#X connect 5 0 21 2;
#X connect 6 0 18 0;
#X connect 7 0 6 0;
#X connect 8 0 11 1;
#X connect 9 0 12 1;
#X connect 10 0 13 1;
#X connect 11 0 3 0;
#X connect 12 0 4 0;
#X connect 13 0 5 0;
#X connect 15 0 17 0;
#X connect 16 0 15 1;
#X connect 17 0 21 3;
#X connect 18 0 3 0;
#X connect 18 1 4 0;
#X connect 18 2 5 0;
#X connect 18 3 11 0;
#X connect 18 4 12 0;
#X connect 18 5 13 0;
#X connect 18 6 15 0;
#X connect 18 7 19 0;
#X connect 19 0 20 0;
#X connect 20 0 21 4;
#X connect 21 0 2 0;
#X connect 22 0 19 1;
#X restore 71 257 pd param_setup;
#X obj 99 48 loadbang;
#X obj 71 283 list append;
#X msg 146 76 symbol delay;
#X msg 156 106 symbol decay;
#X msg 166 136 symbol hi_cutoff;
#X msg 186 166 symbol pass_width;
#X msg 206 196 symbol gate_len;
#X connect 0 0 2 0;
#X connect 2 0 4 0;
#X connect 3 0 5 0;
#X connect 3 0 6 0;
#X connect 3 0 7 0;
#X connect 3 0 8 0;
#X connect 3 0 9 0;
#X connect 4 0 1 0;
#X connect 5 0 2 1;
#X connect 6 0 2 2;
#X connect 7 0 2 3;
#X connect 8 0 2 4;
#X connect 9 0 2 5;
#X restore 442 296 pd preset_setup;
#N canvas 757 23 500 422 preset_setup 0;
#X obj 71 18 inlet;
#X obj 71 310 outlet;
#N canvas 369 23 525 520 param_setup 0;
#X obj 108 410 f \$0;
#X obj 76 453 list append;
#X obj 76 381 t l b;
#X symbolatom 187 163 10 0 0 0 - - -;
#X symbolatom 187 201 10 0 0 0 - - -;
#X symbolatom 187 238 10 0 0 0 - - -;
#X obj 117 57 bng 15 250 50 0 empty empty empty 17 7 0 10 -262144 -1
-1;
#X obj 117 32 inlet;
#X obj 222 32 inlet;
#X obj 276 32 inlet;
#X obj 330 32 inlet;
#X obj 352 122 symbol p1;
#X obj 352 172 symbol p2;
#X obj 352 222 symbol p3;
#X obj 76 479 outlet;
#X obj 352 272 symbol p4;
#X obj 383 32 inlet;
#X symbolatom 187 272 10 0 0 0 - - -;
#X obj 117 80 t b b b b b b b b;
#X obj 352 320 symbol p5;
#X symbolatom 187 305 10 0 0 0 - - -;
#X obj 76 351 pack s s s s s;
#X obj 433 32 inlet;
#X connect 0 0 1 1;
#X connect 1 0 14 0;
#X connect 2 0 1 0;
#X connect 2 1 0 0;
#X connect 3 0 21 0;
#X connect 4 0 21 1;
#X connect 5 0 21 2;
#X connect 6 0 18 0;
#X connect 7 0 6 0;
#X connect 8 0 11 1;
#X connect 9 0 12 1;
#X connect 10 0 13 1;
#X connect 11 0 3 0;
#X connect 12 0 4 0;
#X connect 13 0 5 0;
#X connect 15 0 17 0;
#X connect 16 0 15 1;
#X connect 17 0 21 3;
#X connect 18 0 3 0;
#X connect 18 1 4 0;
#X connect 18 2 5 0;
#X connect 18 3 11 0;
#X connect 18 4 12 0;
#X connect 18 5 13 0;
#X connect 18 6 15 0;
#X connect 18 7 19 0;
#X connect 19 0 20 0;
#X connect 20 0 21 4;
#X connect 21 0 2 0;
#X connect 22 0 19 1;
#X restore 71 257 pd param_setup;
#X obj 99 48 loadbang;
#X obj 71 283 list append;
#X msg 146 76 symbol delay;
#X msg 156 106 symbol decay;
#X msg 166 136 symbol hi_cutoff;
#X msg 186 166 symbol pass_width;
#X msg 206 196 symbol gate_len;
#X connect 0 0 2 0;
#X connect 2 0 4 0;
#X connect 3 0 5 0;
#X connect 3 0 6 0;
#X connect 3 0 7 0;
#X connect 3 0 8 0;
#X connect 3 0 9 0;
#X connect 4 0 1 0;
#X connect 5 0 2 1;
#X connect 6 0 2 2;
#X connect 7 0 2 3;
#X connect 8 0 2 4;
#X connect 9 0 2 5;
#X restore 568 296 pd preset_setup;
#N canvas 757 23 500 422 preset_setup 0;
#X obj 71 18 inlet;
#X obj 71 310 outlet;
#N canvas 369 23 525 520 param_setup 0;
#X obj 108 410 f \$0;
#X obj 76 453 list append;
#X obj 76 381 t l b;
#X symbolatom 187 163 10 0 0 0 - - -;
#X symbolatom 187 201 10 0 0 0 - - -;
#X symbolatom 187 238 10 0 0 0 - - -;
#X obj 117 57 bng 15 250 50 0 empty empty empty 17 7 0 10 -262144 -1
-1;
#X obj 117 32 inlet;
#X obj 222 32 inlet;
#X obj 276 32 inlet;
#X obj 330 32 inlet;
#X obj 352 122 symbol p1;
#X obj 352 172 symbol p2;
#X obj 352 222 symbol p3;
#X obj 76 479 outlet;
#X obj 352 272 symbol p4;
#X obj 383 32 inlet;
#X symbolatom 187 272 10 0 0 0 - - -;
#X obj 117 80 t b b b b b b b b;
#X obj 352 320 symbol p5;
#X symbolatom 187 305 10 0 0 0 - - -;
#X obj 76 351 pack s s s s s;
#X obj 433 32 inlet;
#X connect 0 0 1 1;
#X connect 1 0 14 0;
#X connect 2 0 1 0;
#X connect 2 1 0 0;
#X connect 3 0 21 0;
#X connect 4 0 21 1;
#X connect 5 0 21 2;
#X connect 6 0 18 0;
#X connect 7 0 6 0;
#X connect 8 0 11 1;
#X connect 9 0 12 1;
#X connect 10 0 13 1;
#X connect 11 0 3 0;
#X connect 12 0 4 0;
#X connect 13 0 5 0;
#X connect 15 0 17 0;
#X connect 16 0 15 1;
#X connect 17 0 21 3;
#X connect 18 0 3 0;
#X connect 18 1 4 0;
#X connect 18 2 5 0;
#X connect 18 3 11 0;
#X connect 18 4 12 0;
#X connect 18 5 13 0;
#X connect 18 6 15 0;
#X connect 18 7 19 0;
#X connect 19 0 20 0;
#X connect 20 0 21 4;
#X connect 21 0 2 0;
#X connect 22 0 19 1;
#X restore 71 257 pd param_setup;
#X obj 99 48 loadbang;
#X obj 71 283 list append;
#X msg 146 76 symbol delay;
#X msg 156 106 symbol decay;
#X msg 166 136 symbol hi_cutoff;
#X msg 186 166 symbol pass_width;
#X msg 206 196 symbol gate_len;
#X connect 0 0 2 0;
#X connect 2 0 4 0;
#X connect 3 0 5 0;
#X connect 3 0 6 0;
#X connect 3 0 7 0;
#X connect 3 0 8 0;
#X connect 3 0 9 0;
#X connect 4 0 1 0;
#X connect 5 0 2 1;
#X connect 6 0 2 2;
#X connect 7 0 2 3;
#X connect 8 0 2 4;
#X connect 9 0 2 5;
#X restore 182 416 pd preset_setup;
#N canvas 757 23 500 422 preset_setup 0;
#X obj 71 18 inlet;
#X obj 71 310 outlet;
#N canvas 369 23 525 520 param_setup 0;
#X obj 108 410 f \$0;
#X obj 76 453 list append;
#X obj 76 381 t l b;
#X symbolatom 187 163 10 0 0 0 - - -;
#X symbolatom 187 201 10 0 0 0 - - -;
#X symbolatom 187 238 10 0 0 0 - - -;
#X obj 117 57 bng 15 250 50 0 empty empty empty 17 7 0 10 -262144 -1
-1;
#X obj 117 32 inlet;
#X obj 222 32 inlet;
#X obj 276 32 inlet;
#X obj 330 32 inlet;
#X obj 352 122 symbol p1;
#X obj 352 172 symbol p2;
#X obj 352 222 symbol p3;
#X obj 76 479 outlet;
#X obj 352 272 symbol p4;
#X obj 383 32 inlet;
#X symbolatom 187 272 10 0 0 0 - - -;
#X obj 117 80 t b b b b b b b b;
#X obj 352 320 symbol p5;
#X symbolatom 187 305 10 0 0 0 - - -;
#X obj 76 351 pack s s s s s;
#X obj 433 32 inlet;
#X connect 0 0 1 1;
#X connect 1 0 14 0;
#X connect 2 0 1 0;
#X connect 2 1 0 0;
#X connect 3 0 21 0;
#X connect 4 0 21 1;
#X connect 5 0 21 2;
#X connect 6 0 18 0;
#X connect 7 0 6 0;
#X connect 8 0 11 1;
#X connect 9 0 12 1;
#X connect 10 0 13 1;
#X connect 11 0 3 0;
#X connect 12 0 4 0;
#X connect 13 0 5 0;
#X connect 15 0 17 0;
#X connect 16 0 15 1;
#X connect 17 0 21 3;
#X connect 18 0 3 0;
#X connect 18 1 4 0;
#X connect 18 2 5 0;
#X connect 18 3 11 0;
#X connect 18 4 12 0;
#X connect 18 5 13 0;
#X connect 18 6 15 0;
#X connect 18 7 19 0;
#X connect 19 0 20 0;
#X connect 20 0 21 4;
#X connect 21 0 2 0;
#X connect 22 0 19 1;
#X restore 71 257 pd param_setup;
#X obj 99 48 loadbang;
#X obj 71 283 list append;
#X msg 146 76 symbol delay;
#X msg 156 106 symbol decay;
#X msg 166 136 symbol hi_cutoff;
#X msg 186 166 symbol pass_width;
#X msg 206 196 symbol gate_len;
#X connect 0 0 2 0;
#X connect 2 0 4 0;
#X connect 3 0 5 0;
#X connect 3 0 6 0;
#X connect 3 0 7 0;
#X connect 3 0 8 0;
#X connect 3 0 9 0;
#X connect 4 0 1 0;
#X connect 5 0 2 1;
#X connect 6 0 2 2;
#X connect 7 0 2 3;
#X connect 8 0 2 4;
#X connect 9 0 2 5;
#X restore 312 416 pd preset_setup;
#N canvas 757 23 500 422 preset_setup 0;
#X obj 71 18 inlet;
#X obj 71 310 outlet;
#N canvas 369 23 525 520 param_setup 0;
#X obj 108 410 f \$0;
#X obj 76 453 list append;
#X obj 76 381 t l b;
#X symbolatom 187 163 10 0 0 0 - - -;
#X symbolatom 187 201 10 0 0 0 - - -;
#X symbolatom 187 238 10 0 0 0 - - -;
#X obj 117 57 bng 15 250 50 0 empty empty empty 17 7 0 10 -262144 -1
-1;
#X obj 117 32 inlet;
#X obj 222 32 inlet;
#X obj 276 32 inlet;
#X obj 330 32 inlet;
#X obj 352 122 symbol p1;
#X obj 352 172 symbol p2;
#X obj 352 222 symbol p3;
#X obj 76 479 outlet;
#X obj 352 272 symbol p4;
#X obj 383 32 inlet;
#X symbolatom 187 272 10 0 0 0 - - -;
#X obj 117 80 t b b b b b b b b;
#X obj 352 320 symbol p5;
#X symbolatom 187 305 10 0 0 0 - - -;
#X obj 76 351 pack s s s s s;
#X obj 433 32 inlet;
#X connect 0 0 1 1;
#X connect 1 0 14 0;
#X connect 2 0 1 0;
#X connect 2 1 0 0;
#X connect 3 0 21 0;
#X connect 4 0 21 1;
#X connect 5 0 21 2;
#X connect 6 0 18 0;
#X connect 7 0 6 0;
#X connect 8 0 11 1;
#X connect 9 0 12 1;
#X connect 10 0 13 1;
#X connect 11 0 3 0;
#X connect 12 0 4 0;
#X connect 13 0 5 0;
#X connect 15 0 17 0;
#X connect 16 0 15 1;
#X connect 17 0 21 3;
#X connect 18 0 3 0;
#X connect 18 1 4 0;
#X connect 18 2 5 0;
#X connect 18 3 11 0;
#X connect 18 4 12 0;
#X connect 18 5 13 0;
#X connect 18 6 15 0;
#X connect 18 7 19 0;
#X connect 19 0 20 0;
#X connect 20 0 21 4;
#X connect 21 0 2 0;
#X connect 22 0 19 1;
#X restore 71 257 pd param_setup;
#X obj 99 48 loadbang;
#X obj 71 283 list append;
#X msg 146 76 symbol delay;
#X msg 156 106 symbol decay;
#X msg 166 136 symbol hi_cutoff;
#X msg 186 166 symbol pass_width;
#X msg 206 196 symbol gate_len;
#X connect 0 0 2 0;
#X connect 2 0 4 0;
#X connect 3 0 5 0;
#X connect 3 0 6 0;
#X connect 3 0 7 0;
#X connect 3 0 8 0;
#X connect 3 0 9 0;
#X connect 4 0 1 0;
#X connect 5 0 2 1;
#X connect 6 0 2 2;
#X connect 7 0 2 3;
#X connect 8 0 2 4;
#X connect 9 0 2 5;
#X restore 442 416 pd preset_setup;
#N canvas 757 23 500 422 preset_setup 0;
#X obj 71 18 inlet;
#X obj 71 310 outlet;
#N canvas 369 23 525 520 param_setup 0;
#X obj 108 410 f \$0;
#X obj 76 453 list append;
#X obj 76 381 t l b;
#X symbolatom 187 163 10 0 0 0 - - -;
#X symbolatom 187 201 10 0 0 0 - - -;
#X symbolatom 187 238 10 0 0 0 - - -;
#X obj 117 57 bng 15 250 50 0 empty empty empty 17 7 0 10 -262144 -1
-1;
#X obj 117 32 inlet;
#X obj 222 32 inlet;
#X obj 276 32 inlet;
#X obj 330 32 inlet;
#X obj 352 122 symbol p1;
#X obj 352 172 symbol p2;
#X obj 352 222 symbol p3;
#X obj 76 479 outlet;
#X obj 352 272 symbol p4;
#X obj 383 32 inlet;
#X symbolatom 187 272 10 0 0 0 - - -;
#X obj 117 80 t b b b b b b b b;
#X obj 352 320 symbol p5;
#X symbolatom 187 305 10 0 0 0 - - -;
#X obj 76 351 pack s s s s s;
#X obj 433 32 inlet;
#X connect 0 0 1 1;
#X connect 1 0 14 0;
#X connect 2 0 1 0;
#X connect 2 1 0 0;
#X connect 3 0 21 0;
#X connect 4 0 21 1;
#X connect 5 0 21 2;
#X connect 6 0 18 0;
#X connect 7 0 6 0;
#X connect 8 0 11 1;
#X connect 9 0 12 1;
#X connect 10 0 13 1;
#X connect 11 0 3 0;
#X connect 12 0 4 0;
#X connect 13 0 5 0;
#X connect 15 0 17 0;
#X connect 16 0 15 1;
#X connect 17 0 21 3;
#X connect 18 0 3 0;
#X connect 18 1 4 0;
#X connect 18 2 5 0;
#X connect 18 3 11 0;
#X connect 18 4 12 0;
#X connect 18 5 13 0;
#X connect 18 6 15 0;
#X connect 18 7 19 0;
#X connect 19 0 20 0;
#X connect 20 0 21 4;
#X connect 21 0 2 0;
#X connect 22 0 19 1;
#X restore 71 257 pd param_setup;
#X obj 99 48 loadbang;
#X obj 71 283 list append;
#X msg 146 76 symbol delay;
#X msg 156 106 symbol decay;
#X msg 166 136 symbol hi_cutoff;
#X msg 186 166 symbol pass_width;
#X msg 206 196 symbol gate_len;
#X connect 0 0 2 0;
#X connect 2 0 4 0;
#X connect 3 0 5 0;
#X connect 3 0 6 0;
#X connect 3 0 7 0;
#X connect 3 0 8 0;
#X connect 3 0 9 0;
#X connect 4 0 1 0;
#X connect 5 0 2 1;
#X connect 6 0 2 2;
#X connect 7 0 2 3;
#X connect 8 0 2 4;
#X connect 9 0 2 5;
#X restore 568 416 pd preset_setup;
#N canvas 757 23 500 422 preset_setup 0;
#X obj 71 18 inlet;
#X obj 71 310 outlet;
#N canvas 369 23 525 520 param_setup 0;
#X obj 108 410 f \$0;
#X obj 76 453 list append;
#X obj 76 381 t l b;
#X symbolatom 187 163 10 0 0 0 - - -;
#X symbolatom 187 201 10 0 0 0 - - -;
#X symbolatom 187 238 10 0 0 0 - - -;
#X obj 117 57 bng 15 250 50 0 empty empty empty 17 7 0 10 -262144 -1
-1;
#X obj 117 32 inlet;
#X obj 222 32 inlet;
#X obj 276 32 inlet;
#X obj 330 32 inlet;
#X obj 352 122 symbol p1;
#X obj 352 172 symbol p2;
#X obj 352 222 symbol p3;
#X obj 76 479 outlet;
#X obj 352 272 symbol p4;
#X obj 383 32 inlet;
#X symbolatom 187 272 10 0 0 0 - - -;
#X obj 117 80 t b b b b b b b b;
#X obj 352 320 symbol p5;
#X symbolatom 187 305 10 0 0 0 - - -;
#X obj 76 351 pack s s s s s;
#X obj 433 32 inlet;
#X connect 0 0 1 1;
#X connect 1 0 14 0;
#X connect 2 0 1 0;
#X connect 2 1 0 0;
#X connect 3 0 21 0;
#X connect 4 0 21 1;
#X connect 5 0 21 2;
#X connect 6 0 18 0;
#X connect 7 0 6 0;
#X connect 8 0 11 1;
#X connect 9 0 12 1;
#X connect 10 0 13 1;
#X connect 11 0 3 0;
#X connect 12 0 4 0;
#X connect 13 0 5 0;
#X connect 15 0 17 0;
#X connect 16 0 15 1;
#X connect 17 0 21 3;
#X connect 18 0 3 0;
#X connect 18 1 4 0;
#X connect 18 2 5 0;
#X connect 18 3 11 0;
#X connect 18 4 12 0;
#X connect 18 5 13 0;
#X connect 18 6 15 0;
#X connect 18 7 19 0;
#X connect 19 0 20 0;
#X connect 20 0 21 4;
#X connect 21 0 2 0;
#X connect 22 0 19 1;
#X restore 71 257 pd param_setup;
#X obj 99 48 loadbang;
#X obj 71 283 list append;
#X msg 146 76 symbol delay;
#X msg 156 106 symbol decay;
#X msg 166 136 symbol hi_cutoff;
#X msg 186 166 symbol pass_width;
#X msg 206 196 symbol gate_len;
#X connect 0 0 2 0;
#X connect 2 0 4 0;
#X connect 3 0 5 0;
#X connect 3 0 6 0;
#X connect 3 0 7 0;
#X connect 3 0 8 0;
#X connect 3 0 9 0;
#X connect 4 0 1 0;
#X connect 5 0 2 1;
#X connect 6 0 2 2;
#X connect 7 0 2 3;
#X connect 8 0 2 4;
#X connect 9 0 2 5;
#X restore 694 296 pd preset_setup;
#X msg 693 324 \; \$6-\$1 12 \; \$6-\$2 50 \; \$6-\$3 2500 \; \$6-\$4
3000 \; \$6-\$5 0;
#N canvas 757 23 500 422 preset_setup 0;
#X obj 71 18 inlet;
#X obj 71 310 outlet;
#N canvas 369 23 525 520 param_setup 0;
#X obj 108 410 f \$0;
#X obj 76 453 list append;
#X obj 76 381 t l b;
#X symbolatom 187 163 10 0 0 0 - - -;
#X symbolatom 187 201 10 0 0 0 - - -;
#X symbolatom 187 238 10 0 0 0 - - -;
#X obj 117 57 bng 15 250 50 0 empty empty empty 17 7 0 10 -262144 -1
-1;
#X obj 117 32 inlet;
#X obj 222 32 inlet;
#X obj 276 32 inlet;
#X obj 330 32 inlet;
#X obj 352 122 symbol p1;
#X obj 352 172 symbol p2;
#X obj 352 222 symbol p3;
#X obj 76 479 outlet;
#X obj 352 272 symbol p4;
#X obj 383 32 inlet;
#X symbolatom 187 272 10 0 0 0 - - -;
#X obj 117 80 t b b b b b b b b;
#X obj 352 320 symbol p5;
#X symbolatom 187 305 10 0 0 0 - - -;
#X obj 76 351 pack s s s s s;
#X obj 433 32 inlet;
#X connect 0 0 1 1;
#X connect 1 0 14 0;
#X connect 2 0 1 0;
#X connect 2 1 0 0;
#X connect 3 0 21 0;
#X connect 4 0 21 1;
#X connect 5 0 21 2;
#X connect 6 0 18 0;
#X connect 7 0 6 0;
#X connect 8 0 11 1;
#X connect 9 0 12 1;
#X connect 10 0 13 1;
#X connect 11 0 3 0;
#X connect 12 0 4 0;
#X connect 13 0 5 0;
#X connect 15 0 17 0;
#X connect 16 0 15 1;
#X connect 17 0 21 3;
#X connect 18 0 3 0;
#X connect 18 1 4 0;
#X connect 18 2 5 0;
#X connect 18 3 11 0;
#X connect 18 4 12 0;
#X connect 18 5 13 0;
#X connect 18 6 15 0;
#X connect 18 7 19 0;
#X connect 19 0 20 0;
#X connect 20 0 21 4;
#X connect 21 0 2 0;
#X connect 22 0 19 1;
#X restore 71 257 pd param_setup;
#X obj 99 48 loadbang;
#X obj 71 283 list append;
#X msg 146 76 symbol delay;
#X msg 156 106 symbol decay;
#X msg 166 136 symbol hi_cutoff;
#X msg 186 166 symbol pass_width;
#X msg 206 196 symbol gate_len;
#X connect 0 0 2 0;
#X connect 2 0 4 0;
#X connect 3 0 5 0;
#X connect 3 0 6 0;
#X connect 3 0 7 0;
#X connect 3 0 8 0;
#X connect 3 0 9 0;
#X connect 4 0 1 0;
#X connect 5 0 2 1;
#X connect 6 0 2 2;
#X connect 7 0 2 3;
#X connect 8 0 2 4;
#X connect 9 0 2 5;
#X restore 694 416 pd preset_setup;
#X msg 693 444 \; \$6-\$1 1.2 \; \$6-\$2 237 \; \$6-\$3 707 \; \$6-\$4
555 \; \$6-\$5 0;
#N canvas 757 23 500 422 preset_setup 0;
#X obj 71 18 inlet;
#X obj 71 310 outlet;
#N canvas 369 23 525 520 param_setup 0;
#X obj 108 410 f \$0;
#X obj 76 453 list append;
#X obj 76 381 t l b;
#X symbolatom 187 163 10 0 0 0 - - -;
#X symbolatom 187 201 10 0 0 0 - - -;
#X symbolatom 187 238 10 0 0 0 - - -;
#X obj 117 57 bng 15 250 50 0 empty empty empty 17 7 0 10 -262144 -1
-1;
#X obj 117 32 inlet;
#X obj 222 32 inlet;
#X obj 276 32 inlet;
#X obj 330 32 inlet;
#X obj 352 122 symbol p1;
#X obj 352 172 symbol p2;
#X obj 352 222 symbol p3;
#X obj 76 479 outlet;
#X obj 352 272 symbol p4;
#X obj 383 32 inlet;
#X symbolatom 187 272 10 0 0 0 - - -;
#X obj 117 80 t b b b b b b b b;
#X obj 352 320 symbol p5;
#X symbolatom 187 305 10 0 0 0 - - -;
#X obj 76 351 pack s s s s s;
#X obj 433 32 inlet;
#X connect 0 0 1 1;
#X connect 1 0 14 0;
#X connect 2 0 1 0;
#X connect 2 1 0 0;
#X connect 3 0 21 0;
#X connect 4 0 21 1;
#X connect 5 0 21 2;
#X connect 6 0 18 0;
#X connect 7 0 6 0;
#X connect 8 0 11 1;
#X connect 9 0 12 1;
#X connect 10 0 13 1;
#X connect 11 0 3 0;
#X connect 12 0 4 0;
#X connect 13 0 5 0;
#X connect 15 0 17 0;
#X connect 16 0 15 1;
#X connect 17 0 21 3;
#X connect 18 0 3 0;
#X connect 18 1 4 0;
#X connect 18 2 5 0;
#X connect 18 3 11 0;
#X connect 18 4 12 0;
#X connect 18 5 13 0;
#X connect 18 6 15 0;
#X connect 18 7 19 0;
#X connect 19 0 20 0;
#X connect 20 0 21 4;
#X connect 21 0 2 0;
#X connect 22 0 19 1;
#X restore 71 257 pd param_setup;
#X obj 99 48 loadbang;
#X obj 71 283 list append;
#X msg 146 76 symbol delay;
#X msg 156 106 symbol decay;
#X msg 166 136 symbol hi_cutoff;
#X msg 186 166 symbol pass_width;
#X msg 206 196 symbol gate_len;
#X connect 0 0 2 0;
#X connect 2 0 4 0;
#X connect 3 0 5 0;
#X connect 3 0 6 0;
#X connect 3 0 7 0;
#X connect 3 0 8 0;
#X connect 3 0 9 0;
#X connect 4 0 1 0;
#X connect 5 0 2 1;
#X connect 6 0 2 2;
#X connect 7 0 2 3;
#X connect 8 0 2 4;
#X connect 9 0 2 5;
#X restore 818 296 pd preset_setup;
#X msg 817 324 \; \$6-\$1 8.5 \; \$6-\$2 121 \; \$6-\$3 900 \; \$6-\$4
3400 \; \$6-\$5 480;
#N canvas 757 23 500 422 preset_setup 0;
#X obj 71 18 inlet;
#X obj 71 310 outlet;
#N canvas 369 23 525 520 param_setup 0;
#X obj 108 410 f \$0;
#X obj 76 453 list append;
#X obj 76 381 t l b;
#X symbolatom 187 163 10 0 0 0 - - -;
#X symbolatom 187 201 10 0 0 0 - - -;
#X symbolatom 187 238 10 0 0 0 - - -;
#X obj 117 57 bng 15 250 50 0 empty empty empty 17 7 0 10 -262144 -1
-1;
#X obj 117 32 inlet;
#X obj 222 32 inlet;
#X obj 276 32 inlet;
#X obj 330 32 inlet;
#X obj 352 122 symbol p1;
#X obj 352 172 symbol p2;
#X obj 352 222 symbol p3;
#X obj 76 479 outlet;
#X obj 352 272 symbol p4;
#X obj 383 32 inlet;
#X symbolatom 187 272 10 0 0 0 - - -;
#X obj 117 80 t b b b b b b b b;
#X obj 352 320 symbol p5;
#X symbolatom 187 305 10 0 0 0 - - -;
#X obj 76 351 pack s s s s s;
#X obj 433 32 inlet;
#X connect 0 0 1 1;
#X connect 1 0 14 0;
#X connect 2 0 1 0;
#X connect 2 1 0 0;
#X connect 3 0 21 0;
#X connect 4 0 21 1;
#X connect 5 0 21 2;
#X connect 6 0 18 0;
#X connect 7 0 6 0;
#X connect 8 0 11 1;
#X connect 9 0 12 1;
#X connect 10 0 13 1;
#X connect 11 0 3 0;
#X connect 12 0 4 0;
#X connect 13 0 5 0;
#X connect 15 0 17 0;
#X connect 16 0 15 1;
#X connect 17 0 21 3;
#X connect 18 0 3 0;
#X connect 18 1 4 0;
#X connect 18 2 5 0;
#X connect 18 3 11 0;
#X connect 18 4 12 0;
#X connect 18 5 13 0;
#X connect 18 6 15 0;
#X connect 18 7 19 0;
#X connect 19 0 20 0;
#X connect 20 0 21 4;
#X connect 21 0 2 0;
#X connect 22 0 19 1;
#X restore 71 257 pd param_setup;
#X obj 99 48 loadbang;
#X obj 71 283 list append;
#X msg 146 76 symbol delay;
#X msg 156 106 symbol decay;
#X msg 166 136 symbol hi_cutoff;
#X msg 186 166 symbol pass_width;
#X msg 206 196 symbol gate_len;
#X connect 0 0 2 0;
#X connect 2 0 4 0;
#X connect 3 0 5 0;
#X connect 3 0 6 0;
#X connect 3 0 7 0;
#X connect 3 0 8 0;
#X connect 3 0 9 0;
#X connect 4 0 1 0;
#X connect 5 0 2 1;
#X connect 6 0 2 2;
#X connect 7 0 2 3;
#X connect 8 0 2 4;
#X connect 9 0 2 5;
#X restore 941 296 pd preset_setup;
#X msg 940 324 \; \$6-\$1 10 \; \$6-\$2 25 \; \$6-\$3 505 \; \$6-\$4
3380 \; \$6-\$5 0;
#N canvas 757 23 500 422 preset_setup 0;
#X obj 71 18 inlet;
#X obj 71 310 outlet;
#N canvas 369 23 525 520 param_setup 0;
#X obj 108 410 f \$0;
#X obj 76 453 list append;
#X obj 76 381 t l b;
#X symbolatom 187 163 10 0 0 0 - - -;
#X symbolatom 187 201 10 0 0 0 - - -;
#X symbolatom 187 238 10 0 0 0 - - -;
#X obj 117 57 bng 15 250 50 0 empty empty empty 17 7 0 10 -262144 -1
-1;
#X obj 117 32 inlet;
#X obj 222 32 inlet;
#X obj 276 32 inlet;
#X obj 330 32 inlet;
#X obj 352 122 symbol p1;
#X obj 352 172 symbol p2;
#X obj 352 222 symbol p3;
#X obj 76 479 outlet;
#X obj 352 272 symbol p4;
#X obj 383 32 inlet;
#X symbolatom 187 272 10 0 0 0 - - -;
#X obj 117 80 t b b b b b b b b;
#X obj 352 320 symbol p5;
#X symbolatom 187 305 10 0 0 0 - - -;
#X obj 76 351 pack s s s s s;
#X obj 433 32 inlet;
#X connect 0 0 1 1;
#X connect 1 0 14 0;
#X connect 2 0 1 0;
#X connect 2 1 0 0;
#X connect 3 0 21 0;
#X connect 4 0 21 1;
#X connect 5 0 21 2;
#X connect 6 0 18 0;
#X connect 7 0 6 0;
#X connect 8 0 11 1;
#X connect 9 0 12 1;
#X connect 10 0 13 1;
#X connect 11 0 3 0;
#X connect 12 0 4 0;
#X connect 13 0 5 0;
#X connect 15 0 17 0;
#X connect 16 0 15 1;
#X connect 17 0 21 3;
#X connect 18 0 3 0;
#X connect 18 1 4 0;
#X connect 18 2 5 0;
#X connect 18 3 11 0;
#X connect 18 4 12 0;
#X connect 18 5 13 0;
#X connect 18 6 15 0;
#X connect 18 7 19 0;
#X connect 19 0 20 0;
#X connect 20 0 21 4;
#X connect 21 0 2 0;
#X connect 22 0 19 1;
#X restore 71 257 pd param_setup;
#X obj 99 48 loadbang;
#X obj 71 283 list append;
#X msg 146 76 symbol delay;
#X msg 156 106 symbol decay;
#X msg 166 136 symbol hi_cutoff;
#X msg 186 166 symbol pass_width;
#X msg 206 196 symbol gate_len;
#X connect 0 0 2 0;
#X connect 2 0 4 0;
#X connect 3 0 5 0;
#X connect 3 0 6 0;
#X connect 3 0 7 0;
#X connect 3 0 8 0;
#X connect 3 0 9 0;
#X connect 4 0 1 0;
#X connect 5 0 2 1;
#X connect 6 0 2 2;
#X connect 7 0 2 3;
#X connect 8 0 2 4;
#X connect 9 0 2 5;
#X restore 941 416 pd preset_setup;
#X msg 940 444 \; \$6-\$1 10 \; \$6-\$2 25 \; \$6-\$3 505 \; \$6-\$4
3380 \; \$6-\$5 40;
#N canvas 757 23 500 422 preset_setup 0;
#X obj 71 18 inlet;
#X obj 71 310 outlet;
#N canvas 369 23 525 520 param_setup 0;
#X obj 108 410 f \$0;
#X obj 76 453 list append;
#X obj 76 381 t l b;
#X symbolatom 187 163 10 0 0 0 - - -;
#X symbolatom 187 201 10 0 0 0 - - -;
#X symbolatom 187 238 10 0 0 0 - - -;
#X obj 117 57 bng 15 250 50 0 empty empty empty 17 7 0 10 -262144 -1
-1;
#X obj 117 32 inlet;
#X obj 222 32 inlet;
#X obj 276 32 inlet;
#X obj 330 32 inlet;
#X obj 352 122 symbol p1;
#X obj 352 172 symbol p2;
#X obj 352 222 symbol p3;
#X obj 76 479 outlet;
#X obj 352 272 symbol p4;
#X obj 383 32 inlet;
#X symbolatom 187 272 10 0 0 0 - - -;
#X obj 117 80 t b b b b b b b b;
#X obj 352 320 symbol p5;
#X symbolatom 187 305 10 0 0 0 - - -;
#X obj 76 351 pack s s s s s;
#X obj 433 32 inlet;
#X connect 0 0 1 1;
#X connect 1 0 14 0;
#X connect 2 0 1 0;
#X connect 2 1 0 0;
#X connect 3 0 21 0;
#X connect 4 0 21 1;
#X connect 5 0 21 2;
#X connect 6 0 18 0;
#X connect 7 0 6 0;
#X connect 8 0 11 1;
#X connect 9 0 12 1;
#X connect 10 0 13 1;
#X connect 11 0 3 0;
#X connect 12 0 4 0;
#X connect 13 0 5 0;
#X connect 15 0 17 0;
#X connect 16 0 15 1;
#X connect 17 0 21 3;
#X connect 18 0 3 0;
#X connect 18 1 4 0;
#X connect 18 2 5 0;
#X connect 18 3 11 0;
#X connect 18 4 12 0;
#X connect 18 5 13 0;
#X connect 18 6 15 0;
#X connect 18 7 19 0;
#X connect 19 0 20 0;
#X connect 20 0 21 4;
#X connect 21 0 2 0;
#X connect 22 0 19 1;
#X restore 71 257 pd param_setup;
#X obj 99 48 loadbang;
#X obj 71 283 list append;
#X msg 146 76 symbol delay;
#X msg 156 106 symbol decay;
#X msg 166 136 symbol hi_cutoff;
#X msg 186 166 symbol pass_width;
#X msg 206 196 symbol gate_len;
#X connect 0 0 2 0;
#X connect 2 0 4 0;
#X connect 3 0 5 0;
#X connect 3 0 6 0;
#X connect 3 0 7 0;
#X connect 3 0 8 0;
#X connect 3 0 9 0;
#X connect 4 0 1 0;
#X connect 5 0 2 1;
#X connect 6 0 2 2;
#X connect 7 0 2 3;
#X connect 8 0 2 4;
#X connect 9 0 2 5;
#X restore 818 416 pd preset_setup;
#X msg 817 444 \; \$6-\$1 9.5 \; \$6-\$2 15 \; \$6-\$3 1111 \; \$6-\$4
1363 \; \$6-\$5 0;
#N canvas 757 23 500 422 preset_setup 0;
#X obj 71 18 inlet;
#X obj 71 310 outlet;
#N canvas 369 23 525 520 param_setup 0;
#X obj 108 410 f \$0;
#X obj 76 453 list append;
#X obj 76 381 t l b;
#X symbolatom 187 163 10 0 0 0 - - -;
#X symbolatom 187 201 10 0 0 0 - - -;
#X symbolatom 187 238 10 0 0 0 - - -;
#X obj 117 57 bng 15 250 50 0 empty empty empty 17 7 0 10 -262144 -1
-1;
#X obj 117 32 inlet;
#X obj 222 32 inlet;
#X obj 276 32 inlet;
#X obj 330 32 inlet;
#X obj 352 122 symbol p1;
#X obj 352 172 symbol p2;
#X obj 352 222 symbol p3;
#X obj 76 479 outlet;
#X obj 352 272 symbol p4;
#X obj 383 32 inlet;
#X symbolatom 187 272 10 0 0 0 - - -;
#X obj 117 80 t b b b b b b b b;
#X obj 352 320 symbol p5;
#X symbolatom 187 305 10 0 0 0 - - -;
#X obj 76 351 pack s s s s s;
#X obj 433 32 inlet;
#X connect 0 0 1 1;
#X connect 1 0 14 0;
#X connect 2 0 1 0;
#X connect 2 1 0 0;
#X connect 3 0 21 0;
#X connect 4 0 21 1;
#X connect 5 0 21 2;
#X connect 6 0 18 0;
#X connect 7 0 6 0;
#X connect 8 0 11 1;
#X connect 9 0 12 1;
#X connect 10 0 13 1;
#X connect 11 0 3 0;
#X connect 12 0 4 0;
#X connect 13 0 5 0;
#X connect 15 0 17 0;
#X connect 16 0 15 1;
#X connect 17 0 21 3;
#X connect 18 0 3 0;
#X connect 18 1 4 0;
#X connect 18 2 5 0;
#X connect 18 3 11 0;
#X connect 18 4 12 0;
#X connect 18 5 13 0;
#X connect 18 6 15 0;
#X connect 18 7 19 0;
#X connect 19 0 20 0;
#X connect 20 0 21 4;
#X connect 21 0 2 0;
#X connect 22 0 19 1;
#X restore 71 257 pd param_setup;
#X obj 99 48 loadbang;
#X obj 71 283 list append;
#X msg 146 76 symbol delay;
#X msg 156 106 symbol decay;
#X msg 166 136 symbol hi_cutoff;
#X msg 186 166 symbol pass_width;
#X msg 206 196 symbol gate_len;
#X connect 0 0 2 0;
#X connect 2 0 4 0;
#X connect 3 0 5 0;
#X connect 3 0 6 0;
#X connect 3 0 7 0;
#X connect 3 0 8 0;
#X connect 3 0 9 0;
#X connect 4 0 1 0;
#X connect 5 0 2 1;
#X connect 6 0 2 2;
#X connect 7 0 2 3;
#X connect 8 0 2 4;
#X connect 9 0 2 5;
#X restore 1063 296 pd preset_setup;
#X msg 1062 324 \; \$6-\$1 30 \; \$6-\$2 500 \; \$6-\$3 10000 \; \$6-\$4
3100 \; \$6-\$5 80;
#N canvas 757 23 500 422 preset_setup 0;
#X obj 71 18 inlet;
#X obj 71 310 outlet;
#N canvas 369 23 525 520 param_setup 0;
#X obj 108 410 f \$0;
#X obj 76 453 list append;
#X obj 76 381 t l b;
#X symbolatom 187 163 10 0 0 0 - - -;
#X symbolatom 187 201 10 0 0 0 - - -;
#X symbolatom 187 238 10 0 0 0 - - -;
#X obj 117 57 bng 15 250 50 0 empty empty empty 17 7 0 10 -262144 -1
-1;
#X obj 117 32 inlet;
#X obj 222 32 inlet;
#X obj 276 32 inlet;
#X obj 330 32 inlet;
#X obj 352 122 symbol p1;
#X obj 352 172 symbol p2;
#X obj 352 222 symbol p3;
#X obj 76 479 outlet;
#X obj 352 272 symbol p4;
#X obj 383 32 inlet;
#X symbolatom 187 272 10 0 0 0 - - -;
#X obj 117 80 t b b b b b b b b;
#X obj 352 320 symbol p5;
#X symbolatom 187 305 10 0 0 0 - - -;
#X obj 76 351 pack s s s s s;
#X obj 433 32 inlet;
#X connect 0 0 1 1;
#X connect 1 0 14 0;
#X connect 2 0 1 0;
#X connect 2 1 0 0;
#X connect 3 0 21 0;
#X connect 4 0 21 1;
#X connect 5 0 21 2;
#X connect 6 0 18 0;
#X connect 7 0 6 0;
#X connect 8 0 11 1;
#X connect 9 0 12 1;
#X connect 10 0 13 1;
#X connect 11 0 3 0;
#X connect 12 0 4 0;
#X connect 13 0 5 0;
#X connect 15 0 17 0;
#X connect 16 0 15 1;
#X connect 17 0 21 3;
#X connect 18 0 3 0;
#X connect 18 1 4 0;
#X connect 18 2 5 0;
#X connect 18 3 11 0;
#X connect 18 4 12 0;
#X connect 18 5 13 0;
#X connect 18 6 15 0;
#X connect 18 7 19 0;
#X connect 19 0 20 0;
#X connect 20 0 21 4;
#X connect 21 0 2 0;
#X connect 22 0 19 1;
#X restore 71 257 pd param_setup;
#X obj 99 48 loadbang;
#X obj 71 283 list append;
#X msg 146 76 symbol delay;
#X msg 156 106 symbol decay;
#X msg 166 136 symbol hi_cutoff;
#X msg 186 166 symbol pass_width;
#X msg 206 196 symbol gate_len;
#X connect 0 0 2 0;
#X connect 2 0 4 0;
#X connect 3 0 5 0;
#X connect 3 0 6 0;
#X connect 3 0 7 0;
#X connect 3 0 8 0;
#X connect 3 0 9 0;
#X connect 4 0 1 0;
#X connect 5 0 2 1;
#X connect 6 0 2 2;
#X connect 7 0 2 3;
#X connect 8 0 2 4;
#X connect 9 0 2 5;
#X restore 1063 416 pd preset_setup;
#X msg 1062 444 \; \$6-\$1 50 \; \$6-\$2 500 \; \$6-\$3 909 \; \$6-\$4
151 \; \$6-\$5 121;
#X connect 1 0 3 0;
#X connect 2 0 0 0;
#X connect 3 0 2 0;
#X connect 4 0 2 1;
#X connect 5 0 2 4;
#X connect 6 0 2 2;
#X connect 7 0 2 3;
#X connect 8 0 4 0;
#X connect 9 0 5 0;
#X connect 10 0 6 0;
#X connect 11 0 7 0;
#X connect 12 0 2 5;
#X connect 13 0 12 0;
#X connect 14 0 16 0;
#X connect 14 0 17 0;
#X connect 16 0 15 0;
#X connect 17 0 22 0;
#X connect 17 1 34 0;
#X connect 17 2 31 0;
#X connect 17 3 35 0;
#X connect 17 4 32 0;
#X connect 17 5 36 0;
#X connect 17 6 33 0;
#X connect 17 7 37 0;
#X connect 17 8 38 0;
#X connect 17 9 40 0;
#X connect 17 10 42 0;
#X connect 17 11 48 0;
#X connect 17 12 44 0;
#X connect 17 13 46 0;
#X connect 17 14 50 0;
#X connect 17 15 52 0;
#X connect 18 0 10 0;
#X connect 19 0 11 0;
#X connect 20 0 9 0;
#X connect 21 0 13 0;
#X connect 22 0 23 0;
#X connect 31 0 24 0;
#X connect 32 0 25 0;
#X connect 33 0 26 0;
#X connect 34 0 27 0;
#X connect 35 0 28 0;
#X connect 36 0 29 0;
#X connect 37 0 30 0;
#X connect 38 0 39 0;
#X connect 40 0 41 0;
#X connect 42 0 43 0;
#X connect 44 0 45 0;
#X connect 46 0 47 0;
#X connect 48 0 49 0;
#X connect 50 0 51 0;
#X connect 52 0 53 0;
#X coords 0 -1 1 1 360 220 1 40 40;
