#N canvas 855 23 572 678 12;
#X obj 30 63 tgl 15 0 empty empty empty 17 7 0 10 -262144 -1 -1 0 1
;
#X floatatom 90 46 5 0 0 0 - - -;
#X obj 30 83 metro 600;
#X obj 144 416 *~ 0.25;
#X obj 144 449 dac~;
#X obj 30 106 s \$0-clap;
#X obj 144 127 r \$0-clap;
#X obj 144 158 clap_synth;
#X obj 30 173 tgl 15 0 empty empty empty 17 7 0 10 -262144 -1 -1 0
1;
#X floatatom 90 156 5 0 0 0 - - -;
#X obj 30 266 s \$0-clap;
#X obj 30 218 random 2;
#X obj 30 241 sel 1;
#X obj 30 193 metro 150;
#X connect 0 0 2 0;
#X connect 1 0 2 1;
#X connect 2 0 5 0;
#X connect 3 0 4 0;
#X connect 3 0 4 1;
#X connect 6 0 7 0;
#X connect 7 0 3 0;
#X connect 8 0 13 0;
#X connect 9 0 13 1;
#X connect 11 0 12 0;
#X connect 12 0 10 0;
#X connect 13 0 11 0;
