#N canvas 50 23 940 841 12;
#X obj 8 39 inlet;
#X obj 141 749 outlet~;
#X obj 74 39 inlet;
#X obj 144 39 inlet;
#X obj 214 39 inlet;
#X obj 283 39 inlet;
#X obj 351 39 inlet;
#X obj 141 443 noise~;
#X obj 141 579 *~;
#N canvas 0 23 450 300 vol_env 0;
#X obj 144 178 vline~;
#X msg 144 147 1 2 \, 0.4 \$1 2 \, 0 \$1 \$1;
#X obj 144 116 f 250;
#X obj 144 74 inlet;
#X obj 194 74 inlet;
#X obj 144 209 outlet~;
#X connect 0 0 5 0;
#X connect 1 0 0 0;
#X connect 2 0 1 0;
#X connect 3 0 2 0;
#X connect 4 0 2 1;
#X restore 38 373 pd vol_env;
#N canvas 0 23 449 242 filters 0;
#X obj 37 37 inlet~;
#X obj 37 159 outlet~;
#X obj 37 60 biquad~ 0.638282 -0.176456 0.134544 0.269087 0.134544
;
#X obj 37 83 biquad~ 0.88843 -0.568944 0.614344 -1.22869 0.614344;
#X obj 37 106 biquad~ 0.88843 -0.568944 0.614344 -1.22869 0.614344
;
#X obj 37 129 biquad~ 1.86507 -0.892661 0.939432 -1.87886 0.939432
;
#X connect 0 0 2 0;
#X connect 2 0 3 0;
#X connect 3 0 4 0;
#X connect 4 0 5 0;
#X connect 5 0 1 0;
#X restore 141 525 pd filters;
#N canvas 0 23 886 579 pulse_oscs 0;
#X obj 100 179 expr~ $v1 > 0.55;
#X obj 100 78 inlet;
#X obj 100 382 outlet~;
#X obj 230 179 expr~ $v1 > 0.55;
#X obj 360 179 expr~ $v1 > 0.55;
#X obj 490 179 expr~ $v1 > 0.55;
#X obj 620 179 expr~ $v1 > 0.55;
#X obj 750 179 expr~ $v1 > 0.55;
#X obj 100 156 phasor~;
#X obj 230 156 phasor~;
#X obj 360 156 phasor~;
#X obj 490 156 phasor~;
#X obj 620 156 phasor~;
#X obj 750 156 phasor~;
#X obj 230 37 * 1.342;
#X obj 360 37 * 1.2312;
#X obj 490 37 * 1.6532;
#X obj 620 37 * 1.8523;
#X obj 750 37 * 2.1523;
#X obj 230 117 * 1.1907;
#X obj 360 117 * 1.3015;
#X obj 490 117 * 1.4989;
#X obj 620 117 * 1.7993;
#X obj 750 117 * 2.2026;
#X connect 0 0 2 0;
#X connect 1 0 8 0;
#X connect 1 0 19 0;
#X connect 1 0 20 0;
#X connect 1 0 21 0;
#X connect 1 0 22 0;
#X connect 1 0 23 0;
#X connect 3 0 2 0;
#X connect 4 0 2 0;
#X connect 5 0 2 0;
#X connect 6 0 2 0;
#X connect 7 0 2 0;
#X connect 8 0 0 0;
#X connect 9 0 3 0;
#X connect 10 0 4 0;
#X connect 11 0 5 0;
#X connect 12 0 6 0;
#X connect 13 0 7 0;
#X connect 19 0 9 0;
#X connect 20 0 10 0;
#X connect 21 0 11 0;
#X connect 22 0 12 0;
#X connect 23 0 13 0;
#X restore 36 447 pd pulse_oscs;
#X obj 36 496 *~ 0.9;
#X obj 141 495 *~ 1;
#X obj 141 552 freeverb~;
#X obj 152 720 *~ 1;
#X obj 160 612 delwrite~ \$0-del 100;
#X obj 152 668 delread~ \$0-del 50;
#X floatatom 74 243 7 0 0 0 - - -;
#X obj 74 133 vsl 15 100 1 20000 1 1 empty \$0-pitch pitch 0 -9 0 10
-262144 -1 -1 6085 1;
#X obj 456 99 bng 15 250 50 0 empty empty empty 17 7 0 10 -262144 -1
-1;
#X floatatom 144 243 7 0 0 0 - - -;
#X obj 144 133 vsl 15 100 0 4000 0 1 empty \$0-dur dur 0 -9 0 10 -262144
-1 -1 698 1;
#X floatatom 214 243 7 0 0 0 - - -;
#X obj 214 133 vsl 15 100 0 1 0 1 empty \$0-osc_amt osc_amt 0 -9 0
10 -262144 -1 -1 9900 1;
#X floatatom 283 243 7 0 0 0 - - -;
#X obj 283 133 vsl 15 100 0 1 0 1 empty \$0-noise_amt noise_amt 0 -9
0 10 -262144 -1 -1 8910 1;
#X floatatom 351 243 7 0 0 0 - - -;
#X obj 351 133 vsl 15 100 0 100 0 1 empty \$0-delay_ms delay_ms 0 -9
0 10 -262144 -1 -1 4356 1;
#X floatatom 420 243 7 0 0 0 - - -;
#X obj 420 133 vsl 15 100 0 1 0 1 empty \$0-delay_amt delay_amt 0 -9
0 10 -262144 -1 -1 9900 1;
#X obj 420 39 inlet;
#X obj 75 279 hradio 20 1 1 12 empty empty presets 0 -8 0 10 -262144
-1 -1 3;
#X obj 557 38 sel 0 1 2 3 4 5 6 7 8 9 10 11;
#N canvas 713 24 540 487 preset_setup 0;
#X obj 71 18 inlet;
#X obj 71 350 outlet;
#N canvas 3 249 632 552 param_setup 0;
#X obj 88 420 f \$0;
#X obj 56 463 list append;
#X obj 56 391 t l b;
#X symbolatom 187 183 10 0 0 0 - - -;
#X symbolatom 187 208 10 0 0 0 - - -;
#X symbolatom 187 231 10 0 0 0 - - -;
#X obj 117 47 bng 15 250 50 0 empty empty empty 17 7 0 10 -262144 -1
-1;
#X obj 117 22 inlet;
#X obj 222 22 inlet;
#X obj 276 22 inlet;
#X obj 330 22 inlet;
#X obj 352 122 symbol p1;
#X obj 352 152 symbol p2;
#X obj 352 182 symbol p3;
#X obj 56 489 outlet;
#X obj 352 212 symbol p4;
#X obj 383 22 inlet;
#X symbolatom 187 255 10 0 0 0 - - -;
#X symbolatom 187 278 10 0 0 0 - - -;
#X symbolatom 187 301 10 0 0 0 - - -;
#X obj 352 242 symbol p5;
#X obj 352 272 symbol p6;
#X obj 436 22 inlet;
#X obj 490 22 inlet;
#X obj 56 361 pack s s s s s s;
#X obj 117 70 t b b b b b b b b b;
#X connect 0 0 1 1;
#X connect 1 0 14 0;
#X connect 2 0 1 0;
#X connect 2 1 0 0;
#X connect 3 0 24 0;
#X connect 4 0 24 1;
#X connect 5 0 24 2;
#X connect 6 0 25 0;
#X connect 7 0 6 0;
#X connect 8 0 11 1;
#X connect 9 0 12 1;
#X connect 10 0 13 1;
#X connect 11 0 3 0;
#X connect 12 0 4 0;
#X connect 13 0 5 0;
#X connect 15 0 17 0;
#X connect 16 0 15 1;
#X connect 17 0 24 3;
#X connect 18 0 24 4;
#X connect 19 0 24 5;
#X connect 20 0 18 0;
#X connect 21 0 19 0;
#X connect 22 0 20 1;
#X connect 23 0 21 1;
#X connect 24 0 2 0;
#X connect 25 0 3 0;
#X connect 25 1 4 0;
#X connect 25 2 5 0;
#X connect 25 3 11 0;
#X connect 25 4 12 0;
#X connect 25 5 13 0;
#X connect 25 6 15 0;
#X connect 25 7 20 0;
#X connect 25 8 21 0;
#X restore 71 297 pd param_setup;
#X obj 99 48 loadbang;
#X obj 71 323 list append;
#X msg 146 76 symbol pitch;
#X msg 166 106 symbol dur;
#X msg 186 136 symbol osc_amt;
#X msg 206 166 symbol noise_amt;
#X msg 226 196 symbol delay_ms;
#X msg 246 226 symbol delay_amt;
#X connect 0 0 2 0;
#X connect 2 0 4 0;
#X connect 3 0 5 0;
#X connect 3 0 6 0;
#X connect 3 0 7 0;
#X connect 3 0 8 0;
#X connect 3 0 9 0;
#X connect 3 0 10 0;
#X connect 4 0 1 0;
#X connect 5 0 2 1;
#X connect 6 0 2 2;
#X connect 7 0 2 3;
#X connect 8 0 2 4;
#X connect 9 0 2 5;
#X connect 10 0 2 6;
#X restore 375 400 pd preset_setup;
#X msg 375 425 \; \$7-\$1 220 \; \$7-\$2 200 \; \$7-\$3 0.9 \; \$7-\$4
1 \; \$7-\$5 20 \; \$7-\$6 1 \;;
#N canvas 713 24 540 487 preset_setup 0;
#X obj 71 18 inlet;
#X obj 71 350 outlet;
#N canvas 3 249 632 552 param_setup 0;
#X obj 88 420 f \$0;
#X obj 56 463 list append;
#X obj 56 391 t l b;
#X symbolatom 187 183 10 0 0 0 - - -;
#X symbolatom 187 208 10 0 0 0 - - -;
#X symbolatom 187 231 10 0 0 0 - - -;
#X obj 117 47 bng 15 250 50 0 empty empty empty 17 7 0 10 -262144 -1
-1;
#X obj 117 22 inlet;
#X obj 222 22 inlet;
#X obj 276 22 inlet;
#X obj 330 22 inlet;
#X obj 352 122 symbol p1;
#X obj 352 152 symbol p2;
#X obj 352 182 symbol p3;
#X obj 56 489 outlet;
#X obj 352 212 symbol p4;
#X obj 383 22 inlet;
#X symbolatom 187 255 10 0 0 0 - - -;
#X symbolatom 187 278 10 0 0 0 - - -;
#X symbolatom 187 301 10 0 0 0 - - -;
#X obj 352 242 symbol p5;
#X obj 352 272 symbol p6;
#X obj 436 22 inlet;
#X obj 490 22 inlet;
#X obj 56 361 pack s s s s s s;
#X obj 117 70 t b b b b b b b b b;
#X connect 0 0 1 1;
#X connect 1 0 14 0;
#X connect 2 0 1 0;
#X connect 2 1 0 0;
#X connect 3 0 24 0;
#X connect 4 0 24 1;
#X connect 5 0 24 2;
#X connect 6 0 25 0;
#X connect 7 0 6 0;
#X connect 8 0 11 1;
#X connect 9 0 12 1;
#X connect 10 0 13 1;
#X connect 11 0 3 0;
#X connect 12 0 4 0;
#X connect 13 0 5 0;
#X connect 15 0 17 0;
#X connect 16 0 15 1;
#X connect 17 0 24 3;
#X connect 18 0 24 4;
#X connect 19 0 24 5;
#X connect 20 0 18 0;
#X connect 21 0 19 0;
#X connect 22 0 20 1;
#X connect 23 0 21 1;
#X connect 24 0 2 0;
#X connect 25 0 3 0;
#X connect 25 1 4 0;
#X connect 25 2 5 0;
#X connect 25 3 11 0;
#X connect 25 4 12 0;
#X connect 25 5 13 0;
#X connect 25 6 15 0;
#X connect 25 7 20 0;
#X connect 25 8 21 0;
#X restore 71 297 pd param_setup;
#X obj 99 48 loadbang;
#X obj 71 323 list append;
#X msg 146 76 symbol pitch;
#X msg 166 106 symbol dur;
#X msg 186 136 symbol osc_amt;
#X msg 206 166 symbol noise_amt;
#X msg 226 196 symbol delay_ms;
#X msg 246 226 symbol delay_amt;
#X connect 0 0 2 0;
#X connect 2 0 4 0;
#X connect 3 0 5 0;
#X connect 3 0 6 0;
#X connect 3 0 7 0;
#X connect 3 0 8 0;
#X connect 3 0 9 0;
#X connect 3 0 10 0;
#X connect 4 0 1 0;
#X connect 5 0 2 1;
#X connect 6 0 2 2;
#X connect 7 0 2 3;
#X connect 8 0 2 4;
#X connect 9 0 2 5;
#X connect 10 0 2 6;
#X restore 375 537 pd preset_setup;
#X msg 375 562 \; \$7-\$1 134 \; \$7-\$2 80 \; \$7-\$3 0.95 \; \$7-\$4
0.7 \; \$7-\$5 28 \; \$7-\$6 0.4 \;;
#N canvas 713 24 540 487 preset_setup 0;
#X obj 71 18 inlet;
#X obj 71 350 outlet;
#N canvas 3 249 632 552 param_setup 0;
#X obj 88 420 f \$0;
#X obj 56 463 list append;
#X obj 56 391 t l b;
#X symbolatom 187 183 10 0 0 0 - - -;
#X symbolatom 187 208 10 0 0 0 - - -;
#X symbolatom 187 231 10 0 0 0 - - -;
#X obj 117 47 bng 15 250 50 0 empty empty empty 17 7 0 10 -262144 -1
-1;
#X obj 117 22 inlet;
#X obj 222 22 inlet;
#X obj 276 22 inlet;
#X obj 330 22 inlet;
#X obj 352 122 symbol p1;
#X obj 352 152 symbol p2;
#X obj 352 182 symbol p3;
#X obj 56 489 outlet;
#X obj 352 212 symbol p4;
#X obj 383 22 inlet;
#X symbolatom 187 255 10 0 0 0 - - -;
#X symbolatom 187 278 10 0 0 0 - - -;
#X symbolatom 187 301 10 0 0 0 - - -;
#X obj 352 242 symbol p5;
#X obj 352 272 symbol p6;
#X obj 436 22 inlet;
#X obj 490 22 inlet;
#X obj 56 361 pack s s s s s s;
#X obj 117 70 t b b b b b b b b b;
#X connect 0 0 1 1;
#X connect 1 0 14 0;
#X connect 2 0 1 0;
#X connect 2 1 0 0;
#X connect 3 0 24 0;
#X connect 4 0 24 1;
#X connect 5 0 24 2;
#X connect 6 0 25 0;
#X connect 7 0 6 0;
#X connect 8 0 11 1;
#X connect 9 0 12 1;
#X connect 10 0 13 1;
#X connect 11 0 3 0;
#X connect 12 0 4 0;
#X connect 13 0 5 0;
#X connect 15 0 17 0;
#X connect 16 0 15 1;
#X connect 17 0 24 3;
#X connect 18 0 24 4;
#X connect 19 0 24 5;
#X connect 20 0 18 0;
#X connect 21 0 19 0;
#X connect 22 0 20 1;
#X connect 23 0 21 1;
#X connect 24 0 2 0;
#X connect 25 0 3 0;
#X connect 25 1 4 0;
#X connect 25 2 5 0;
#X connect 25 3 11 0;
#X connect 25 4 12 0;
#X connect 25 5 13 0;
#X connect 25 6 15 0;
#X connect 25 7 20 0;
#X connect 25 8 21 0;
#X restore 71 297 pd param_setup;
#X obj 99 48 loadbang;
#X obj 71 323 list append;
#X msg 146 76 symbol pitch;
#X msg 166 106 symbol dur;
#X msg 186 136 symbol osc_amt;
#X msg 206 166 symbol noise_amt;
#X msg 226 196 symbol delay_ms;
#X msg 246 226 symbol delay_amt;
#X connect 0 0 2 0;
#X connect 2 0 4 0;
#X connect 3 0 5 0;
#X connect 3 0 6 0;
#X connect 3 0 7 0;
#X connect 3 0 8 0;
#X connect 3 0 9 0;
#X connect 3 0 10 0;
#X connect 4 0 1 0;
#X connect 5 0 2 1;
#X connect 6 0 2 2;
#X connect 7 0 2 3;
#X connect 8 0 2 4;
#X connect 9 0 2 5;
#X connect 10 0 2 6;
#X restore 375 677 pd preset_setup;
#X msg 375 702 \; \$7-\$1 2214 \; \$7-\$2 202 \; \$7-\$3 0.14 \; \$7-\$4
0.78 \; \$7-\$5 39 \; \$7-\$6 0.72 \;;
#N canvas 713 24 540 487 preset_setup 0;
#X obj 71 18 inlet;
#X obj 71 350 outlet;
#N canvas 3 249 632 552 param_setup 0;
#X obj 88 420 f \$0;
#X obj 56 463 list append;
#X obj 56 391 t l b;
#X symbolatom 187 183 10 0 0 0 - - -;
#X symbolatom 187 208 10 0 0 0 - - -;
#X symbolatom 187 231 10 0 0 0 - - -;
#X obj 117 47 bng 15 250 50 0 empty empty empty 17 7 0 10 -262144 -1
-1;
#X obj 117 22 inlet;
#X obj 222 22 inlet;
#X obj 276 22 inlet;
#X obj 330 22 inlet;
#X obj 352 122 symbol p1;
#X obj 352 152 symbol p2;
#X obj 352 182 symbol p3;
#X obj 56 489 outlet;
#X obj 352 212 symbol p4;
#X obj 383 22 inlet;
#X symbolatom 187 255 10 0 0 0 - - -;
#X symbolatom 187 278 10 0 0 0 - - -;
#X symbolatom 187 301 10 0 0 0 - - -;
#X obj 352 242 symbol p5;
#X obj 352 272 symbol p6;
#X obj 436 22 inlet;
#X obj 490 22 inlet;
#X obj 56 361 pack s s s s s s;
#X obj 117 70 t b b b b b b b b b;
#X connect 0 0 1 1;
#X connect 1 0 14 0;
#X connect 2 0 1 0;
#X connect 2 1 0 0;
#X connect 3 0 24 0;
#X connect 4 0 24 1;
#X connect 5 0 24 2;
#X connect 6 0 25 0;
#X connect 7 0 6 0;
#X connect 8 0 11 1;
#X connect 9 0 12 1;
#X connect 10 0 13 1;
#X connect 11 0 3 0;
#X connect 12 0 4 0;
#X connect 13 0 5 0;
#X connect 15 0 17 0;
#X connect 16 0 15 1;
#X connect 17 0 24 3;
#X connect 18 0 24 4;
#X connect 19 0 24 5;
#X connect 20 0 18 0;
#X connect 21 0 19 0;
#X connect 22 0 20 1;
#X connect 23 0 21 1;
#X connect 24 0 2 0;
#X connect 25 0 3 0;
#X connect 25 1 4 0;
#X connect 25 2 5 0;
#X connect 25 3 11 0;
#X connect 25 4 12 0;
#X connect 25 5 13 0;
#X connect 25 6 15 0;
#X connect 25 7 20 0;
#X connect 25 8 21 0;
#X restore 71 297 pd param_setup;
#X obj 99 48 loadbang;
#X obj 71 323 list append;
#X msg 146 76 symbol pitch;
#X msg 166 106 symbol dur;
#X msg 186 136 symbol osc_amt;
#X msg 206 166 symbol noise_amt;
#X msg 226 196 symbol delay_ms;
#X msg 246 226 symbol delay_amt;
#X connect 0 0 2 0;
#X connect 2 0 4 0;
#X connect 3 0 5 0;
#X connect 3 0 6 0;
#X connect 3 0 7 0;
#X connect 3 0 8 0;
#X connect 3 0 9 0;
#X connect 3 0 10 0;
#X connect 4 0 1 0;
#X connect 5 0 2 1;
#X connect 6 0 2 2;
#X connect 7 0 2 3;
#X connect 8 0 2 4;
#X connect 9 0 2 5;
#X connect 10 0 2 6;
#X restore 495 400 pd preset_setup;
#X msg 495 425 \; \$7-\$1 440 \; \$7-\$2 282 \; \$7-\$3 1 \; \$7-\$4
0.9 \; \$7-\$5 44 \; \$7-\$6 1 \;;
#N canvas 713 24 540 487 preset_setup 0;
#X obj 71 18 inlet;
#X obj 71 350 outlet;
#N canvas 3 249 632 552 param_setup 0;
#X obj 88 420 f \$0;
#X obj 56 463 list append;
#X obj 56 391 t l b;
#X symbolatom 187 183 10 0 0 0 - - -;
#X symbolatom 187 208 10 0 0 0 - - -;
#X symbolatom 187 231 10 0 0 0 - - -;
#X obj 117 47 bng 15 250 50 0 empty empty empty 17 7 0 10 -262144 -1
-1;
#X obj 117 22 inlet;
#X obj 222 22 inlet;
#X obj 276 22 inlet;
#X obj 330 22 inlet;
#X obj 352 122 symbol p1;
#X obj 352 152 symbol p2;
#X obj 352 182 symbol p3;
#X obj 56 489 outlet;
#X obj 352 212 symbol p4;
#X obj 383 22 inlet;
#X symbolatom 187 255 10 0 0 0 - - -;
#X symbolatom 187 278 10 0 0 0 - - -;
#X symbolatom 187 301 10 0 0 0 - - -;
#X obj 352 242 symbol p5;
#X obj 352 272 symbol p6;
#X obj 436 22 inlet;
#X obj 490 22 inlet;
#X obj 56 361 pack s s s s s s;
#X obj 117 70 t b b b b b b b b b;
#X connect 0 0 1 1;
#X connect 1 0 14 0;
#X connect 2 0 1 0;
#X connect 2 1 0 0;
#X connect 3 0 24 0;
#X connect 4 0 24 1;
#X connect 5 0 24 2;
#X connect 6 0 25 0;
#X connect 7 0 6 0;
#X connect 8 0 11 1;
#X connect 9 0 12 1;
#X connect 10 0 13 1;
#X connect 11 0 3 0;
#X connect 12 0 4 0;
#X connect 13 0 5 0;
#X connect 15 0 17 0;
#X connect 16 0 15 1;
#X connect 17 0 24 3;
#X connect 18 0 24 4;
#X connect 19 0 24 5;
#X connect 20 0 18 0;
#X connect 21 0 19 0;
#X connect 22 0 20 1;
#X connect 23 0 21 1;
#X connect 24 0 2 0;
#X connect 25 0 3 0;
#X connect 25 1 4 0;
#X connect 25 2 5 0;
#X connect 25 3 11 0;
#X connect 25 4 12 0;
#X connect 25 5 13 0;
#X connect 25 6 15 0;
#X connect 25 7 20 0;
#X connect 25 8 21 0;
#X restore 71 297 pd param_setup;
#X obj 99 48 loadbang;
#X obj 71 323 list append;
#X msg 146 76 symbol pitch;
#X msg 166 106 symbol dur;
#X msg 186 136 symbol osc_amt;
#X msg 206 166 symbol noise_amt;
#X msg 226 196 symbol delay_ms;
#X msg 246 226 symbol delay_amt;
#X connect 0 0 2 0;
#X connect 2 0 4 0;
#X connect 3 0 5 0;
#X connect 3 0 6 0;
#X connect 3 0 7 0;
#X connect 3 0 8 0;
#X connect 3 0 9 0;
#X connect 3 0 10 0;
#X connect 4 0 1 0;
#X connect 5 0 2 1;
#X connect 6 0 2 2;
#X connect 7 0 2 3;
#X connect 8 0 2 4;
#X connect 9 0 2 5;
#X connect 10 0 2 6;
#X restore 495 538 pd preset_setup;
#X msg 495 563 \; \$7-\$1 360 \; \$7-\$2 120 \; \$7-\$3 0.79 \; \$7-\$4
1 \; \$7-\$5 26 \; \$7-\$6 0.7 \;;
#N canvas 713 24 540 487 preset_setup 0;
#X obj 71 18 inlet;
#X obj 71 350 outlet;
#N canvas 3 249 632 552 param_setup 0;
#X obj 88 420 f \$0;
#X obj 56 463 list append;
#X obj 56 391 t l b;
#X symbolatom 187 183 10 0 0 0 - - -;
#X symbolatom 187 208 10 0 0 0 - - -;
#X symbolatom 187 231 10 0 0 0 - - -;
#X obj 117 47 bng 15 250 50 0 empty empty empty 17 7 0 10 -262144 -1
-1;
#X obj 117 22 inlet;
#X obj 222 22 inlet;
#X obj 276 22 inlet;
#X obj 330 22 inlet;
#X obj 352 122 symbol p1;
#X obj 352 152 symbol p2;
#X obj 352 182 symbol p3;
#X obj 56 489 outlet;
#X obj 352 212 symbol p4;
#X obj 383 22 inlet;
#X symbolatom 187 255 10 0 0 0 - - -;
#X symbolatom 187 278 10 0 0 0 - - -;
#X symbolatom 187 301 10 0 0 0 - - -;
#X obj 352 242 symbol p5;
#X obj 352 272 symbol p6;
#X obj 436 22 inlet;
#X obj 490 22 inlet;
#X obj 56 361 pack s s s s s s;
#X obj 117 70 t b b b b b b b b b;
#X connect 0 0 1 1;
#X connect 1 0 14 0;
#X connect 2 0 1 0;
#X connect 2 1 0 0;
#X connect 3 0 24 0;
#X connect 4 0 24 1;
#X connect 5 0 24 2;
#X connect 6 0 25 0;
#X connect 7 0 6 0;
#X connect 8 0 11 1;
#X connect 9 0 12 1;
#X connect 10 0 13 1;
#X connect 11 0 3 0;
#X connect 12 0 4 0;
#X connect 13 0 5 0;
#X connect 15 0 17 0;
#X connect 16 0 15 1;
#X connect 17 0 24 3;
#X connect 18 0 24 4;
#X connect 19 0 24 5;
#X connect 20 0 18 0;
#X connect 21 0 19 0;
#X connect 22 0 20 1;
#X connect 23 0 21 1;
#X connect 24 0 2 0;
#X connect 25 0 3 0;
#X connect 25 1 4 0;
#X connect 25 2 5 0;
#X connect 25 3 11 0;
#X connect 25 4 12 0;
#X connect 25 5 13 0;
#X connect 25 6 15 0;
#X connect 25 7 20 0;
#X connect 25 8 21 0;
#X restore 71 297 pd param_setup;
#X obj 99 48 loadbang;
#X obj 71 323 list append;
#X msg 146 76 symbol pitch;
#X msg 166 106 symbol dur;
#X msg 186 136 symbol osc_amt;
#X msg 206 166 symbol noise_amt;
#X msg 226 196 symbol delay_ms;
#X msg 246 226 symbol delay_amt;
#X connect 0 0 2 0;
#X connect 2 0 4 0;
#X connect 3 0 5 0;
#X connect 3 0 6 0;
#X connect 3 0 7 0;
#X connect 3 0 8 0;
#X connect 3 0 9 0;
#X connect 3 0 10 0;
#X connect 4 0 1 0;
#X connect 5 0 2 1;
#X connect 6 0 2 2;
#X connect 7 0 2 3;
#X connect 8 0 2 4;
#X connect 9 0 2 5;
#X connect 10 0 2 6;
#X restore 495 678 pd preset_setup;
#X msg 495 703 \; \$7-\$1 330 \; \$7-\$2 564 \; \$7-\$3 0.35 \; \$7-\$4
0.55 \; \$7-\$5 70 \; \$7-\$6 0.6 \;;
#N canvas 713 24 540 487 preset_setup 0;
#X obj 71 18 inlet;
#X obj 71 350 outlet;
#N canvas 3 249 632 552 param_setup 0;
#X obj 88 420 f \$0;
#X obj 56 463 list append;
#X obj 56 391 t l b;
#X symbolatom 187 183 10 0 0 0 - - -;
#X symbolatom 187 208 10 0 0 0 - - -;
#X symbolatom 187 231 10 0 0 0 - - -;
#X obj 117 47 bng 15 250 50 0 empty empty empty 17 7 0 10 -262144 -1
-1;
#X obj 117 22 inlet;
#X obj 222 22 inlet;
#X obj 276 22 inlet;
#X obj 330 22 inlet;
#X obj 352 122 symbol p1;
#X obj 352 152 symbol p2;
#X obj 352 182 symbol p3;
#X obj 56 489 outlet;
#X obj 352 212 symbol p4;
#X obj 383 22 inlet;
#X symbolatom 187 255 10 0 0 0 - - -;
#X symbolatom 187 278 10 0 0 0 - - -;
#X symbolatom 187 301 10 0 0 0 - - -;
#X obj 352 242 symbol p5;
#X obj 352 272 symbol p6;
#X obj 436 22 inlet;
#X obj 490 22 inlet;
#X obj 56 361 pack s s s s s s;
#X obj 117 70 t b b b b b b b b b;
#X connect 0 0 1 1;
#X connect 1 0 14 0;
#X connect 2 0 1 0;
#X connect 2 1 0 0;
#X connect 3 0 24 0;
#X connect 4 0 24 1;
#X connect 5 0 24 2;
#X connect 6 0 25 0;
#X connect 7 0 6 0;
#X connect 8 0 11 1;
#X connect 9 0 12 1;
#X connect 10 0 13 1;
#X connect 11 0 3 0;
#X connect 12 0 4 0;
#X connect 13 0 5 0;
#X connect 15 0 17 0;
#X connect 16 0 15 1;
#X connect 17 0 24 3;
#X connect 18 0 24 4;
#X connect 19 0 24 5;
#X connect 20 0 18 0;
#X connect 21 0 19 0;
#X connect 22 0 20 1;
#X connect 23 0 21 1;
#X connect 24 0 2 0;
#X connect 25 0 3 0;
#X connect 25 1 4 0;
#X connect 25 2 5 0;
#X connect 25 3 11 0;
#X connect 25 4 12 0;
#X connect 25 5 13 0;
#X connect 25 6 15 0;
#X connect 25 7 20 0;
#X connect 25 8 21 0;
#X restore 71 297 pd param_setup;
#X obj 99 48 loadbang;
#X obj 71 323 list append;
#X msg 146 76 symbol pitch;
#X msg 166 106 symbol dur;
#X msg 186 136 symbol osc_amt;
#X msg 206 166 symbol noise_amt;
#X msg 226 196 symbol delay_ms;
#X msg 246 226 symbol delay_amt;
#X connect 0 0 2 0;
#X connect 2 0 4 0;
#X connect 3 0 5 0;
#X connect 3 0 6 0;
#X connect 3 0 7 0;
#X connect 3 0 8 0;
#X connect 3 0 9 0;
#X connect 3 0 10 0;
#X connect 4 0 1 0;
#X connect 5 0 2 1;
#X connect 6 0 2 2;
#X connect 7 0 2 3;
#X connect 8 0 2 4;
#X connect 9 0 2 5;
#X connect 10 0 2 6;
#X restore 619 400 pd preset_setup;
#X msg 619 425 \; \$7-\$1 110 \; \$7-\$2 242 \; \$7-\$3 1 \; \$7-\$4
0.1 \; \$7-\$5 36 \; \$7-\$6 1 \;;
#N canvas 713 24 540 487 preset_setup 0;
#X obj 71 18 inlet;
#X obj 71 350 outlet;
#N canvas 3 249 632 552 param_setup 0;
#X obj 88 420 f \$0;
#X obj 56 463 list append;
#X obj 56 391 t l b;
#X symbolatom 187 183 10 0 0 0 - - -;
#X symbolatom 187 208 10 0 0 0 - - -;
#X symbolatom 187 231 10 0 0 0 - - -;
#X obj 117 47 bng 15 250 50 0 empty empty empty 17 7 0 10 -262144 -1
-1;
#X obj 117 22 inlet;
#X obj 222 22 inlet;
#X obj 276 22 inlet;
#X obj 330 22 inlet;
#X obj 352 122 symbol p1;
#X obj 352 152 symbol p2;
#X obj 352 182 symbol p3;
#X obj 56 489 outlet;
#X obj 352 212 symbol p4;
#X obj 383 22 inlet;
#X symbolatom 187 255 10 0 0 0 - - -;
#X symbolatom 187 278 10 0 0 0 - - -;
#X symbolatom 187 301 10 0 0 0 - - -;
#X obj 352 242 symbol p5;
#X obj 352 272 symbol p6;
#X obj 436 22 inlet;
#X obj 490 22 inlet;
#X obj 56 361 pack s s s s s s;
#X obj 117 70 t b b b b b b b b b;
#X connect 0 0 1 1;
#X connect 1 0 14 0;
#X connect 2 0 1 0;
#X connect 2 1 0 0;
#X connect 3 0 24 0;
#X connect 4 0 24 1;
#X connect 5 0 24 2;
#X connect 6 0 25 0;
#X connect 7 0 6 0;
#X connect 8 0 11 1;
#X connect 9 0 12 1;
#X connect 10 0 13 1;
#X connect 11 0 3 0;
#X connect 12 0 4 0;
#X connect 13 0 5 0;
#X connect 15 0 17 0;
#X connect 16 0 15 1;
#X connect 17 0 24 3;
#X connect 18 0 24 4;
#X connect 19 0 24 5;
#X connect 20 0 18 0;
#X connect 21 0 19 0;
#X connect 22 0 20 1;
#X connect 23 0 21 1;
#X connect 24 0 2 0;
#X connect 25 0 3 0;
#X connect 25 1 4 0;
#X connect 25 2 5 0;
#X connect 25 3 11 0;
#X connect 25 4 12 0;
#X connect 25 5 13 0;
#X connect 25 6 15 0;
#X connect 25 7 20 0;
#X connect 25 8 21 0;
#X restore 71 297 pd param_setup;
#X obj 99 48 loadbang;
#X obj 71 323 list append;
#X msg 146 76 symbol pitch;
#X msg 166 106 symbol dur;
#X msg 186 136 symbol osc_amt;
#X msg 206 166 symbol noise_amt;
#X msg 226 196 symbol delay_ms;
#X msg 246 226 symbol delay_amt;
#X connect 0 0 2 0;
#X connect 2 0 4 0;
#X connect 3 0 5 0;
#X connect 3 0 6 0;
#X connect 3 0 7 0;
#X connect 3 0 8 0;
#X connect 3 0 9 0;
#X connect 3 0 10 0;
#X connect 4 0 1 0;
#X connect 5 0 2 1;
#X connect 6 0 2 2;
#X connect 7 0 2 3;
#X connect 8 0 2 4;
#X connect 9 0 2 5;
#X connect 10 0 2 6;
#X restore 619 538 pd preset_setup;
#X msg 619 563 \; \$7-\$1 110 \; \$7-\$2 40 \; \$7-\$3 0.1 \; \$7-\$4
0.95 \; \$7-\$5 38 \; \$7-\$6 0.8 \;;
#N canvas 713 24 540 487 preset_setup 0;
#X obj 71 18 inlet;
#X obj 71 350 outlet;
#N canvas 3 249 632 552 param_setup 0;
#X obj 88 420 f \$0;
#X obj 56 463 list append;
#X obj 56 391 t l b;
#X symbolatom 187 183 10 0 0 0 - - -;
#X symbolatom 187 208 10 0 0 0 - - -;
#X symbolatom 187 231 10 0 0 0 - - -;
#X obj 117 47 bng 15 250 50 0 empty empty empty 17 7 0 10 -262144 -1
-1;
#X obj 117 22 inlet;
#X obj 222 22 inlet;
#X obj 276 22 inlet;
#X obj 330 22 inlet;
#X obj 352 122 symbol p1;
#X obj 352 152 symbol p2;
#X obj 352 182 symbol p3;
#X obj 56 489 outlet;
#X obj 352 212 symbol p4;
#X obj 383 22 inlet;
#X symbolatom 187 255 10 0 0 0 - - -;
#X symbolatom 187 278 10 0 0 0 - - -;
#X symbolatom 187 301 10 0 0 0 - - -;
#X obj 352 242 symbol p5;
#X obj 352 272 symbol p6;
#X obj 436 22 inlet;
#X obj 490 22 inlet;
#X obj 56 361 pack s s s s s s;
#X obj 117 70 t b b b b b b b b b;
#X connect 0 0 1 1;
#X connect 1 0 14 0;
#X connect 2 0 1 0;
#X connect 2 1 0 0;
#X connect 3 0 24 0;
#X connect 4 0 24 1;
#X connect 5 0 24 2;
#X connect 6 0 25 0;
#X connect 7 0 6 0;
#X connect 8 0 11 1;
#X connect 9 0 12 1;
#X connect 10 0 13 1;
#X connect 11 0 3 0;
#X connect 12 0 4 0;
#X connect 13 0 5 0;
#X connect 15 0 17 0;
#X connect 16 0 15 1;
#X connect 17 0 24 3;
#X connect 18 0 24 4;
#X connect 19 0 24 5;
#X connect 20 0 18 0;
#X connect 21 0 19 0;
#X connect 22 0 20 1;
#X connect 23 0 21 1;
#X connect 24 0 2 0;
#X connect 25 0 3 0;
#X connect 25 1 4 0;
#X connect 25 2 5 0;
#X connect 25 3 11 0;
#X connect 25 4 12 0;
#X connect 25 5 13 0;
#X connect 25 6 15 0;
#X connect 25 7 20 0;
#X connect 25 8 21 0;
#X restore 71 297 pd param_setup;
#X obj 99 48 loadbang;
#X obj 71 323 list append;
#X msg 146 76 symbol pitch;
#X msg 166 106 symbol dur;
#X msg 186 136 symbol osc_amt;
#X msg 206 166 symbol noise_amt;
#X msg 226 196 symbol delay_ms;
#X msg 246 226 symbol delay_amt;
#X connect 0 0 2 0;
#X connect 2 0 4 0;
#X connect 3 0 5 0;
#X connect 3 0 6 0;
#X connect 3 0 7 0;
#X connect 3 0 8 0;
#X connect 3 0 9 0;
#X connect 3 0 10 0;
#X connect 4 0 1 0;
#X connect 5 0 2 1;
#X connect 6 0 2 2;
#X connect 7 0 2 3;
#X connect 8 0 2 4;
#X connect 9 0 2 5;
#X connect 10 0 2 6;
#X restore 619 678 pd preset_setup;
#X msg 619 703 \; \$7-\$1 164 \; \$7-\$2 40 \; \$7-\$3 1 \; \$7-\$4
0.28 \; \$7-\$5 38 \; \$7-\$6 0.86 \;;
#N canvas 713 24 540 487 preset_setup 0;
#X obj 71 18 inlet;
#X obj 71 350 outlet;
#N canvas 3 249 632 552 param_setup 0;
#X obj 88 420 f \$0;
#X obj 56 463 list append;
#X obj 56 391 t l b;
#X symbolatom 187 183 10 0 0 0 - - -;
#X symbolatom 187 208 10 0 0 0 - - -;
#X symbolatom 187 231 10 0 0 0 - - -;
#X obj 117 47 bng 15 250 50 0 empty empty empty 17 7 0 10 -262144 -1
-1;
#X obj 117 22 inlet;
#X obj 222 22 inlet;
#X obj 276 22 inlet;
#X obj 330 22 inlet;
#X obj 352 122 symbol p1;
#X obj 352 152 symbol p2;
#X obj 352 182 symbol p3;
#X obj 56 489 outlet;
#X obj 352 212 symbol p4;
#X obj 383 22 inlet;
#X symbolatom 187 255 10 0 0 0 - - -;
#X symbolatom 187 278 10 0 0 0 - - -;
#X symbolatom 187 301 10 0 0 0 - - -;
#X obj 352 242 symbol p5;
#X obj 352 272 symbol p6;
#X obj 436 22 inlet;
#X obj 490 22 inlet;
#X obj 56 361 pack s s s s s s;
#X obj 117 70 t b b b b b b b b b;
#X connect 0 0 1 1;
#X connect 1 0 14 0;
#X connect 2 0 1 0;
#X connect 2 1 0 0;
#X connect 3 0 24 0;
#X connect 4 0 24 1;
#X connect 5 0 24 2;
#X connect 6 0 25 0;
#X connect 7 0 6 0;
#X connect 8 0 11 1;
#X connect 9 0 12 1;
#X connect 10 0 13 1;
#X connect 11 0 3 0;
#X connect 12 0 4 0;
#X connect 13 0 5 0;
#X connect 15 0 17 0;
#X connect 16 0 15 1;
#X connect 17 0 24 3;
#X connect 18 0 24 4;
#X connect 19 0 24 5;
#X connect 20 0 18 0;
#X connect 21 0 19 0;
#X connect 22 0 20 1;
#X connect 23 0 21 1;
#X connect 24 0 2 0;
#X connect 25 0 3 0;
#X connect 25 1 4 0;
#X connect 25 2 5 0;
#X connect 25 3 11 0;
#X connect 25 4 12 0;
#X connect 25 5 13 0;
#X connect 25 6 15 0;
#X connect 25 7 20 0;
#X connect 25 8 21 0;
#X restore 71 297 pd param_setup;
#X obj 99 48 loadbang;
#X obj 71 323 list append;
#X msg 146 76 symbol pitch;
#X msg 166 106 symbol dur;
#X msg 186 136 symbol osc_amt;
#X msg 206 166 symbol noise_amt;
#X msg 226 196 symbol delay_ms;
#X msg 246 226 symbol delay_amt;
#X connect 0 0 2 0;
#X connect 2 0 4 0;
#X connect 3 0 5 0;
#X connect 3 0 6 0;
#X connect 3 0 7 0;
#X connect 3 0 8 0;
#X connect 3 0 9 0;
#X connect 3 0 10 0;
#X connect 4 0 1 0;
#X connect 5 0 2 1;
#X connect 6 0 2 2;
#X connect 7 0 2 3;
#X connect 8 0 2 4;
#X connect 9 0 2 5;
#X connect 10 0 2 6;
#X restore 743 400 pd preset_setup;
#N canvas 713 24 540 487 preset_setup 0;
#X obj 71 18 inlet;
#X obj 71 350 outlet;
#N canvas 3 249 632 552 param_setup 0;
#X obj 88 420 f \$0;
#X obj 56 463 list append;
#X obj 56 391 t l b;
#X symbolatom 187 183 10 0 0 0 - - -;
#X symbolatom 187 208 10 0 0 0 - - -;
#X symbolatom 187 231 10 0 0 0 - - -;
#X obj 117 47 bng 15 250 50 0 empty empty empty 17 7 0 10 -262144 -1
-1;
#X obj 117 22 inlet;
#X obj 222 22 inlet;
#X obj 276 22 inlet;
#X obj 330 22 inlet;
#X obj 352 122 symbol p1;
#X obj 352 152 symbol p2;
#X obj 352 182 symbol p3;
#X obj 56 489 outlet;
#X obj 352 212 symbol p4;
#X obj 383 22 inlet;
#X symbolatom 187 255 10 0 0 0 - - -;
#X symbolatom 187 278 10 0 0 0 - - -;
#X symbolatom 187 301 10 0 0 0 - - -;
#X obj 352 242 symbol p5;
#X obj 352 272 symbol p6;
#X obj 436 22 inlet;
#X obj 490 22 inlet;
#X obj 56 361 pack s s s s s s;
#X obj 117 70 t b b b b b b b b b;
#X connect 0 0 1 1;
#X connect 1 0 14 0;
#X connect 2 0 1 0;
#X connect 2 1 0 0;
#X connect 3 0 24 0;
#X connect 4 0 24 1;
#X connect 5 0 24 2;
#X connect 6 0 25 0;
#X connect 7 0 6 0;
#X connect 8 0 11 1;
#X connect 9 0 12 1;
#X connect 10 0 13 1;
#X connect 11 0 3 0;
#X connect 12 0 4 0;
#X connect 13 0 5 0;
#X connect 15 0 17 0;
#X connect 16 0 15 1;
#X connect 17 0 24 3;
#X connect 18 0 24 4;
#X connect 19 0 24 5;
#X connect 20 0 18 0;
#X connect 21 0 19 0;
#X connect 22 0 20 1;
#X connect 23 0 21 1;
#X connect 24 0 2 0;
#X connect 25 0 3 0;
#X connect 25 1 4 0;
#X connect 25 2 5 0;
#X connect 25 3 11 0;
#X connect 25 4 12 0;
#X connect 25 5 13 0;
#X connect 25 6 15 0;
#X connect 25 7 20 0;
#X connect 25 8 21 0;
#X restore 71 297 pd param_setup;
#X obj 99 48 loadbang;
#X obj 71 323 list append;
#X msg 146 76 symbol pitch;
#X msg 166 106 symbol dur;
#X msg 186 136 symbol osc_amt;
#X msg 206 166 symbol noise_amt;
#X msg 226 196 symbol delay_ms;
#X msg 246 226 symbol delay_amt;
#X connect 0 0 2 0;
#X connect 2 0 4 0;
#X connect 3 0 5 0;
#X connect 3 0 6 0;
#X connect 3 0 7 0;
#X connect 3 0 8 0;
#X connect 3 0 9 0;
#X connect 3 0 10 0;
#X connect 4 0 1 0;
#X connect 5 0 2 1;
#X connect 6 0 2 2;
#X connect 7 0 2 3;
#X connect 8 0 2 4;
#X connect 9 0 2 5;
#X connect 10 0 2 6;
#X restore 743 538 pd preset_setup;
#X msg 743 425 \; \$7-\$1 120 \; \$7-\$2 808 \; \$7-\$3 0.74 \; \$7-\$4
0.75 \; \$7-\$5 25 \; \$7-\$6 1 \;;
#X msg 743 563 \; \$7-\$1 1640 \; \$7-\$2 242 \; \$7-\$3 0.212 \; \$7-\$4
1 \; \$7-\$5 88 \; \$7-\$6 0.5 \;;
#N canvas 713 24 540 487 preset_setup 0;
#X obj 71 18 inlet;
#X obj 71 350 outlet;
#N canvas 3 249 632 552 param_setup 0;
#X obj 88 420 f \$0;
#X obj 56 463 list append;
#X obj 56 391 t l b;
#X symbolatom 187 183 10 0 0 0 - - -;
#X symbolatom 187 208 10 0 0 0 - - -;
#X symbolatom 187 231 10 0 0 0 - - -;
#X obj 117 47 bng 15 250 50 0 empty empty empty 17 7 0 10 -262144 -1
-1;
#X obj 117 22 inlet;
#X obj 222 22 inlet;
#X obj 276 22 inlet;
#X obj 330 22 inlet;
#X obj 352 122 symbol p1;
#X obj 352 152 symbol p2;
#X obj 352 182 symbol p3;
#X obj 56 489 outlet;
#X obj 352 212 symbol p4;
#X obj 383 22 inlet;
#X symbolatom 187 255 10 0 0 0 - - -;
#X symbolatom 187 278 10 0 0 0 - - -;
#X symbolatom 187 301 10 0 0 0 - - -;
#X obj 352 242 symbol p5;
#X obj 352 272 symbol p6;
#X obj 436 22 inlet;
#X obj 490 22 inlet;
#X obj 56 361 pack s s s s s s;
#X obj 117 70 t b b b b b b b b b;
#X connect 0 0 1 1;
#X connect 1 0 14 0;
#X connect 2 0 1 0;
#X connect 2 1 0 0;
#X connect 3 0 24 0;
#X connect 4 0 24 1;
#X connect 5 0 24 2;
#X connect 6 0 25 0;
#X connect 7 0 6 0;
#X connect 8 0 11 1;
#X connect 9 0 12 1;
#X connect 10 0 13 1;
#X connect 11 0 3 0;
#X connect 12 0 4 0;
#X connect 13 0 5 0;
#X connect 15 0 17 0;
#X connect 16 0 15 1;
#X connect 17 0 24 3;
#X connect 18 0 24 4;
#X connect 19 0 24 5;
#X connect 20 0 18 0;
#X connect 21 0 19 0;
#X connect 22 0 20 1;
#X connect 23 0 21 1;
#X connect 24 0 2 0;
#X connect 25 0 3 0;
#X connect 25 1 4 0;
#X connect 25 2 5 0;
#X connect 25 3 11 0;
#X connect 25 4 12 0;
#X connect 25 5 13 0;
#X connect 25 6 15 0;
#X connect 25 7 20 0;
#X connect 25 8 21 0;
#X restore 71 297 pd param_setup;
#X obj 99 48 loadbang;
#X obj 71 323 list append;
#X msg 146 76 symbol pitch;
#X msg 166 106 symbol dur;
#X msg 186 136 symbol osc_amt;
#X msg 206 166 symbol noise_amt;
#X msg 226 196 symbol delay_ms;
#X msg 246 226 symbol delay_amt;
#X connect 0 0 2 0;
#X connect 2 0 4 0;
#X connect 3 0 5 0;
#X connect 3 0 6 0;
#X connect 3 0 7 0;
#X connect 3 0 8 0;
#X connect 3 0 9 0;
#X connect 3 0 10 0;
#X connect 4 0 1 0;
#X connect 5 0 2 1;
#X connect 6 0 2 2;
#X connect 7 0 2 3;
#X connect 8 0 2 4;
#X connect 9 0 2 5;
#X connect 10 0 2 6;
#X restore 743 678 pd preset_setup;
#X msg 743 703 \; \$7-\$1 1500 \; \$7-\$2 40 \; \$7-\$3 0.666 \; \$7-\$4
1 \; \$7-\$5 80 \; \$7-\$6 0.12 \;;
#X obj 480 39 inlet;
#X connect 0 0 20 0;
#X connect 2 0 19 0;
#X connect 3 0 22 0;
#X connect 4 0 24 0;
#X connect 5 0 26 0;
#X connect 6 0 28 0;
#X connect 7 0 13 0;
#X connect 8 0 16 0;
#X connect 8 0 1 0;
#X connect 9 0 8 1;
#X connect 10 0 14 0;
#X connect 11 0 12 0;
#X connect 12 0 10 0;
#X connect 13 0 10 0;
#X connect 14 0 8 0;
#X connect 15 0 1 0;
#X connect 17 0 15 0;
#X connect 18 0 11 0;
#X connect 19 0 18 0;
#X connect 20 0 9 0;
#X connect 21 0 9 1;
#X connect 22 0 21 0;
#X connect 23 0 12 1;
#X connect 24 0 23 0;
#X connect 25 0 13 1;
#X connect 26 0 25 0;
#X connect 27 0 17 0;
#X connect 28 0 27 0;
#X connect 29 0 15 1;
#X connect 30 0 29 0;
#X connect 31 0 30 0;
#X connect 32 0 33 0;
#X connect 33 0 34 0;
#X connect 33 1 36 0;
#X connect 33 2 38 0;
#X connect 33 3 40 0;
#X connect 33 4 42 0;
#X connect 33 5 44 0;
#X connect 33 6 46 0;
#X connect 33 7 48 0;
#X connect 33 8 50 0;
#X connect 33 9 52 0;
#X connect 33 10 53 0;
#X connect 33 11 56 0;
#X connect 34 0 35 0;
#X connect 36 0 37 0;
#X connect 38 0 39 0;
#X connect 40 0 41 0;
#X connect 42 0 43 0;
#X connect 44 0 45 0;
#X connect 46 0 47 0;
#X connect 48 0 49 0;
#X connect 50 0 51 0;
#X connect 52 0 54 0;
#X connect 53 0 55 0;
#X connect 56 0 57 0;
#X connect 58 0 32 0;
#X coords 0 -1 1 1 420 220 1 60 90;
