#N canvas 855 23 585 425 12;
#X obj 22 63 tgl 15 0 empty empty empty 17 7 0 10 -262144 -1 -1 0 1
;
#X floatatom 82 46 5 0 0 0 - - -;
#X obj 22 83 metro 600;
#X obj 22 173 tgl 15 0 empty empty empty 17 7 0 10 -262144 -1 -1 0
1;
#X floatatom 82 156 5 0 0 0 - - -;
#X obj 22 218 random 2;
#X obj 22 241 sel 1;
#X obj 22 193 metro 150;
#X obj 140 354 *~ 0.25;
#X obj 140 387 dac~;
#X obj 22 106 s \$0-cymbal;
#X obj 22 266 s \$0-cymbal;
#X obj 140 53 r \$0-cymbal;
#X obj 140 82 cymbal_synth;
#X msg 186 327 0.5;
#X connect 0 0 2 0;
#X connect 1 0 2 1;
#X connect 2 0 10 0;
#X connect 3 0 7 0;
#X connect 4 0 7 1;
#X connect 5 0 6 0;
#X connect 6 0 11 0;
#X connect 7 0 5 0;
#X connect 8 0 9 0;
#X connect 8 0 9 1;
#X connect 12 0 13 0;
#X connect 13 0 8 0;
#X connect 14 0 8 1;
