#N canvas 688 23 740 582 12;
#X obj 100 63 tgl 15 0 empty empty empty 17 7 0 10 -262144 -1 -1 0
1;
#X floatatom 160 46 5 0 0 0 - - -;
#X obj 100 83 metro 600;
#X obj 134 456 *~ 0.25;
#X obj 134 489 dac~;
#X obj 134 219 kick_synth;
#X obj 134 190 r \$0-kick;
#X obj 100 106 s \$0-kick;
#X obj 22 173 tgl 15 0 empty empty empty 17 7 0 10 -262144 -1 -1 0
1;
#X floatatom 82 156 5 0 0 0 - - -;
#X obj 22 218 random 2;
#X obj 22 241 sel 1;
#X obj 22 193 metro 150;
#X obj 22 266 s \$0-kick;
#X floatatom 275 183 5 0 0 0 - - -;
#X obj 538 182 random 100;
#X floatatom 538 228 5 0 0 0 - - -;
#X floatatom 568 44 5 0 0 0 - - -;
#X msg 568 17 0.9;
#X floatatom 526 44 5 0 0 0 - - -;
#X obj 526 68 -;
#X floatatom 526 91 5 0 0 0 - - -;
#X floatatom 538 275 5 0 0 0 - - -;
#X obj 538 297 + 0.9;
#X floatatom 538 320 5 0 0 0 - - -;
#X obj 538 205 / 100;
#X obj 538 252 - 0.5;
#X floatatom 624 117 5 0 0 0 - - -;
#X floatatom 674 118 5 0 0 0 - - -;
#X floatatom 623 256 5 0 0 0 - - -;
#X obj 641 163 / 1;
#X obj 606 321 * 0.1;
#X floatatom 649 283 5 0 0 0 - - -;
#X obj 538 350 abs;
#X connect 0 0 2 0;
#X connect 1 0 2 1;
#X connect 2 0 7 0;
#X connect 3 0 4 0;
#X connect 3 0 4 1;
#X connect 5 0 3 0;
#X connect 6 0 5 0;
#X connect 8 0 12 0;
#X connect 9 0 12 1;
#X connect 10 0 11 0;
#X connect 11 0 13 0;
#X connect 12 0 10 0;
#X connect 12 0 15 0;
#X connect 14 0 5 2;
#X connect 15 0 25 0;
#X connect 16 0 26 0;
#X connect 17 0 20 1;
#X connect 18 0 17 0;
#X connect 19 0 20 0;
#X connect 20 0 21 0;
#X connect 22 0 23 0;
#X connect 23 0 24 0;
#X connect 24 0 31 0;
#X connect 24 0 33 0;
#X connect 25 0 16 0;
#X connect 26 0 22 0;
#X connect 27 0 15 1;
#X connect 27 0 30 0;
#X connect 28 0 30 1;
#X connect 29 0 23 1;
#X connect 30 0 25 1;
#X connect 31 0 23 1;
#X connect 32 0 31 1;
#X connect 33 0 14 0;
