#N canvas 15 44 1214 770 12;
#X floatatom 48 192 7 0 0 0 - - -;
#X obj 378 47 bng 15 250 50 0 empty empty empty 17 7 0 10 -262144 -1
-1;
#X floatatom 247 192 7 0 0 0 - - -;
#X floatatom 117 192 7 0 0 0 - - -;
#X floatatom 184 192 7 0 0 0 - - -;
#X obj 48 82 vsl 15 100 0.1 4000 1 1 empty \$0-decay decay 0 -9 0 10
-262144 -1 -1 8605 1;
#X obj 247 82 vsl 15 100 0 10 0 1 empty \$0-sine_amt sine_amt 0 -9
0 10 -262144 -1 -1 1980 1;
#X obj 117 82 vsl 15 100 0 10 0 1 empty \$0-pitch_mul pitch_mul 0 -9
0 10 -262144 -1 -1 495 1;
#X obj 184 82 vsl 15 100 0 20 0 1 empty \$0-filter_mul filter_mul 0
-9 0 10 -262144 -1 -1 594 1;
#X floatatom 316 192 7 0 0 0 - - -;
#X obj 316 82 vsl 15 100 0 30 0 1 empty \$0-noise_amt noise_amt 0 -9
0 10 -262144 -1 -1 0 1;
#X obj 47 234 hradio 20 1 1 16 empty empty presets 0 -8 0 10 -262144
-1 -1 13;
#X obj 45 9 inlet;
#X obj 39 335 outlet~;
#X obj 382 290 sel 0 1 2 3 4 5 6 7 8 9 10 11 12 13 14;
#N canvas 460 23 729 753 kick 0;
#X obj 95 125 f 250;
#X floatatom 127 100 5 0 0 0 - - -;
#X obj 95 97 bng 15 250 50 0 empty empty empty 17 7 0 10 -262144 -1
-1;
#N canvas 0 23 450 300 vol_env 0;
#X obj 107 172 vline~;
#X obj 107 205 *~;
#X obj 107 28 inlet;
#X obj 107 248 outlet~;
#X msg 107 100 0.5 \, 1 5 \, 0.5 60 5 \, 0 \$1 65;
#X connect 0 0 1 0;
#X connect 0 0 1 1;
#X connect 1 0 3 0;
#X connect 2 0 4 0;
#X connect 4 0 0 0;
#X restore 95 158 pd vol_env;
#X obj 127 73 inlet;
#X obj 82 73 inlet;
#X obj 288 550 outlet~;
#X obj 253 246 phasor~;
#X obj 253 269 expr~ $v1 > 0.5;
#X obj 288 521 *~;
#N canvas 0 23 450 392 pitch_env 0;
#X obj 107 142 vline~;
#X obj 107 175 *~;
#X obj 107 28 inlet;
#X obj 107 278 outlet~;
#X msg 107 100 1 \, 0.5 5 \, 0 \$1 5;
#X obj 107 198 *~ 80;
#X obj 107 221 +~ 29;
#X text 161 211 midi pitches - 109 --> 29;
#X obj 107 244 mtof~;
#X connect 0 0 1 0;
#X connect 0 0 1 1;
#X connect 1 0 5 0;
#X connect 2 0 4 0;
#X connect 4 0 0 0;
#X connect 5 0 6 0;
#X connect 6 0 8 0;
#X connect 8 0 3 0;
#X restore 253 165 pd pitch_env;
#X obj 253 218 *~ 1;
#X floatatom 278 190 5 0 0 0 - - -;
#X obj 278 131 inlet;
#X obj 253 411 vcf~ 0.5;
#X text 187 413 low pass;
#X obj 411 201 *~ 1.5;
#X floatatom 450 171 5 0 0 0 - - -;
#X obj 450 131 inlet;
#X obj 559 246 noise~;
#X obj 558 307 *~ 1;
#X floatatom 609 246 5 0 0 0 - - -;
#X obj 609 130 inlet;
#X floatatom 530 386 5 0 0 0 - - -;
#X obj 505 412 *~ 1;
#X obj 505 435 osc~;
#X obj 530 130 inlet;
#X text 511 246 noise;
#X text 545 418 sinusoidal;
#X connect 0 0 3 0;
#X connect 0 0 10 0;
#X connect 1 0 0 1;
#X connect 2 0 0 0;
#X connect 3 0 9 0;
#X connect 4 0 1 0;
#X connect 5 0 2 0;
#X connect 7 0 8 0;
#X connect 8 0 14 0;
#X connect 9 0 6 0;
#X connect 10 0 11 0;
#X connect 10 0 16 0;
#X connect 11 0 7 0;
#X connect 11 0 24 0;
#X connect 12 0 11 1;
#X connect 13 0 12 0;
#X connect 14 1 9 1;
#X connect 16 0 14 1;
#X connect 17 0 16 1;
#X connect 18 0 17 0;
#X connect 19 0 20 0;
#X connect 20 0 14 0;
#X connect 21 0 20 1;
#X connect 22 0 21 0;
#X connect 23 0 24 1;
#X connect 24 0 25 0;
#X connect 25 0 9 1;
#X connect 26 0 23 0;
#X restore 39 308 pd kick;
#X f 10;
#X floatatom 371 235 3 0 0 0 - - -;
#X obj 300 266 + 1;
#X msg 102 414 \; \$6-\$1 150 \; \$6-\$2 0.7 \; \$6-\$3 1.8 \; \$6-\$4
1.2 \; \$6-\$5 0.9;
#X msg 232 414 \; \$6-\$1 300 \; \$6-\$2 0.8 \; \$6-\$3 4 \; \$6-\$4
1.5 \; \$6-\$5 2.4;
#X msg 359 414 \; \$6-\$1 990 \; \$6-\$2 0.6 \; \$6-\$3 0.6 \; \$6-\$4
0.5 \; \$6-\$5 1.5;
#X msg 492 414 \; \$6-\$1 26 \; \$6-\$2 1.9 \; \$6-\$3 0.6 \; \$6-\$4
0.8 \; \$6-\$5 5.75;
#X msg 624 414 \; \$6-\$1 160 \; \$6-\$2 2.8 \; \$6-\$3 1.4 \; \$6-\$4
0.6 \; \$6-\$5 0.3;
#X msg 757 414 \; \$6-\$1 26 \; \$6-\$2 1.2 \; \$6-\$3 5.6 \; \$6-\$4
0.8 \; \$6-\$5 0;
#X msg 888 414 \; \$6-\$1 220 \; \$6-\$2 1.2 \; \$6-\$3 6 \; \$6-\$4
0.9 \; \$6-\$5 0.25;
#X msg 1017 414 \; \$6-\$1 380 \; \$6-\$2 1.8 \; \$6-\$3 4.8 \; \$6-\$4
0.8 \; \$6-\$5 12;
#X msg 102 544 \; \$6-\$1 84 \; \$6-\$2 0.9 \; \$6-\$3 3.4 \; \$6-\$4
1.2 \; \$6-\$5 1.5;
#X msg 232 544 \; \$6-\$1 580 \; \$6-\$2 0.4 \; \$6-\$3 1.2 \; \$6-\$4
0.9 \; \$6-\$5 2.1;
#X msg 359 544 \; \$6-\$1 40 \; \$6-\$2 2.3 \; \$6-\$3 1.2 \; \$6-\$4
1.3 \; \$6-\$5 6.9;
#X msg 492 544 \; \$6-\$1 116 \; \$6-\$2 1.5 \; \$6-\$3 0.2 \; \$6-\$4
1.4 \; \$6-\$5 0;
#X msg 624 544 \; \$6-\$1 1000 \; \$6-\$2 0.8 \; \$6-\$3 0.25 \; \$6-\$4
0.7 \; \$6-\$5 1.2;
#X msg 757 544 \; \$6-\$1 70 \; \$6-\$2 0.9 \; \$6-\$3 6.2 \; \$6-\$4
1.6 \; \$6-\$5 1.8;
#X msg 888 544 \; \$6-\$1 1000 \; \$6-\$2 0.5 \; \$6-\$3 1.2 \; \$6-\$4
2 \; \$6-\$5 0;
#X msg 1017 544 \; \$6-\$1 800 \; \$6-\$2 0.9 \; \$6-\$3 2.2 \; \$6-\$4
0.8 \; \$6-\$5 5.4;
#N canvas 0 23 500 422 preset_setup 0;
#X obj 71 18 inlet;
#X obj 71 310 outlet;
#N canvas 369 23 525 520 param_setup 0;
#X obj 108 410 f \$0;
#X obj 76 453 list append;
#X obj 76 381 t l b;
#X symbolatom 187 163 10 0 0 0 - - -;
#X symbolatom 187 201 10 0 0 0 - - -;
#X symbolatom 187 238 10 0 0 0 - - -;
#X obj 117 57 bng 15 250 50 0 empty empty empty 17 7 0 10 -262144 -1
-1;
#X obj 117 32 inlet;
#X obj 222 32 inlet;
#X obj 276 32 inlet;
#X obj 330 32 inlet;
#X obj 352 122 symbol p1;
#X obj 352 172 symbol p2;
#X obj 352 222 symbol p3;
#X obj 76 479 outlet;
#X obj 352 272 symbol p4;
#X obj 383 32 inlet;
#X symbolatom 187 272 10 0 0 0 - - -;
#X obj 117 80 t b b b b b b b b;
#X obj 352 320 symbol p5;
#X symbolatom 187 305 10 0 0 0 - - -;
#X obj 76 351 pack s s s s s;
#X obj 433 32 inlet;
#X connect 0 0 1 1;
#X connect 1 0 14 0;
#X connect 2 0 1 0;
#X connect 2 1 0 0;
#X connect 3 0 21 0;
#X connect 4 0 21 1;
#X connect 5 0 21 2;
#X connect 6 0 18 0;
#X connect 7 0 6 0;
#X connect 8 0 11 1;
#X connect 9 0 12 1;
#X connect 10 0 13 1;
#X connect 11 0 3 0;
#X connect 12 0 4 0;
#X connect 13 0 5 0;
#X connect 15 0 17 0;
#X connect 16 0 15 1;
#X connect 17 0 21 3;
#X connect 18 0 3 0;
#X connect 18 1 4 0;
#X connect 18 2 5 0;
#X connect 18 3 11 0;
#X connect 18 4 12 0;
#X connect 18 5 13 0;
#X connect 18 6 15 0;
#X connect 18 7 19 0;
#X connect 19 0 20 0;
#X connect 20 0 21 4;
#X connect 21 0 2 0;
#X connect 22 0 19 1;
#X restore 71 257 pd param_setup;
#X obj 99 48 loadbang;
#X obj 71 283 list append;
#X msg 146 76 symbol decay;
#X msg 156 106 symbol pitch_mul;
#X msg 166 136 symbol filter_mul;
#X msg 186 166 symbol sine_amt;
#X msg 206 196 symbol noise_amt;
#X connect 0 0 2 0;
#X connect 2 0 4 0;
#X connect 3 0 5 0;
#X connect 3 0 6 0;
#X connect 3 0 7 0;
#X connect 3 0 8 0;
#X connect 3 0 9 0;
#X connect 4 0 1 0;
#X connect 5 0 2 1;
#X connect 6 0 2 2;
#X connect 7 0 2 3;
#X connect 8 0 2 4;
#X connect 9 0 2 5;
#X restore 102 386 pd preset_setup;
#N canvas 0 23 500 422 preset_setup 0;
#X obj 71 18 inlet;
#X obj 71 310 outlet;
#N canvas 369 23 525 520 param_setup 0;
#X obj 108 410 f \$0;
#X obj 76 453 list append;
#X obj 76 381 t l b;
#X symbolatom 187 163 10 0 0 0 - - -;
#X symbolatom 187 201 10 0 0 0 - - -;
#X symbolatom 187 238 10 0 0 0 - - -;
#X obj 117 57 bng 15 250 50 0 empty empty empty 17 7 0 10 -262144 -1
-1;
#X obj 117 32 inlet;
#X obj 222 32 inlet;
#X obj 276 32 inlet;
#X obj 330 32 inlet;
#X obj 352 122 symbol p1;
#X obj 352 172 symbol p2;
#X obj 352 222 symbol p3;
#X obj 76 479 outlet;
#X obj 352 272 symbol p4;
#X obj 383 32 inlet;
#X symbolatom 187 272 10 0 0 0 - - -;
#X obj 117 80 t b b b b b b b b;
#X obj 352 320 symbol p5;
#X symbolatom 187 305 10 0 0 0 - - -;
#X obj 76 351 pack s s s s s;
#X obj 433 32 inlet;
#X connect 0 0 1 1;
#X connect 1 0 14 0;
#X connect 2 0 1 0;
#X connect 2 1 0 0;
#X connect 3 0 21 0;
#X connect 4 0 21 1;
#X connect 5 0 21 2;
#X connect 6 0 18 0;
#X connect 7 0 6 0;
#X connect 8 0 11 1;
#X connect 9 0 12 1;
#X connect 10 0 13 1;
#X connect 11 0 3 0;
#X connect 12 0 4 0;
#X connect 13 0 5 0;
#X connect 15 0 17 0;
#X connect 16 0 15 1;
#X connect 17 0 21 3;
#X connect 18 0 3 0;
#X connect 18 1 4 0;
#X connect 18 2 5 0;
#X connect 18 3 11 0;
#X connect 18 4 12 0;
#X connect 18 5 13 0;
#X connect 18 6 15 0;
#X connect 18 7 19 0;
#X connect 19 0 20 0;
#X connect 20 0 21 4;
#X connect 21 0 2 0;
#X connect 22 0 19 1;
#X restore 71 257 pd param_setup;
#X obj 99 48 loadbang;
#X obj 71 283 list append;
#X msg 146 76 symbol decay;
#X msg 156 106 symbol pitch_mul;
#X msg 166 136 symbol filter_mul;
#X msg 186 166 symbol sine_amt;
#X msg 206 196 symbol noise_amt;
#X connect 0 0 2 0;
#X connect 2 0 4 0;
#X connect 3 0 5 0;
#X connect 3 0 6 0;
#X connect 3 0 7 0;
#X connect 3 0 8 0;
#X connect 3 0 9 0;
#X connect 4 0 1 0;
#X connect 5 0 2 1;
#X connect 6 0 2 2;
#X connect 7 0 2 3;
#X connect 8 0 2 4;
#X connect 9 0 2 5;
#X restore 232 386 pd preset_setup;
#N canvas 0 23 500 422 preset_setup 0;
#X obj 71 18 inlet;
#X obj 71 310 outlet;
#N canvas 369 23 525 520 param_setup 0;
#X obj 108 410 f \$0;
#X obj 76 453 list append;
#X obj 76 381 t l b;
#X symbolatom 187 163 10 0 0 0 - - -;
#X symbolatom 187 201 10 0 0 0 - - -;
#X symbolatom 187 238 10 0 0 0 - - -;
#X obj 117 57 bng 15 250 50 0 empty empty empty 17 7 0 10 -262144 -1
-1;
#X obj 117 32 inlet;
#X obj 222 32 inlet;
#X obj 276 32 inlet;
#X obj 330 32 inlet;
#X obj 352 122 symbol p1;
#X obj 352 172 symbol p2;
#X obj 352 222 symbol p3;
#X obj 76 479 outlet;
#X obj 352 272 symbol p4;
#X obj 383 32 inlet;
#X symbolatom 187 272 10 0 0 0 - - -;
#X obj 117 80 t b b b b b b b b;
#X obj 352 320 symbol p5;
#X symbolatom 187 305 10 0 0 0 - - -;
#X obj 76 351 pack s s s s s;
#X obj 433 32 inlet;
#X connect 0 0 1 1;
#X connect 1 0 14 0;
#X connect 2 0 1 0;
#X connect 2 1 0 0;
#X connect 3 0 21 0;
#X connect 4 0 21 1;
#X connect 5 0 21 2;
#X connect 6 0 18 0;
#X connect 7 0 6 0;
#X connect 8 0 11 1;
#X connect 9 0 12 1;
#X connect 10 0 13 1;
#X connect 11 0 3 0;
#X connect 12 0 4 0;
#X connect 13 0 5 0;
#X connect 15 0 17 0;
#X connect 16 0 15 1;
#X connect 17 0 21 3;
#X connect 18 0 3 0;
#X connect 18 1 4 0;
#X connect 18 2 5 0;
#X connect 18 3 11 0;
#X connect 18 4 12 0;
#X connect 18 5 13 0;
#X connect 18 6 15 0;
#X connect 18 7 19 0;
#X connect 19 0 20 0;
#X connect 20 0 21 4;
#X connect 21 0 2 0;
#X connect 22 0 19 1;
#X restore 71 257 pd param_setup;
#X obj 99 48 loadbang;
#X obj 71 283 list append;
#X msg 146 76 symbol decay;
#X msg 156 106 symbol pitch_mul;
#X msg 166 136 symbol filter_mul;
#X msg 186 166 symbol sine_amt;
#X msg 206 196 symbol noise_amt;
#X connect 0 0 2 0;
#X connect 2 0 4 0;
#X connect 3 0 5 0;
#X connect 3 0 6 0;
#X connect 3 0 7 0;
#X connect 3 0 8 0;
#X connect 3 0 9 0;
#X connect 4 0 1 0;
#X connect 5 0 2 1;
#X connect 6 0 2 2;
#X connect 7 0 2 3;
#X connect 8 0 2 4;
#X connect 9 0 2 5;
#X restore 359 386 pd preset_setup;
#N canvas 0 23 500 422 preset_setup 0;
#X obj 71 18 inlet;
#X obj 71 310 outlet;
#N canvas 369 23 525 520 param_setup 0;
#X obj 108 410 f \$0;
#X obj 76 453 list append;
#X obj 76 381 t l b;
#X symbolatom 187 163 10 0 0 0 - - -;
#X symbolatom 187 201 10 0 0 0 - - -;
#X symbolatom 187 238 10 0 0 0 - - -;
#X obj 117 57 bng 15 250 50 0 empty empty empty 17 7 0 10 -262144 -1
-1;
#X obj 117 32 inlet;
#X obj 222 32 inlet;
#X obj 276 32 inlet;
#X obj 330 32 inlet;
#X obj 352 122 symbol p1;
#X obj 352 172 symbol p2;
#X obj 352 222 symbol p3;
#X obj 76 479 outlet;
#X obj 352 272 symbol p4;
#X obj 383 32 inlet;
#X symbolatom 187 272 10 0 0 0 - - -;
#X obj 117 80 t b b b b b b b b;
#X obj 352 320 symbol p5;
#X symbolatom 187 305 10 0 0 0 - - -;
#X obj 76 351 pack s s s s s;
#X obj 433 32 inlet;
#X connect 0 0 1 1;
#X connect 1 0 14 0;
#X connect 2 0 1 0;
#X connect 2 1 0 0;
#X connect 3 0 21 0;
#X connect 4 0 21 1;
#X connect 5 0 21 2;
#X connect 6 0 18 0;
#X connect 7 0 6 0;
#X connect 8 0 11 1;
#X connect 9 0 12 1;
#X connect 10 0 13 1;
#X connect 11 0 3 0;
#X connect 12 0 4 0;
#X connect 13 0 5 0;
#X connect 15 0 17 0;
#X connect 16 0 15 1;
#X connect 17 0 21 3;
#X connect 18 0 3 0;
#X connect 18 1 4 0;
#X connect 18 2 5 0;
#X connect 18 3 11 0;
#X connect 18 4 12 0;
#X connect 18 5 13 0;
#X connect 18 6 15 0;
#X connect 18 7 19 0;
#X connect 19 0 20 0;
#X connect 20 0 21 4;
#X connect 21 0 2 0;
#X connect 22 0 19 1;
#X restore 71 257 pd param_setup;
#X obj 99 48 loadbang;
#X obj 71 283 list append;
#X msg 146 76 symbol decay;
#X msg 156 106 symbol pitch_mul;
#X msg 166 136 symbol filter_mul;
#X msg 186 166 symbol sine_amt;
#X msg 206 196 symbol noise_amt;
#X connect 0 0 2 0;
#X connect 2 0 4 0;
#X connect 3 0 5 0;
#X connect 3 0 6 0;
#X connect 3 0 7 0;
#X connect 3 0 8 0;
#X connect 3 0 9 0;
#X connect 4 0 1 0;
#X connect 5 0 2 1;
#X connect 6 0 2 2;
#X connect 7 0 2 3;
#X connect 8 0 2 4;
#X connect 9 0 2 5;
#X restore 492 386 pd preset_setup;
#N canvas 0 23 500 422 preset_setup 0;
#X obj 71 18 inlet;
#X obj 71 310 outlet;
#N canvas 369 23 525 520 param_setup 0;
#X obj 108 410 f \$0;
#X obj 76 453 list append;
#X obj 76 381 t l b;
#X symbolatom 187 163 10 0 0 0 - - -;
#X symbolatom 187 201 10 0 0 0 - - -;
#X symbolatom 187 238 10 0 0 0 - - -;
#X obj 117 57 bng 15 250 50 0 empty empty empty 17 7 0 10 -262144 -1
-1;
#X obj 117 32 inlet;
#X obj 222 32 inlet;
#X obj 276 32 inlet;
#X obj 330 32 inlet;
#X obj 352 122 symbol p1;
#X obj 352 172 symbol p2;
#X obj 352 222 symbol p3;
#X obj 76 479 outlet;
#X obj 352 272 symbol p4;
#X obj 383 32 inlet;
#X symbolatom 187 272 10 0 0 0 - - -;
#X obj 117 80 t b b b b b b b b;
#X obj 352 320 symbol p5;
#X symbolatom 187 305 10 0 0 0 - - -;
#X obj 76 351 pack s s s s s;
#X obj 433 32 inlet;
#X connect 0 0 1 1;
#X connect 1 0 14 0;
#X connect 2 0 1 0;
#X connect 2 1 0 0;
#X connect 3 0 21 0;
#X connect 4 0 21 1;
#X connect 5 0 21 2;
#X connect 6 0 18 0;
#X connect 7 0 6 0;
#X connect 8 0 11 1;
#X connect 9 0 12 1;
#X connect 10 0 13 1;
#X connect 11 0 3 0;
#X connect 12 0 4 0;
#X connect 13 0 5 0;
#X connect 15 0 17 0;
#X connect 16 0 15 1;
#X connect 17 0 21 3;
#X connect 18 0 3 0;
#X connect 18 1 4 0;
#X connect 18 2 5 0;
#X connect 18 3 11 0;
#X connect 18 4 12 0;
#X connect 18 5 13 0;
#X connect 18 6 15 0;
#X connect 18 7 19 0;
#X connect 19 0 20 0;
#X connect 20 0 21 4;
#X connect 21 0 2 0;
#X connect 22 0 19 1;
#X restore 71 257 pd param_setup;
#X obj 99 48 loadbang;
#X obj 71 283 list append;
#X msg 146 76 symbol decay;
#X msg 156 106 symbol pitch_mul;
#X msg 166 136 symbol filter_mul;
#X msg 186 166 symbol sine_amt;
#X msg 206 196 symbol noise_amt;
#X connect 0 0 2 0;
#X connect 2 0 4 0;
#X connect 3 0 5 0;
#X connect 3 0 6 0;
#X connect 3 0 7 0;
#X connect 3 0 8 0;
#X connect 3 0 9 0;
#X connect 4 0 1 0;
#X connect 5 0 2 1;
#X connect 6 0 2 2;
#X connect 7 0 2 3;
#X connect 8 0 2 4;
#X connect 9 0 2 5;
#X restore 624 386 pd preset_setup;
#N canvas 0 23 500 422 preset_setup 0;
#X obj 71 18 inlet;
#X obj 71 310 outlet;
#N canvas 369 23 525 520 param_setup 0;
#X obj 108 410 f \$0;
#X obj 76 453 list append;
#X obj 76 381 t l b;
#X symbolatom 187 163 10 0 0 0 - - -;
#X symbolatom 187 201 10 0 0 0 - - -;
#X symbolatom 187 238 10 0 0 0 - - -;
#X obj 117 57 bng 15 250 50 0 empty empty empty 17 7 0 10 -262144 -1
-1;
#X obj 117 32 inlet;
#X obj 222 32 inlet;
#X obj 276 32 inlet;
#X obj 330 32 inlet;
#X obj 352 122 symbol p1;
#X obj 352 172 symbol p2;
#X obj 352 222 symbol p3;
#X obj 76 479 outlet;
#X obj 352 272 symbol p4;
#X obj 383 32 inlet;
#X symbolatom 187 272 10 0 0 0 - - -;
#X obj 117 80 t b b b b b b b b;
#X obj 352 320 symbol p5;
#X symbolatom 187 305 10 0 0 0 - - -;
#X obj 76 351 pack s s s s s;
#X obj 433 32 inlet;
#X connect 0 0 1 1;
#X connect 1 0 14 0;
#X connect 2 0 1 0;
#X connect 2 1 0 0;
#X connect 3 0 21 0;
#X connect 4 0 21 1;
#X connect 5 0 21 2;
#X connect 6 0 18 0;
#X connect 7 0 6 0;
#X connect 8 0 11 1;
#X connect 9 0 12 1;
#X connect 10 0 13 1;
#X connect 11 0 3 0;
#X connect 12 0 4 0;
#X connect 13 0 5 0;
#X connect 15 0 17 0;
#X connect 16 0 15 1;
#X connect 17 0 21 3;
#X connect 18 0 3 0;
#X connect 18 1 4 0;
#X connect 18 2 5 0;
#X connect 18 3 11 0;
#X connect 18 4 12 0;
#X connect 18 5 13 0;
#X connect 18 6 15 0;
#X connect 18 7 19 0;
#X connect 19 0 20 0;
#X connect 20 0 21 4;
#X connect 21 0 2 0;
#X connect 22 0 19 1;
#X restore 71 257 pd param_setup;
#X obj 99 48 loadbang;
#X obj 71 283 list append;
#X msg 146 76 symbol decay;
#X msg 156 106 symbol pitch_mul;
#X msg 166 136 symbol filter_mul;
#X msg 186 166 symbol sine_amt;
#X msg 206 196 symbol noise_amt;
#X connect 0 0 2 0;
#X connect 2 0 4 0;
#X connect 3 0 5 0;
#X connect 3 0 6 0;
#X connect 3 0 7 0;
#X connect 3 0 8 0;
#X connect 3 0 9 0;
#X connect 4 0 1 0;
#X connect 5 0 2 1;
#X connect 6 0 2 2;
#X connect 7 0 2 3;
#X connect 8 0 2 4;
#X connect 9 0 2 5;
#X restore 757 386 pd preset_setup;
#N canvas 0 23 500 422 preset_setup 0;
#X obj 71 18 inlet;
#X obj 71 310 outlet;
#N canvas 369 23 525 520 param_setup 0;
#X obj 108 410 f \$0;
#X obj 76 453 list append;
#X obj 76 381 t l b;
#X symbolatom 187 163 10 0 0 0 - - -;
#X symbolatom 187 201 10 0 0 0 - - -;
#X symbolatom 187 238 10 0 0 0 - - -;
#X obj 117 57 bng 15 250 50 0 empty empty empty 17 7 0 10 -262144 -1
-1;
#X obj 117 32 inlet;
#X obj 222 32 inlet;
#X obj 276 32 inlet;
#X obj 330 32 inlet;
#X obj 352 122 symbol p1;
#X obj 352 172 symbol p2;
#X obj 352 222 symbol p3;
#X obj 76 479 outlet;
#X obj 352 272 symbol p4;
#X obj 383 32 inlet;
#X symbolatom 187 272 10 0 0 0 - - -;
#X obj 117 80 t b b b b b b b b;
#X obj 352 320 symbol p5;
#X symbolatom 187 305 10 0 0 0 - - -;
#X obj 76 351 pack s s s s s;
#X obj 433 32 inlet;
#X connect 0 0 1 1;
#X connect 1 0 14 0;
#X connect 2 0 1 0;
#X connect 2 1 0 0;
#X connect 3 0 21 0;
#X connect 4 0 21 1;
#X connect 5 0 21 2;
#X connect 6 0 18 0;
#X connect 7 0 6 0;
#X connect 8 0 11 1;
#X connect 9 0 12 1;
#X connect 10 0 13 1;
#X connect 11 0 3 0;
#X connect 12 0 4 0;
#X connect 13 0 5 0;
#X connect 15 0 17 0;
#X connect 16 0 15 1;
#X connect 17 0 21 3;
#X connect 18 0 3 0;
#X connect 18 1 4 0;
#X connect 18 2 5 0;
#X connect 18 3 11 0;
#X connect 18 4 12 0;
#X connect 18 5 13 0;
#X connect 18 6 15 0;
#X connect 18 7 19 0;
#X connect 19 0 20 0;
#X connect 20 0 21 4;
#X connect 21 0 2 0;
#X connect 22 0 19 1;
#X restore 71 257 pd param_setup;
#X obj 99 48 loadbang;
#X obj 71 283 list append;
#X msg 146 76 symbol decay;
#X msg 156 106 symbol pitch_mul;
#X msg 166 136 symbol filter_mul;
#X msg 186 166 symbol sine_amt;
#X msg 206 196 symbol noise_amt;
#X connect 0 0 2 0;
#X connect 2 0 4 0;
#X connect 3 0 5 0;
#X connect 3 0 6 0;
#X connect 3 0 7 0;
#X connect 3 0 8 0;
#X connect 3 0 9 0;
#X connect 4 0 1 0;
#X connect 5 0 2 1;
#X connect 6 0 2 2;
#X connect 7 0 2 3;
#X connect 8 0 2 4;
#X connect 9 0 2 5;
#X restore 888 386 pd preset_setup;
#N canvas 0 23 500 422 preset_setup 0;
#X obj 71 18 inlet;
#X obj 71 310 outlet;
#N canvas 369 23 525 520 param_setup 0;
#X obj 108 410 f \$0;
#X obj 76 453 list append;
#X obj 76 381 t l b;
#X symbolatom 187 163 10 0 0 0 - - -;
#X symbolatom 187 201 10 0 0 0 - - -;
#X symbolatom 187 238 10 0 0 0 - - -;
#X obj 117 57 bng 15 250 50 0 empty empty empty 17 7 0 10 -262144 -1
-1;
#X obj 117 32 inlet;
#X obj 222 32 inlet;
#X obj 276 32 inlet;
#X obj 330 32 inlet;
#X obj 352 122 symbol p1;
#X obj 352 172 symbol p2;
#X obj 352 222 symbol p3;
#X obj 76 479 outlet;
#X obj 352 272 symbol p4;
#X obj 383 32 inlet;
#X symbolatom 187 272 10 0 0 0 - - -;
#X obj 117 80 t b b b b b b b b;
#X obj 352 320 symbol p5;
#X symbolatom 187 305 10 0 0 0 - - -;
#X obj 76 351 pack s s s s s;
#X obj 433 32 inlet;
#X connect 0 0 1 1;
#X connect 1 0 14 0;
#X connect 2 0 1 0;
#X connect 2 1 0 0;
#X connect 3 0 21 0;
#X connect 4 0 21 1;
#X connect 5 0 21 2;
#X connect 6 0 18 0;
#X connect 7 0 6 0;
#X connect 8 0 11 1;
#X connect 9 0 12 1;
#X connect 10 0 13 1;
#X connect 11 0 3 0;
#X connect 12 0 4 0;
#X connect 13 0 5 0;
#X connect 15 0 17 0;
#X connect 16 0 15 1;
#X connect 17 0 21 3;
#X connect 18 0 3 0;
#X connect 18 1 4 0;
#X connect 18 2 5 0;
#X connect 18 3 11 0;
#X connect 18 4 12 0;
#X connect 18 5 13 0;
#X connect 18 6 15 0;
#X connect 18 7 19 0;
#X connect 19 0 20 0;
#X connect 20 0 21 4;
#X connect 21 0 2 0;
#X connect 22 0 19 1;
#X restore 71 257 pd param_setup;
#X obj 99 48 loadbang;
#X obj 71 283 list append;
#X msg 146 76 symbol decay;
#X msg 156 106 symbol pitch_mul;
#X msg 166 136 symbol filter_mul;
#X msg 186 166 symbol sine_amt;
#X msg 206 196 symbol noise_amt;
#X connect 0 0 2 0;
#X connect 2 0 4 0;
#X connect 3 0 5 0;
#X connect 3 0 6 0;
#X connect 3 0 7 0;
#X connect 3 0 8 0;
#X connect 3 0 9 0;
#X connect 4 0 1 0;
#X connect 5 0 2 1;
#X connect 6 0 2 2;
#X connect 7 0 2 3;
#X connect 8 0 2 4;
#X connect 9 0 2 5;
#X restore 1017 386 pd preset_setup;
#N canvas 0 23 500 422 preset_setup 0;
#X obj 71 18 inlet;
#X obj 71 310 outlet;
#N canvas 369 23 525 520 param_setup 0;
#X obj 108 410 f \$0;
#X obj 76 453 list append;
#X obj 76 381 t l b;
#X symbolatom 187 163 10 0 0 0 - - -;
#X symbolatom 187 201 10 0 0 0 - - -;
#X symbolatom 187 238 10 0 0 0 - - -;
#X obj 117 57 bng 15 250 50 0 empty empty empty 17 7 0 10 -262144 -1
-1;
#X obj 117 32 inlet;
#X obj 222 32 inlet;
#X obj 276 32 inlet;
#X obj 330 32 inlet;
#X obj 352 122 symbol p1;
#X obj 352 172 symbol p2;
#X obj 352 222 symbol p3;
#X obj 76 479 outlet;
#X obj 352 272 symbol p4;
#X obj 383 32 inlet;
#X symbolatom 187 272 10 0 0 0 - - -;
#X obj 117 80 t b b b b b b b b;
#X obj 352 320 symbol p5;
#X symbolatom 187 305 10 0 0 0 - - -;
#X obj 76 351 pack s s s s s;
#X obj 433 32 inlet;
#X connect 0 0 1 1;
#X connect 1 0 14 0;
#X connect 2 0 1 0;
#X connect 2 1 0 0;
#X connect 3 0 21 0;
#X connect 4 0 21 1;
#X connect 5 0 21 2;
#X connect 6 0 18 0;
#X connect 7 0 6 0;
#X connect 8 0 11 1;
#X connect 9 0 12 1;
#X connect 10 0 13 1;
#X connect 11 0 3 0;
#X connect 12 0 4 0;
#X connect 13 0 5 0;
#X connect 15 0 17 0;
#X connect 16 0 15 1;
#X connect 17 0 21 3;
#X connect 18 0 3 0;
#X connect 18 1 4 0;
#X connect 18 2 5 0;
#X connect 18 3 11 0;
#X connect 18 4 12 0;
#X connect 18 5 13 0;
#X connect 18 6 15 0;
#X connect 18 7 19 0;
#X connect 19 0 20 0;
#X connect 20 0 21 4;
#X connect 21 0 2 0;
#X connect 22 0 19 1;
#X restore 71 257 pd param_setup;
#X obj 99 48 loadbang;
#X obj 71 283 list append;
#X msg 146 76 symbol decay;
#X msg 156 106 symbol pitch_mul;
#X msg 166 136 symbol filter_mul;
#X msg 186 166 symbol sine_amt;
#X msg 206 196 symbol noise_amt;
#X connect 0 0 2 0;
#X connect 2 0 4 0;
#X connect 3 0 5 0;
#X connect 3 0 6 0;
#X connect 3 0 7 0;
#X connect 3 0 8 0;
#X connect 3 0 9 0;
#X connect 4 0 1 0;
#X connect 5 0 2 1;
#X connect 6 0 2 2;
#X connect 7 0 2 3;
#X connect 8 0 2 4;
#X connect 9 0 2 5;
#X restore 102 516 pd preset_setup;
#N canvas 0 23 500 422 preset_setup 0;
#X obj 71 18 inlet;
#X obj 71 310 outlet;
#N canvas 369 23 525 520 param_setup 0;
#X obj 108 410 f \$0;
#X obj 76 453 list append;
#X obj 76 381 t l b;
#X symbolatom 187 163 10 0 0 0 - - -;
#X symbolatom 187 201 10 0 0 0 - - -;
#X symbolatom 187 238 10 0 0 0 - - -;
#X obj 117 57 bng 15 250 50 0 empty empty empty 17 7 0 10 -262144 -1
-1;
#X obj 117 32 inlet;
#X obj 222 32 inlet;
#X obj 276 32 inlet;
#X obj 330 32 inlet;
#X obj 352 122 symbol p1;
#X obj 352 172 symbol p2;
#X obj 352 222 symbol p3;
#X obj 76 479 outlet;
#X obj 352 272 symbol p4;
#X obj 383 32 inlet;
#X symbolatom 187 272 10 0 0 0 - - -;
#X obj 117 80 t b b b b b b b b;
#X obj 352 320 symbol p5;
#X symbolatom 187 305 10 0 0 0 - - -;
#X obj 76 351 pack s s s s s;
#X obj 433 32 inlet;
#X connect 0 0 1 1;
#X connect 1 0 14 0;
#X connect 2 0 1 0;
#X connect 2 1 0 0;
#X connect 3 0 21 0;
#X connect 4 0 21 1;
#X connect 5 0 21 2;
#X connect 6 0 18 0;
#X connect 7 0 6 0;
#X connect 8 0 11 1;
#X connect 9 0 12 1;
#X connect 10 0 13 1;
#X connect 11 0 3 0;
#X connect 12 0 4 0;
#X connect 13 0 5 0;
#X connect 15 0 17 0;
#X connect 16 0 15 1;
#X connect 17 0 21 3;
#X connect 18 0 3 0;
#X connect 18 1 4 0;
#X connect 18 2 5 0;
#X connect 18 3 11 0;
#X connect 18 4 12 0;
#X connect 18 5 13 0;
#X connect 18 6 15 0;
#X connect 18 7 19 0;
#X connect 19 0 20 0;
#X connect 20 0 21 4;
#X connect 21 0 2 0;
#X connect 22 0 19 1;
#X restore 71 257 pd param_setup;
#X obj 99 48 loadbang;
#X obj 71 283 list append;
#X msg 146 76 symbol decay;
#X msg 156 106 symbol pitch_mul;
#X msg 166 136 symbol filter_mul;
#X msg 186 166 symbol sine_amt;
#X msg 206 196 symbol noise_amt;
#X connect 0 0 2 0;
#X connect 2 0 4 0;
#X connect 3 0 5 0;
#X connect 3 0 6 0;
#X connect 3 0 7 0;
#X connect 3 0 8 0;
#X connect 3 0 9 0;
#X connect 4 0 1 0;
#X connect 5 0 2 1;
#X connect 6 0 2 2;
#X connect 7 0 2 3;
#X connect 8 0 2 4;
#X connect 9 0 2 5;
#X restore 232 516 pd preset_setup;
#N canvas 0 23 500 422 preset_setup 0;
#X obj 71 18 inlet;
#X obj 71 310 outlet;
#N canvas 369 23 525 520 param_setup 0;
#X obj 108 410 f \$0;
#X obj 76 453 list append;
#X obj 76 381 t l b;
#X symbolatom 187 163 10 0 0 0 - - -;
#X symbolatom 187 201 10 0 0 0 - - -;
#X symbolatom 187 238 10 0 0 0 - - -;
#X obj 117 57 bng 15 250 50 0 empty empty empty 17 7 0 10 -262144 -1
-1;
#X obj 117 32 inlet;
#X obj 222 32 inlet;
#X obj 276 32 inlet;
#X obj 330 32 inlet;
#X obj 352 122 symbol p1;
#X obj 352 172 symbol p2;
#X obj 352 222 symbol p3;
#X obj 76 479 outlet;
#X obj 352 272 symbol p4;
#X obj 383 32 inlet;
#X symbolatom 187 272 10 0 0 0 - - -;
#X obj 117 80 t b b b b b b b b;
#X obj 352 320 symbol p5;
#X symbolatom 187 305 10 0 0 0 - - -;
#X obj 76 351 pack s s s s s;
#X obj 433 32 inlet;
#X connect 0 0 1 1;
#X connect 1 0 14 0;
#X connect 2 0 1 0;
#X connect 2 1 0 0;
#X connect 3 0 21 0;
#X connect 4 0 21 1;
#X connect 5 0 21 2;
#X connect 6 0 18 0;
#X connect 7 0 6 0;
#X connect 8 0 11 1;
#X connect 9 0 12 1;
#X connect 10 0 13 1;
#X connect 11 0 3 0;
#X connect 12 0 4 0;
#X connect 13 0 5 0;
#X connect 15 0 17 0;
#X connect 16 0 15 1;
#X connect 17 0 21 3;
#X connect 18 0 3 0;
#X connect 18 1 4 0;
#X connect 18 2 5 0;
#X connect 18 3 11 0;
#X connect 18 4 12 0;
#X connect 18 5 13 0;
#X connect 18 6 15 0;
#X connect 18 7 19 0;
#X connect 19 0 20 0;
#X connect 20 0 21 4;
#X connect 21 0 2 0;
#X connect 22 0 19 1;
#X restore 71 257 pd param_setup;
#X obj 99 48 loadbang;
#X obj 71 283 list append;
#X msg 146 76 symbol decay;
#X msg 156 106 symbol pitch_mul;
#X msg 166 136 symbol filter_mul;
#X msg 186 166 symbol sine_amt;
#X msg 206 196 symbol noise_amt;
#X connect 0 0 2 0;
#X connect 2 0 4 0;
#X connect 3 0 5 0;
#X connect 3 0 6 0;
#X connect 3 0 7 0;
#X connect 3 0 8 0;
#X connect 3 0 9 0;
#X connect 4 0 1 0;
#X connect 5 0 2 1;
#X connect 6 0 2 2;
#X connect 7 0 2 3;
#X connect 8 0 2 4;
#X connect 9 0 2 5;
#X restore 359 516 pd preset_setup;
#N canvas 0 23 500 422 preset_setup 0;
#X obj 71 18 inlet;
#X obj 71 310 outlet;
#N canvas 369 23 525 520 param_setup 0;
#X obj 108 410 f \$0;
#X obj 76 453 list append;
#X obj 76 381 t l b;
#X symbolatom 187 163 10 0 0 0 - - -;
#X symbolatom 187 201 10 0 0 0 - - -;
#X symbolatom 187 238 10 0 0 0 - - -;
#X obj 117 57 bng 15 250 50 0 empty empty empty 17 7 0 10 -262144 -1
-1;
#X obj 117 32 inlet;
#X obj 222 32 inlet;
#X obj 276 32 inlet;
#X obj 330 32 inlet;
#X obj 352 122 symbol p1;
#X obj 352 172 symbol p2;
#X obj 352 222 symbol p3;
#X obj 76 479 outlet;
#X obj 352 272 symbol p4;
#X obj 383 32 inlet;
#X symbolatom 187 272 10 0 0 0 - - -;
#X obj 117 80 t b b b b b b b b;
#X obj 352 320 symbol p5;
#X symbolatom 187 305 10 0 0 0 - - -;
#X obj 76 351 pack s s s s s;
#X obj 433 32 inlet;
#X connect 0 0 1 1;
#X connect 1 0 14 0;
#X connect 2 0 1 0;
#X connect 2 1 0 0;
#X connect 3 0 21 0;
#X connect 4 0 21 1;
#X connect 5 0 21 2;
#X connect 6 0 18 0;
#X connect 7 0 6 0;
#X connect 8 0 11 1;
#X connect 9 0 12 1;
#X connect 10 0 13 1;
#X connect 11 0 3 0;
#X connect 12 0 4 0;
#X connect 13 0 5 0;
#X connect 15 0 17 0;
#X connect 16 0 15 1;
#X connect 17 0 21 3;
#X connect 18 0 3 0;
#X connect 18 1 4 0;
#X connect 18 2 5 0;
#X connect 18 3 11 0;
#X connect 18 4 12 0;
#X connect 18 5 13 0;
#X connect 18 6 15 0;
#X connect 18 7 19 0;
#X connect 19 0 20 0;
#X connect 20 0 21 4;
#X connect 21 0 2 0;
#X connect 22 0 19 1;
#X restore 71 257 pd param_setup;
#X obj 99 48 loadbang;
#X obj 71 283 list append;
#X msg 146 76 symbol decay;
#X msg 156 106 symbol pitch_mul;
#X msg 166 136 symbol filter_mul;
#X msg 186 166 symbol sine_amt;
#X msg 206 196 symbol noise_amt;
#X connect 0 0 2 0;
#X connect 2 0 4 0;
#X connect 3 0 5 0;
#X connect 3 0 6 0;
#X connect 3 0 7 0;
#X connect 3 0 8 0;
#X connect 3 0 9 0;
#X connect 4 0 1 0;
#X connect 5 0 2 1;
#X connect 6 0 2 2;
#X connect 7 0 2 3;
#X connect 8 0 2 4;
#X connect 9 0 2 5;
#X restore 492 516 pd preset_setup;
#N canvas 0 23 500 422 preset_setup 0;
#X obj 71 18 inlet;
#X obj 71 310 outlet;
#N canvas 369 23 525 520 param_setup 0;
#X obj 108 410 f \$0;
#X obj 76 453 list append;
#X obj 76 381 t l b;
#X symbolatom 187 163 10 0 0 0 - - -;
#X symbolatom 187 201 10 0 0 0 - - -;
#X symbolatom 187 238 10 0 0 0 - - -;
#X obj 117 57 bng 15 250 50 0 empty empty empty 17 7 0 10 -262144 -1
-1;
#X obj 117 32 inlet;
#X obj 222 32 inlet;
#X obj 276 32 inlet;
#X obj 330 32 inlet;
#X obj 352 122 symbol p1;
#X obj 352 172 symbol p2;
#X obj 352 222 symbol p3;
#X obj 76 479 outlet;
#X obj 352 272 symbol p4;
#X obj 383 32 inlet;
#X symbolatom 187 272 10 0 0 0 - - -;
#X obj 117 80 t b b b b b b b b;
#X obj 352 320 symbol p5;
#X symbolatom 187 305 10 0 0 0 - - -;
#X obj 76 351 pack s s s s s;
#X obj 433 32 inlet;
#X connect 0 0 1 1;
#X connect 1 0 14 0;
#X connect 2 0 1 0;
#X connect 2 1 0 0;
#X connect 3 0 21 0;
#X connect 4 0 21 1;
#X connect 5 0 21 2;
#X connect 6 0 18 0;
#X connect 7 0 6 0;
#X connect 8 0 11 1;
#X connect 9 0 12 1;
#X connect 10 0 13 1;
#X connect 11 0 3 0;
#X connect 12 0 4 0;
#X connect 13 0 5 0;
#X connect 15 0 17 0;
#X connect 16 0 15 1;
#X connect 17 0 21 3;
#X connect 18 0 3 0;
#X connect 18 1 4 0;
#X connect 18 2 5 0;
#X connect 18 3 11 0;
#X connect 18 4 12 0;
#X connect 18 5 13 0;
#X connect 18 6 15 0;
#X connect 18 7 19 0;
#X connect 19 0 20 0;
#X connect 20 0 21 4;
#X connect 21 0 2 0;
#X connect 22 0 19 1;
#X restore 71 257 pd param_setup;
#X obj 99 48 loadbang;
#X obj 71 283 list append;
#X msg 146 76 symbol decay;
#X msg 156 106 symbol pitch_mul;
#X msg 166 136 symbol filter_mul;
#X msg 186 166 symbol sine_amt;
#X msg 206 196 symbol noise_amt;
#X connect 0 0 2 0;
#X connect 2 0 4 0;
#X connect 3 0 5 0;
#X connect 3 0 6 0;
#X connect 3 0 7 0;
#X connect 3 0 8 0;
#X connect 3 0 9 0;
#X connect 4 0 1 0;
#X connect 5 0 2 1;
#X connect 6 0 2 2;
#X connect 7 0 2 3;
#X connect 8 0 2 4;
#X connect 9 0 2 5;
#X restore 624 516 pd preset_setup;
#N canvas 0 23 500 422 preset_setup 0;
#X obj 71 18 inlet;
#X obj 71 310 outlet;
#N canvas 369 23 525 520 param_setup 0;
#X obj 108 410 f \$0;
#X obj 76 453 list append;
#X obj 76 381 t l b;
#X symbolatom 187 163 10 0 0 0 - - -;
#X symbolatom 187 201 10 0 0 0 - - -;
#X symbolatom 187 238 10 0 0 0 - - -;
#X obj 117 57 bng 15 250 50 0 empty empty empty 17 7 0 10 -262144 -1
-1;
#X obj 117 32 inlet;
#X obj 222 32 inlet;
#X obj 276 32 inlet;
#X obj 330 32 inlet;
#X obj 352 122 symbol p1;
#X obj 352 172 symbol p2;
#X obj 352 222 symbol p3;
#X obj 76 479 outlet;
#X obj 352 272 symbol p4;
#X obj 383 32 inlet;
#X symbolatom 187 272 10 0 0 0 - - -;
#X obj 117 80 t b b b b b b b b;
#X obj 352 320 symbol p5;
#X symbolatom 187 305 10 0 0 0 - - -;
#X obj 76 351 pack s s s s s;
#X obj 433 32 inlet;
#X connect 0 0 1 1;
#X connect 1 0 14 0;
#X connect 2 0 1 0;
#X connect 2 1 0 0;
#X connect 3 0 21 0;
#X connect 4 0 21 1;
#X connect 5 0 21 2;
#X connect 6 0 18 0;
#X connect 7 0 6 0;
#X connect 8 0 11 1;
#X connect 9 0 12 1;
#X connect 10 0 13 1;
#X connect 11 0 3 0;
#X connect 12 0 4 0;
#X connect 13 0 5 0;
#X connect 15 0 17 0;
#X connect 16 0 15 1;
#X connect 17 0 21 3;
#X connect 18 0 3 0;
#X connect 18 1 4 0;
#X connect 18 2 5 0;
#X connect 18 3 11 0;
#X connect 18 4 12 0;
#X connect 18 5 13 0;
#X connect 18 6 15 0;
#X connect 18 7 19 0;
#X connect 19 0 20 0;
#X connect 20 0 21 4;
#X connect 21 0 2 0;
#X connect 22 0 19 1;
#X restore 71 257 pd param_setup;
#X obj 99 48 loadbang;
#X obj 71 283 list append;
#X msg 146 76 symbol decay;
#X msg 156 106 symbol pitch_mul;
#X msg 166 136 symbol filter_mul;
#X msg 186 166 symbol sine_amt;
#X msg 206 196 symbol noise_amt;
#X connect 0 0 2 0;
#X connect 2 0 4 0;
#X connect 3 0 5 0;
#X connect 3 0 6 0;
#X connect 3 0 7 0;
#X connect 3 0 8 0;
#X connect 3 0 9 0;
#X connect 4 0 1 0;
#X connect 5 0 2 1;
#X connect 6 0 2 2;
#X connect 7 0 2 3;
#X connect 8 0 2 4;
#X connect 9 0 2 5;
#X restore 757 516 pd preset_setup;
#N canvas 0 23 500 422 preset_setup 0;
#X obj 71 18 inlet;
#X obj 71 310 outlet;
#N canvas 369 23 525 520 param_setup 0;
#X obj 108 410 f \$0;
#X obj 76 453 list append;
#X obj 76 381 t l b;
#X symbolatom 187 163 10 0 0 0 - - -;
#X symbolatom 187 201 10 0 0 0 - - -;
#X symbolatom 187 238 10 0 0 0 - - -;
#X obj 117 57 bng 15 250 50 0 empty empty empty 17 7 0 10 -262144 -1
-1;
#X obj 117 32 inlet;
#X obj 222 32 inlet;
#X obj 276 32 inlet;
#X obj 330 32 inlet;
#X obj 352 122 symbol p1;
#X obj 352 172 symbol p2;
#X obj 352 222 symbol p3;
#X obj 76 479 outlet;
#X obj 352 272 symbol p4;
#X obj 383 32 inlet;
#X symbolatom 187 272 10 0 0 0 - - -;
#X obj 117 80 t b b b b b b b b;
#X obj 352 320 symbol p5;
#X symbolatom 187 305 10 0 0 0 - - -;
#X obj 76 351 pack s s s s s;
#X obj 433 32 inlet;
#X connect 0 0 1 1;
#X connect 1 0 14 0;
#X connect 2 0 1 0;
#X connect 2 1 0 0;
#X connect 3 0 21 0;
#X connect 4 0 21 1;
#X connect 5 0 21 2;
#X connect 6 0 18 0;
#X connect 7 0 6 0;
#X connect 8 0 11 1;
#X connect 9 0 12 1;
#X connect 10 0 13 1;
#X connect 11 0 3 0;
#X connect 12 0 4 0;
#X connect 13 0 5 0;
#X connect 15 0 17 0;
#X connect 16 0 15 1;
#X connect 17 0 21 3;
#X connect 18 0 3 0;
#X connect 18 1 4 0;
#X connect 18 2 5 0;
#X connect 18 3 11 0;
#X connect 18 4 12 0;
#X connect 18 5 13 0;
#X connect 18 6 15 0;
#X connect 18 7 19 0;
#X connect 19 0 20 0;
#X connect 20 0 21 4;
#X connect 21 0 2 0;
#X connect 22 0 19 1;
#X restore 71 257 pd param_setup;
#X obj 99 48 loadbang;
#X obj 71 283 list append;
#X msg 146 76 symbol decay;
#X msg 156 106 symbol pitch_mul;
#X msg 166 136 symbol filter_mul;
#X msg 186 166 symbol sine_amt;
#X msg 206 196 symbol noise_amt;
#X connect 0 0 2 0;
#X connect 2 0 4 0;
#X connect 3 0 5 0;
#X connect 3 0 6 0;
#X connect 3 0 7 0;
#X connect 3 0 8 0;
#X connect 3 0 9 0;
#X connect 4 0 1 0;
#X connect 5 0 2 1;
#X connect 6 0 2 2;
#X connect 7 0 2 3;
#X connect 8 0 2 4;
#X connect 9 0 2 5;
#X restore 888 516 pd preset_setup;
#N canvas 0 23 500 422 preset_setup 0;
#X obj 71 18 inlet;
#X obj 71 310 outlet;
#N canvas 369 23 525 520 param_setup 0;
#X obj 108 410 f \$0;
#X obj 76 453 list append;
#X obj 76 381 t l b;
#X symbolatom 187 163 10 0 0 0 - - -;
#X symbolatom 187 201 10 0 0 0 - - -;
#X symbolatom 187 238 10 0 0 0 - - -;
#X obj 117 57 bng 15 250 50 0 empty empty empty 17 7 0 10 -262144 -1
-1;
#X obj 117 32 inlet;
#X obj 222 32 inlet;
#X obj 276 32 inlet;
#X obj 330 32 inlet;
#X obj 352 122 symbol p1;
#X obj 352 172 symbol p2;
#X obj 352 222 symbol p3;
#X obj 76 479 outlet;
#X obj 352 272 symbol p4;
#X obj 383 32 inlet;
#X symbolatom 187 272 10 0 0 0 - - -;
#X obj 117 80 t b b b b b b b b;
#X obj 352 320 symbol p5;
#X symbolatom 187 305 10 0 0 0 - - -;
#X obj 76 351 pack s s s s s;
#X obj 433 32 inlet;
#X connect 0 0 1 1;
#X connect 1 0 14 0;
#X connect 2 0 1 0;
#X connect 2 1 0 0;
#X connect 3 0 21 0;
#X connect 4 0 21 1;
#X connect 5 0 21 2;
#X connect 6 0 18 0;
#X connect 7 0 6 0;
#X connect 8 0 11 1;
#X connect 9 0 12 1;
#X connect 10 0 13 1;
#X connect 11 0 3 0;
#X connect 12 0 4 0;
#X connect 13 0 5 0;
#X connect 15 0 17 0;
#X connect 16 0 15 1;
#X connect 17 0 21 3;
#X connect 18 0 3 0;
#X connect 18 1 4 0;
#X connect 18 2 5 0;
#X connect 18 3 11 0;
#X connect 18 4 12 0;
#X connect 18 5 13 0;
#X connect 18 6 15 0;
#X connect 18 7 19 0;
#X connect 19 0 20 0;
#X connect 20 0 21 4;
#X connect 21 0 2 0;
#X connect 22 0 19 1;
#X restore 71 257 pd param_setup;
#X obj 99 48 loadbang;
#X obj 71 283 list append;
#X msg 146 76 symbol decay;
#X msg 156 106 symbol pitch_mul;
#X msg 166 136 symbol filter_mul;
#X msg 186 166 symbol sine_amt;
#X msg 206 196 symbol noise_amt;
#X connect 0 0 2 0;
#X connect 2 0 4 0;
#X connect 3 0 5 0;
#X connect 3 0 6 0;
#X connect 3 0 7 0;
#X connect 3 0 8 0;
#X connect 3 0 9 0;
#X connect 4 0 1 0;
#X connect 5 0 2 1;
#X connect 6 0 2 2;
#X connect 7 0 2 3;
#X connect 8 0 2 4;
#X connect 9 0 2 5;
#X restore 1017 516 pd preset_setup;
#X obj 97 10 inlet;
#X obj 147 10 inlet;
#X obj 198 10 inlet;
#X obj 248 10 inlet;
#X obj 318 10 inlet;
#X connect 0 0 15 1;
#X connect 1 0 15 0;
#X connect 2 0 15 4;
#X connect 3 0 15 2;
#X connect 4 0 15 3;
#X connect 5 0 0 0;
#X connect 6 0 2 0;
#X connect 7 0 3 0;
#X connect 8 0 4 0;
#X connect 9 0 15 5;
#X connect 10 0 9 0;
#X connect 11 0 14 0;
#X connect 11 0 17 0;
#X connect 12 0 1 0;
#X connect 14 0 34 0;
#X connect 14 1 42 0;
#X connect 14 2 35 0;
#X connect 14 3 43 0;
#X connect 14 4 36 0;
#X connect 14 5 44 0;
#X connect 14 6 37 0;
#X connect 14 7 45 0;
#X connect 14 8 38 0;
#X connect 14 9 46 0;
#X connect 14 10 39 0;
#X connect 14 11 47 0;
#X connect 14 12 40 0;
#X connect 14 13 48 0;
#X connect 14 14 41 0;
#X connect 14 15 49 0;
#X connect 15 0 13 0;
#X connect 17 0 16 0;
#X connect 34 0 18 0;
#X connect 35 0 19 0;
#X connect 36 0 20 0;
#X connect 37 0 21 0;
#X connect 38 0 22 0;
#X connect 39 0 23 0;
#X connect 40 0 24 0;
#X connect 41 0 25 0;
#X connect 42 0 26 0;
#X connect 43 0 27 0;
#X connect 44 0 28 0;
#X connect 45 0 29 0;
#X connect 46 0 30 0;
#X connect 47 0 31 0;
#X connect 48 0 32 0;
#X connect 49 0 33 0;
#X connect 50 0 5 0;
#X connect 51 0 7 0;
#X connect 52 0 8 0;
#X connect 53 0 6 0;
#X connect 54 0 10 0;
#X coords 0 -1 1 1 360 220 1 40 40;
