#N canvas 61 23 1379 822 12;
#X floatatom 79 239 5 1 15 1 kick_preset - -;
#X floatatom 79 259 5 1 14 1 snare_preset - -;
#X floatatom 79 281 5 1 14 1 tom1_preset - -;
#X obj 1071 115 s \$0-kick-pre;
#X obj 1071 138 s \$0-snare-pre;
#X floatatom 350 237 5 1 14 1 cymbal1_preset - -;
#X obj 1071 161 s \$0-tom1-pre;
#X obj 1071 248 s \$0-cymbal1-pre;
#X floatatom 217 237 5 1 14 1 tom2_preset - -;
#X obj 1071 181 s \$0-tom2-pre;
#X floatatom 217 260 5 1 14 1 tom3_preset - -;
#X obj 1071 204 s \$0-tom3-pre;
#X floatatom 217 281 5 1 14 1 tom4_preset - -;
#X obj 1071 225 s \$0-tom4-pre;
#N canvas 0 23 1423 840 kit_synths 0;
#X obj 13 52 kick_synth;
#X obj 13 28 r \$0-kick;
#X obj 366 29 - 1;
#X obj 366 6 r \$0-kick-pre;
#X obj 5 877 outlet~;
#X obj 7 342 snare_synth;
#X obj 7 317 r \$0-snare;
#X obj 480 319 - 1;
#X obj 480 295 r \$0-snare-pre;
#X obj 65 877 outlet~;
#X obj 448 67 tom_synth;
#X obj 448 42 r \$0-tom1;
#X obj 801 44 - 1;
#X obj 801 20 r \$0-tom1-pre;
#X obj 125 877 outlet~;
#X obj 838 67 tom_synth;
#X obj 1191 44 - 1;
#X obj 185 877 outlet~;
#X obj 838 42 r \$0-tom2;
#X obj 1191 20 r \$0-tom2-pre;
#X obj 511 344 tom_synth;
#X obj 864 321 - 1;
#X obj 511 319 r \$0-tom3;
#X obj 864 297 r \$0-tom3-pre;
#X obj 245 877 outlet~;
#X obj 901 344 tom_synth;
#X obj 1254 321 - 1;
#X obj 901 319 r \$0-tom4;
#X obj 1254 297 r \$0-tom4-pre;
#X obj 305 877 outlet~;
#X obj 460 621 cymbal_synth;
#X obj 29 621 cymbal_synth;
#X obj 29 597 r \$0-cymbal1;
#X obj 460 597 r \$0-cymbal2;
#X obj 365 877 outlet~;
#X obj 425 877 outlet~;
#X obj 408 594 - 1;
#X obj 408 570 r \$0-cymbal1-pre;
#X obj 858 594 - 1;
#X obj 858 570 r \$0-cymbal2-pre;
#X obj 907 621 clap_synth;
#X obj 907 599 r \$0-clap;
#X obj 1260 597 - 1;
#X obj 1260 573 r \$0-clap-pre;
#X obj 485 877 outlet~;
#X connect 0 0 4 0;
#X connect 1 0 0 0;
#X connect 2 0 0 6;
#X connect 3 0 2 0;
#X connect 5 0 9 0;
#X connect 6 0 5 0;
#X connect 7 0 5 8;
#X connect 8 0 7 0;
#X connect 10 0 14 0;
#X connect 11 0 10 0;
#X connect 12 0 10 6;
#X connect 13 0 12 0;
#X connect 15 0 17 0;
#X connect 16 0 15 6;
#X connect 18 0 15 0;
#X connect 19 0 16 0;
#X connect 20 0 24 0;
#X connect 21 0 20 6;
#X connect 22 0 20 0;
#X connect 23 0 21 0;
#X connect 25 0 29 0;
#X connect 26 0 25 6;
#X connect 27 0 25 0;
#X connect 28 0 26 0;
#X connect 30 0 35 0;
#X connect 31 0 34 0;
#X connect 32 0 31 0;
#X connect 33 0 30 0;
#X connect 36 0 31 7;
#X connect 37 0 36 0;
#X connect 38 0 30 7;
#X connect 39 0 38 0;
#X connect 40 0 44 0;
#X connect 41 0 40 0;
#X connect 42 0 40 5;
#X connect 43 0 42 0;
#X restore 83 542 pd kit_synths;
#X f 167;
#X floatatom 350 259 5 1 14 1 cymbal2_preset - -;
#X obj 1071 270 s \$0-cymbal2-pre;
#X floatatom 350 281 5 1 16 1 clap_preset - -;
#X obj 1071 292 s \$0-clap-pre;
#X obj 70 120 vsl 15 100 0 1 0 1 \$0-vol-kick empty kick 0 -9 0 10
-262144 -1 -1 3100 1;
#X obj 101 568 r \$0-vol-kick;
#X obj 83 593 *~;
#X obj 228 593 *~;
#X obj 83 621 outlet~;
#X obj 228 621 outlet~;
#X obj 246 568 r \$0-vol-snare;
#X obj 374 593 *~;
#X obj 520 593 *~;
#X obj 374 621 outlet~;
#X obj 520 621 outlet~;
#X obj 392 568 r \$0-vol-tom1;
#X obj 538 568 r \$0-vol-tom2;
#X obj 666 593 *~;
#X obj 811 593 *~;
#X obj 666 621 outlet~;
#X obj 811 621 outlet~;
#X obj 684 568 r \$0-vol-tom3;
#X obj 829 568 r \$0-vol-tom4;
#X obj 957 593 *~;
#X obj 957 621 outlet~;
#X obj 1103 593 *~;
#X obj 1249 593 *~;
#X obj 1103 621 outlet~;
#X obj 1249 621 outlet~;
#X obj 975 568 r \$0-vol-cymbal1;
#X obj 1121 568 r \$0-vol-cymbal2;
#X obj 1267 568 r \$0-vol-clap;
#X obj 13 621 outlet~;
#X obj 120 120 vsl 15 100 0 1 0 1 \$0-vol-snare empty snare 0 -9 0
10 -262144 -1 -1 5400 1;
#X obj 170 120 vsl 15 100 0 1 0 1 \$0-vol-tom1 empty tom1 0 -9 0 10
-262144 -1 -1 1300 1;
#X obj 220 120 vsl 15 100 0 1 0 1 \$0-vol-tom2 empty tom2 0 -9 0 10
-262144 -1 -1 3700 1;
#X obj 270 120 vsl 15 100 0 1 0 1 \$0-vol-tom3 empty tom3 0 -9 0 10
-262144 -1 -1 2300 1;
#X obj 320 120 vsl 15 100 0 1 0 1 \$0-vol-tom4 empty tom4 0 -9 0 10
-262144 -1 -1 3000 1;
#X obj 370 120 vsl 15 100 0 1 0 1 \$0-vol-cymbal1 empty cymbal1 0 -9
0 10 -262144 -1 -1 6100 1;
#X obj 420 120 vsl 15 100 0 1 0 1 \$0-vol-cymbal2 empty cymbal2 0 -9
0 10 -262144 -1 -1 2900 1;
#X obj 470 120 vsl 15 100 0 1 0 1 \$0-vol-clap empty clap 0 -9 0 10
-262144 -1 -1 4200 1;
#X obj 69 26 inlet;
#X obj 69 53 s \$0-kick;
#X obj 149 26 inlet;
#X obj 149 53 s \$0-snare;
#X obj 236 26 inlet;
#X obj 236 53 s \$0-tom1;
#X obj 316 26 inlet;
#X obj 396 26 inlet;
#X obj 476 26 inlet;
#X obj 316 53 s \$0-tom2;
#X obj 396 53 s \$0-tom3;
#X obj 476 53 s \$0-tom4;
#X obj 556 26 inlet;
#X obj 556 53 s \$0-cymbal1;
#X obj 656 26 inlet;
#X obj 656 53 s \$0-cymbal2;
#X obj 756 26 inlet;
#X obj 756 53 s \$0-clap;
#X obj 556 82 loadbang;
#X obj 79 318 hradio 15 1 0 8 empty empty kit_presets 0 -8 0 10 -262144
-1 -1 2;
#X obj 556 134 unpack f f f f f f f f f;
#X msg 556 105 1 1 1 1 1 1 1 1 1;
#X obj 696 105 r \$0-kit-preset;
#X obj 79 454 s \$0-kit-preset;
#X obj 79 348 sel 0 1 2 3 4 5 6 7 8 9, f 168;
#X obj 195 504 s \$0-kit-preset;
#X msg 79 431 1 1 1 3 4 1 2 6 8;
#X msg 195 481 1 1 5 6 7 1 2 6 13;
#X obj 313 454 s \$0-kit-preset;
#X msg 313 431 4 3 9 10 11 12 12 11 7;
#X connect 0 0 3 0;
#X connect 1 0 4 0;
#X connect 2 0 6 0;
#X connect 5 0 7 0;
#X connect 8 0 9 0;
#X connect 10 0 11 0;
#X connect 12 0 13 0;
#X connect 14 0 21 0;
#X connect 14 1 22 0;
#X connect 14 2 26 0;
#X connect 14 3 27 0;
#X connect 14 4 32 0;
#X connect 14 5 33 0;
#X connect 14 6 38 0;
#X connect 14 7 40 0;
#X connect 14 8 41 0;
#X connect 15 0 16 0;
#X connect 17 0 18 0;
#X connect 20 0 21 1;
#X connect 21 0 23 0;
#X connect 21 0 47 0;
#X connect 22 0 24 0;
#X connect 22 0 47 0;
#X connect 25 0 22 1;
#X connect 26 0 28 0;
#X connect 26 0 47 0;
#X connect 27 0 29 0;
#X connect 27 0 47 0;
#X connect 30 0 26 1;
#X connect 31 0 27 1;
#X connect 32 0 34 0;
#X connect 32 0 47 0;
#X connect 33 0 35 0;
#X connect 33 0 47 0;
#X connect 36 0 32 1;
#X connect 37 0 33 1;
#X connect 38 0 39 0;
#X connect 38 0 47 0;
#X connect 40 0 42 0;
#X connect 40 0 47 0;
#X connect 41 0 43 0;
#X connect 41 0 47 0;
#X connect 44 0 38 1;
#X connect 45 0 40 1;
#X connect 46 0 41 1;
#X connect 56 0 57 0;
#X connect 58 0 59 0;
#X connect 60 0 61 0;
#X connect 62 0 65 0;
#X connect 63 0 66 0;
#X connect 64 0 67 0;
#X connect 68 0 69 0;
#X connect 70 0 71 0;
#X connect 72 0 73 0;
#X connect 74 0 77 0;
#X connect 75 0 80 0;
#X connect 76 0 0 0;
#X connect 76 1 1 0;
#X connect 76 2 2 0;
#X connect 76 3 8 0;
#X connect 76 4 10 0;
#X connect 76 5 12 0;
#X connect 76 6 5 0;
#X connect 76 7 15 0;
#X connect 76 8 17 0;
#X connect 77 0 76 0;
#X connect 78 0 76 0;
#X connect 80 0 82 0;
#X connect 80 1 83 0;
#X connect 80 2 85 0;
#X connect 82 0 79 0;
#X connect 83 0 81 0;
#X connect 85 0 84 0;
#X coords 0 -1 1 1 440 255 1 60 85;
