#N canvas 23 23 684 705 12;
#X obj 10 48 tgl 15 0 empty empty empty 17 7 0 10 -262144 -1 -1 1 1
;
#X floatatom 77 48 5 0 0 0 - - -;
#X obj 10 128 s \$0-kick;
#X obj 85 168 s \$0-snare;
#X obj 79 250 r \$0-kick;
#X obj 133 275 r \$0-snare;
#X obj 79 620 *~ 0.25;
#X obj 79 653 dac~;
#X msg 125 578 0;
#X msg 165 578 0.25;
#X msg 215 578 0.5;
#X obj 85 130 del 200;
#X obj 165 130 del 400;
#X obj 259 168 s \$0-clap;
#X obj 259 130 del 600;
#X obj 332 130 del 1000;
#X floatatom 545 48 5 0 0 0 - - -;
#X obj 10 85 metro 1200;
#X obj 478 130 del 1000;
#X obj 478 168 s \$0-cymbal2;
#X obj 478 85 metro 4800;
#X obj 79 310 kit1;
#X obj 403 250 r \$0-cymbal1;
#X obj 187 250 r \$0-tom1;
#X obj 241 274 r \$0-tom2;
#X obj 295 250 r \$0-tom3;
#X obj 349 274 r \$0-tom4;
#X obj 457 274 r \$0-cymbal2;
#X obj 512 250 r \$0-clap;
#X obj 165 168 s \$0-cymbal1;
#X obj 332 168 s \$0-tom1;
#X obj 572 130 del 600;
#X obj 572 168 s \$0-clap;
#X obj 405 130 del 1100;
#X obj 405 168 s \$0-tom2;
#X obj 602 74 bng 15 250 50 0 empty empty empty 17 7 0 10 -262144 -1
-1;
#X connect 0 0 17 0;
#X connect 0 0 20 0;
#X connect 1 0 17 1;
#X connect 4 0 21 0;
#X connect 5 0 21 1;
#X connect 6 0 7 0;
#X connect 6 0 7 1;
#X connect 8 0 6 1;
#X connect 9 0 6 1;
#X connect 10 0 6 1;
#X connect 11 0 3 0;
#X connect 11 0 29 0;
#X connect 12 0 29 0;
#X connect 14 0 13 0;
#X connect 15 0 30 0;
#X connect 16 0 20 1;
#X connect 17 0 2 0;
#X connect 17 0 11 0;
#X connect 17 0 12 0;
#X connect 17 0 14 0;
#X connect 17 0 15 0;
#X connect 17 0 33 0;
#X connect 17 0 29 0;
#X connect 18 0 19 0;
#X connect 20 0 18 0;
#X connect 20 0 31 0;
#X connect 21 0 6 0;
#X connect 22 0 21 6;
#X connect 23 0 21 2;
#X connect 24 0 21 3;
#X connect 25 0 21 4;
#X connect 26 0 21 5;
#X connect 27 0 21 7;
#X connect 28 0 21 8;
#X connect 31 0 32 0;
#X connect 33 0 34 0;
#X connect 35 0 32 0;
