#N canvas 115 23 950 840 12;
#X obj 208 369 snare_synth;
#X obj 181 744 dac~;
#X obj 181 711 *~;
#X msg 199 678 0;
#X obj 253 638 loadbang;
#X msg 253 678 0.25;
#X msg 300 678 0.5;
#X msg 341 678 1;
#X obj 389 691 delay 100;
#X msg 389 716 \; pd dsp 1;
#X text 466 691 Enable DSP after delay for headless mode;
#X obj 181 638 r~ \$0-out;
#X obj 16 8 tgl 15 0 empty empty empty 17 7 0 10 -262144 -1 -1 0 1
;
#X floatatom 76 201 5 0 0 0 - - -;
#X obj 16 272 +;
#X floatatom 16 295 5 0 0 0 - - -;
#X msg 16 250 1;
#X obj 16 317 mod 100;
#X floatatom 16 340 5 0 0 0 - - -;
#X obj 208 597 s~ \$0-out;
#X floatatom 268 201 5 0 0 0 - - -;
#X obj 208 272 +;
#X floatatom 208 295 5 0 0 0 - - -;
#X msg 208 250 1;
#X obj 208 317 mod 100;
#X floatatom 208 340 5 0 0 0 - - -;
#X obj 16 227 metro 400;
#X obj 208 227 metro 600;
#X msg 158 133 200;
#X obj 268 176 * 3;
#X obj 76 175 * 4;
#X msg 158 25 4 3;
#X msg 194 25 2 3;
#X obj 158 68 unpack f f;
#X obj 158 107 t b;
#X msg 234 25 3 5;
#X msg 271 25 4 5;
#X connect 0 0 19 0;
#X connect 2 0 1 0;
#X connect 2 0 1 1;
#X connect 3 0 2 1;
#X connect 4 0 5 0;
#X connect 4 0 8 0;
#X connect 5 0 2 1;
#X connect 6 0 2 1;
#X connect 7 0 2 1;
#X connect 8 0 9 0;
#X connect 11 0 2 0;
#X connect 12 0 26 0;
#X connect 12 0 27 0;
#X connect 13 0 26 1;
#X connect 14 0 15 0;
#X connect 15 0 17 0;
#X connect 16 0 14 0;
#X connect 17 0 18 0;
#X connect 18 0 14 1;
#X connect 18 0 0 0;
#X connect 20 0 27 1;
#X connect 21 0 22 0;
#X connect 22 0 24 0;
#X connect 23 0 21 0;
#X connect 24 0 25 0;
#X connect 25 0 21 1;
#X connect 25 0 0 0;
#X connect 26 0 16 0;
#X connect 27 0 23 0;
#X connect 28 0 29 0;
#X connect 28 0 30 0;
#X connect 29 0 20 0;
#X connect 30 0 13 0;
#X connect 31 0 33 0;
#X connect 32 0 33 0;
#X connect 33 0 30 1;
#X connect 33 0 34 0;
#X connect 33 1 29 1;
#X connect 33 1 34 0;
#X connect 34 0 28 0;
#X connect 35 0 33 0;
#X connect 36 0 33 0;
