#N canvas 143 23 949 560 12;
#X obj 240 172 r \$0-snare;
#X obj 206 45 tgl 15 0 empty empty empty 17 7 0 10 -262144 -1 -1 0
1;
#X obj 206 88 s \$0-snare;
#X floatatom 266 28 5 0 0 0 - - -;
#X obj 206 65 metro 600;
#X obj 240 438 *~ 0.25;
#X obj 240 471 dac~;
#X obj 240 201 snare_synth;
#X floatatom 563 144 5 0 0 0 - - -;
#X obj 566 87 hsl 128 15 0 3000 0 0 empty empty empty -2 -8 0 10 -262144
-1 -1 0 1;
#X connect 0 0 7 0;
#X connect 1 0 4 0;
#X connect 3 0 4 1;
#X connect 4 0 2 0;
#X connect 5 0 6 0;
#X connect 5 0 6 1;
#X connect 7 0 5 0;
#X connect 8 0 7 5;
#X connect 9 0 8 0;
