#N canvas 302 23 1102 823 12;
#X floatatom 48 192 7 0 0 0 - - -;
#X obj 498 47 bng 15 250 50 0 empty empty empty 17 7 0 10 -262144 -1
-1;
#X floatatom 247 192 7 0 0 0 - - -;
#N canvas 222 23 786 544 snare 0;
#X obj 242 189 noise~;
#X obj 242 292 *~;
#X obj 260 102 f 250;
#X floatatom 292 77 5 0 0 0 - - -;
#X obj 260 74 bng 15 250 50 0 empty empty empty 17 7 0 10 -262144 -1
-1;
#N canvas 0 23 450 300 vol_env 0;
#X obj 107 172 vline~;
#X obj 107 205 *~;
#X msg 107 100 1 0.5 \, 0 \$1 0.5;
#X obj 107 28 inlet;
#X obj 107 248 outlet~;
#X connect 0 0 1 0;
#X connect 0 0 1 1;
#X connect 1 0 4 0;
#X connect 2 0 0 0;
#X connect 3 0 2 0;
#X restore 260 135 pd vol_env;
#X obj 242 363 vcf~ 3;
#X obj 302 363 vcf~ 5;
#N canvas 0 23 450 300 cutoff_env 0;
#X obj 107 172 vline~;
#X obj 107 205 *~;
#X msg 107 100 1 0.5 \, 0 \$1 0.5;
#X obj 107 28 inlet;
#X obj 107 248 outlet~;
#X connect 0 0 1 0;
#X connect 0 0 1 1;
#X connect 1 0 4 0;
#X connect 2 0 0 0;
#X connect 3 0 2 0;
#X restore 427 224 pd cutoff_env;
#X obj 427 247 *~ 8000;
#X obj 427 270 +~ 100;
#X obj 487 247 *~ 5000;
#X obj 487 270 +~ 200;
#X obj 242 212 hip~ 100;
#N canvas 0 23 639 490 fm_osc 0;
#X obj 221 278 osc~;
#X obj 221 331 *~;
#X obj 269 222 *~;
#X obj 62 173 +~;
#X obj 151 104 osc~ 50;
#X obj 151 127 *~ 30;
#X text 63 22 FM osc - center of 150Hz \, 30 Hz \; 30 Hz swing at freq
of 50 Hz;
#X obj 280 173 inlet~;
#X obj 221 354 outlet~;
#X obj 62 105 sig~ 150;
#X obj 359 174 inlet;
#X obj 413 174 inlet;
#X obj 467 174 inlet;
#X connect 0 0 1 0;
#X connect 1 0 8 0;
#X connect 2 0 1 1;
#X connect 3 0 0 0;
#X connect 4 0 5 0;
#X connect 5 0 3 1;
#X connect 7 0 2 0;
#X connect 7 0 2 1;
#X connect 9 0 3 0;
#X connect 10 0 9 0;
#X connect 11 0 4 0;
#X connect 12 0 5 1;
#X restore 156 291 pd fm_osc;
#X obj 427 193 * 2;
#X floatatom 563 178 5 0 0 0 - - -;
#X obj 563 202 * 0.6;
#X obj 563 131 inlet;
#X obj 292 50 inlet;
#X obj 247 50 inlet;
#X obj 242 424 outlet~;
#X floatatom 445 162 5 0 0 0 - - -;
#X obj 445 127 inlet;
#X floatatom 295 188 5 0 0 0 - - -;
#X obj 295 161 inlet;
#X obj 618 131 inlet;
#X obj 668 131 inlet;
#X obj 718 131 inlet;
#X connect 0 0 13 0;
#X connect 1 0 6 0;
#X connect 1 0 7 0;
#X connect 2 0 5 0;
#X connect 2 0 15 0;
#X connect 3 0 2 1;
#X connect 4 0 2 0;
#X connect 5 0 1 1;
#X connect 5 0 14 0;
#X connect 6 0 21 0;
#X connect 7 0 21 0;
#X connect 8 0 9 0;
#X connect 9 0 10 0;
#X connect 10 0 6 1;
#X connect 11 0 12 0;
#X connect 12 0 7 1;
#X connect 13 0 1 0;
#X connect 14 0 6 0;
#X connect 14 0 7 0;
#X connect 15 0 8 0;
#X connect 16 0 17 0;
#X connect 16 0 9 1;
#X connect 17 0 11 1;
#X connect 18 0 16 0;
#X connect 19 0 3 0;
#X connect 20 0 4 0;
#X connect 22 0 15 1;
#X connect 23 0 22 0;
#X connect 24 0 13 1;
#X connect 25 0 24 0;
#X connect 26 0 14 1;
#X connect 27 0 14 2;
#X connect 28 0 14 3;
#X restore 39 308 pd snare;
#X f 10;
#X floatatom 117 192 7 0 0 0 - - -;
#X floatatom 184 192 7 0 0 0 - - -;
#X obj 48 82 vsl 15 100 0.1 4000 1 1 empty \$0-decay decay 0 -9 0 10
-262144 -1 -1 8605 1;
#X obj 247 82 vsl 15 100 0 20000 0 1 empty \$0-reso reso 0 -9 0 10
-262144 -1 -1 5940 1;
#X obj 117 82 vsl 15 100 20 20000 1 1 empty \$0-hipf hipf 0 -9 0 10
-262144 -1 -1 5607 1;
#X obj 184 82 vsl 15 100 0 20 0 1 empty \$0-res_mul res_mul 0 -9 0
10 -262144 -1 -1 4950 1;
#X floatatom 316 192 7 0 0 0 - - -;
#X obj 316 82 vsl 15 100 100 12000 1 1 empty \$0-fm_ctr_freq fm_ctr_freq
0 -9 0 10 -262144 -1 -1 0 1;
#X floatatom 390 192 7 0 0 0 - - -;
#X obj 390 82 vsl 15 100 20 400 1 1 empty \$0-fm_mod_freq fm_mod_freq
0 -9 0 10 -262144 -1 -1 7609 1;
#X floatatom 463 192 7 0 0 0 - - -;
#X obj 463 82 vsl 15 100 20 400 1 1 empty \$0-fm_depth fm_depth 0 -9
0 10 -262144 -1 -1 1340 1;
#X obj 47 234 hradio 20 1 1 14 empty empty presets 0 -8 0 10 -262144
-1 -1 8;
#X obj 1 10 inlet;
#X obj 39 334 outlet~;
#X obj 322 311 sel 0 1 2 3 4 5 6 7 8 9 10 11 12 13 14;
#N canvas 0 23 540 487 preset_setup 0;
#X obj 71 18 inlet;
#X obj 71 350 outlet;
#N canvas 3 238 632 552 param_setup 0;
#X obj 88 420 f \$0;
#X obj 56 463 list append;
#X obj 56 391 t l b;
#X symbolatom 187 183 10 0 0 0 - - -;
#X symbolatom 187 208 10 0 0 0 - - -;
#X symbolatom 187 231 10 0 0 0 - - -;
#X obj 117 47 bng 15 250 50 0 empty empty empty 17 7 0 10 -262144 -1
-1;
#X obj 117 22 inlet;
#X obj 222 22 inlet;
#X obj 276 22 inlet;
#X obj 330 22 inlet;
#X obj 352 122 symbol p1;
#X obj 352 152 symbol p2;
#X obj 352 182 symbol p3;
#X obj 56 489 outlet;
#X obj 352 212 symbol p4;
#X obj 383 22 inlet;
#X symbolatom 187 255 10 0 0 0 - - -;
#X obj 56 361 pack s s s s s s s;
#X symbolatom 187 278 10 0 0 0 - - -;
#X symbolatom 187 301 10 0 0 0 - - -;
#X symbolatom 187 325 10 0 0 0 - - -;
#X obj 352 242 symbol p5;
#X obj 352 272 symbol p6;
#X obj 352 302 symbol p7;
#X obj 436 22 inlet;
#X obj 490 22 inlet;
#X obj 543 22 inlet;
#X obj 117 70 t b b b b b b b b b b;
#X connect 0 0 1 1;
#X connect 1 0 14 0;
#X connect 2 0 1 0;
#X connect 2 1 0 0;
#X connect 3 0 18 0;
#X connect 4 0 18 1;
#X connect 5 0 18 2;
#X connect 6 0 28 0;
#X connect 7 0 6 0;
#X connect 8 0 11 1;
#X connect 9 0 12 1;
#X connect 10 0 13 1;
#X connect 11 0 3 0;
#X connect 12 0 4 0;
#X connect 13 0 5 0;
#X connect 15 0 17 0;
#X connect 16 0 15 1;
#X connect 17 0 18 3;
#X connect 18 0 2 0;
#X connect 19 0 18 4;
#X connect 20 0 18 5;
#X connect 21 0 18 6;
#X connect 22 0 19 0;
#X connect 23 0 20 0;
#X connect 24 0 21 0;
#X connect 25 0 22 1;
#X connect 26 0 23 1;
#X connect 27 0 24 1;
#X connect 28 0 3 0;
#X connect 28 1 4 0;
#X connect 28 2 5 0;
#X connect 28 3 11 0;
#X connect 28 4 12 0;
#X connect 28 5 13 0;
#X connect 28 6 15 0;
#X connect 28 7 22 0;
#X connect 28 8 23 0;
#X connect 28 9 24 0;
#X restore 71 297 pd param_setup;
#X obj 99 48 loadbang;
#X obj 71 323 list append;
#X msg 146 76 symbol decay;
#X msg 166 106 symbol hipf;
#X msg 186 136 symbol res_mul;
#X msg 206 166 symbol reso;
#X msg 226 196 symbol fm_ctr_freq;
#X msg 246 226 symbol fm_mod_freq;
#X msg 266 256 symbol fm_depth;
#X connect 0 0 2 0;
#X connect 2 0 4 0;
#X connect 3 0 5 0;
#X connect 3 0 6 0;
#X connect 3 0 7 0;
#X connect 3 0 8 0;
#X connect 3 0 9 0;
#X connect 3 0 10 0;
#X connect 3 0 11 0;
#X connect 4 0 1 0;
#X connect 5 0 2 1;
#X connect 6 0 2 2;
#X connect 7 0 2 3;
#X connect 8 0 2 4;
#X connect 9 0 2 5;
#X connect 10 0 2 6;
#X connect 11 0 2 7;
#X restore 118 357 pd preset_setup;
#X msg 118 384 \; \$8-\$1 200 \; \$8-\$2 1000 \; \$8-\$3 5 \; \$8-\$4
10000 \; \$8-\$5 150 \; \$8-\$6 200 \; \$8-\$7 30;
#X msg 252 384 \; \$8-\$1 250 \; \$8-\$2 110 \; \$8-\$3 2 \; \$8-\$4
8000 \; \$8-\$5 150 \; \$8-\$6 200 \; \$8-\$7 30;
#X msg 387 384 \; \$8-\$1 800 \; \$8-\$2 110 \; \$8-\$3 2 \; \$8-\$4
3000 \; \$8-\$5 150 \; \$8-\$6 200 \; \$8-\$7 30;
#X msg 521 384 \; \$8-\$1 2000 \; \$8-\$2 1000 \; \$8-\$3 10 \; \$8-\$4
500 \; \$8-\$5 150 \; \$8-\$6 200 \; \$8-\$7 30;
#X msg 653 384 \; \$8-\$1 1000 \; \$8-\$2 1000 \; \$8-\$3 10 \; \$8-\$4
12000 \; \$8-\$5 100 \; \$8-\$6 200 \; \$8-\$7 30;
#X msg 785 384 \; \$8-\$1 20 \; \$8-\$2 100 \; \$8-\$3 20 \; \$8-\$4
10000 \; \$8-\$5 1000 \; \$8-\$6 200 \; \$8-\$7 30;
#X msg 785 534 \; \$8-\$1 20 \; \$8-\$2 100 \; \$8-\$3 20 \; \$8-\$4
10000 \; \$8-\$5 1000 \; \$8-\$6 200 \; \$8-\$7 400;
#X msg 653 534 \; \$8-\$1 1000 \; \$8-\$2 1000 \; \$8-\$3 10 \; \$8-\$4
12000 \; \$8-\$5 100 \; \$8-\$6 50 \; \$8-\$7 200;
#X msg 521 534 \; \$8-\$1 2000 \; \$8-\$2 1000 \; \$8-\$3 10 \; \$8-\$4
500 \; \$8-\$5 160 \; \$8-\$6 80 \; \$8-\$7 40;
#X msg 387 534 \; \$8-\$1 800 \; \$8-\$2 110 \; \$8-\$3 2 \; \$8-\$4
3000 \; \$8-\$5 200 \; \$8-\$6 400 \; \$8-\$7 200;
#X msg 252 534 \; \$8-\$1 800 \; \$8-\$2 110 \; \$8-\$3 2 \; \$8-\$4
3000 \; \$8-\$5 100 \; \$8-\$6 400 \; \$8-\$7 200;
#X msg 118 534 \; \$8-\$1 200 \; \$8-\$2 1000 \; \$8-\$3 5 \; \$8-\$4
10000 \; \$8-\$5 180 \; \$8-\$6 360 \; \$8-\$7 240;
#X msg 118 684 \; \$8-\$1 40 \; \$8-\$2 1000 \; \$8-\$3 5 \; \$8-\$4
10000 \; \$8-\$5 180 \; \$8-\$6 360 \; \$8-\$7 240;
#X msg 252 684 \; \$8-\$1 100 \; \$8-\$2 100 \; \$8-\$3 3 \; \$8-\$4
3000 \; \$8-\$5 90 \; \$8-\$6 270 \; \$8-\$7 30;
#N canvas 0 23 540 487 preset_setup 0;
#X obj 71 18 inlet;
#X obj 71 350 outlet;
#N canvas 3 238 632 552 param_setup 0;
#X obj 88 420 f \$0;
#X obj 56 463 list append;
#X obj 56 391 t l b;
#X symbolatom 187 183 10 0 0 0 - - -;
#X symbolatom 187 208 10 0 0 0 - - -;
#X symbolatom 187 231 10 0 0 0 - - -;
#X obj 117 47 bng 15 250 50 0 empty empty empty 17 7 0 10 -262144 -1
-1;
#X obj 117 22 inlet;
#X obj 222 22 inlet;
#X obj 276 22 inlet;
#X obj 330 22 inlet;
#X obj 352 122 symbol p1;
#X obj 352 152 symbol p2;
#X obj 352 182 symbol p3;
#X obj 56 489 outlet;
#X obj 352 212 symbol p4;
#X obj 383 22 inlet;
#X symbolatom 187 255 10 0 0 0 - - -;
#X obj 56 361 pack s s s s s s s;
#X symbolatom 187 278 10 0 0 0 - - -;
#X symbolatom 187 301 10 0 0 0 - - -;
#X symbolatom 187 325 10 0 0 0 - - -;
#X obj 352 242 symbol p5;
#X obj 352 272 symbol p6;
#X obj 352 302 symbol p7;
#X obj 436 22 inlet;
#X obj 490 22 inlet;
#X obj 543 22 inlet;
#X obj 117 70 t b b b b b b b b b b;
#X connect 0 0 1 1;
#X connect 1 0 14 0;
#X connect 2 0 1 0;
#X connect 2 1 0 0;
#X connect 3 0 18 0;
#X connect 4 0 18 1;
#X connect 5 0 18 2;
#X connect 6 0 28 0;
#X connect 7 0 6 0;
#X connect 8 0 11 1;
#X connect 9 0 12 1;
#X connect 10 0 13 1;
#X connect 11 0 3 0;
#X connect 12 0 4 0;
#X connect 13 0 5 0;
#X connect 15 0 17 0;
#X connect 16 0 15 1;
#X connect 17 0 18 3;
#X connect 18 0 2 0;
#X connect 19 0 18 4;
#X connect 20 0 18 5;
#X connect 21 0 18 6;
#X connect 22 0 19 0;
#X connect 23 0 20 0;
#X connect 24 0 21 0;
#X connect 25 0 22 1;
#X connect 26 0 23 1;
#X connect 27 0 24 1;
#X connect 28 0 3 0;
#X connect 28 1 4 0;
#X connect 28 2 5 0;
#X connect 28 3 11 0;
#X connect 28 4 12 0;
#X connect 28 5 13 0;
#X connect 28 6 15 0;
#X connect 28 7 22 0;
#X connect 28 8 23 0;
#X connect 28 9 24 0;
#X restore 71 297 pd param_setup;
#X obj 99 48 loadbang;
#X obj 71 323 list append;
#X msg 146 76 symbol decay;
#X msg 166 106 symbol hipf;
#X msg 186 136 symbol res_mul;
#X msg 206 166 symbol reso;
#X msg 226 196 symbol fm_ctr_freq;
#X msg 246 226 symbol fm_mod_freq;
#X msg 266 256 symbol fm_depth;
#X connect 0 0 2 0;
#X connect 2 0 4 0;
#X connect 3 0 5 0;
#X connect 3 0 6 0;
#X connect 3 0 7 0;
#X connect 3 0 8 0;
#X connect 3 0 9 0;
#X connect 3 0 10 0;
#X connect 3 0 11 0;
#X connect 4 0 1 0;
#X connect 5 0 2 1;
#X connect 6 0 2 2;
#X connect 7 0 2 3;
#X connect 8 0 2 4;
#X connect 9 0 2 5;
#X connect 10 0 2 6;
#X connect 11 0 2 7;
#X restore 251 357 pd preset_setup;
#N canvas 0 23 540 487 preset_setup 0;
#X obj 71 18 inlet;
#X obj 71 350 outlet;
#N canvas 3 238 632 552 param_setup 0;
#X obj 88 420 f \$0;
#X obj 56 463 list append;
#X obj 56 391 t l b;
#X symbolatom 187 183 10 0 0 0 - - -;
#X symbolatom 187 208 10 0 0 0 - - -;
#X symbolatom 187 231 10 0 0 0 - - -;
#X obj 117 47 bng 15 250 50 0 empty empty empty 17 7 0 10 -262144 -1
-1;
#X obj 117 22 inlet;
#X obj 222 22 inlet;
#X obj 276 22 inlet;
#X obj 330 22 inlet;
#X obj 352 122 symbol p1;
#X obj 352 152 symbol p2;
#X obj 352 182 symbol p3;
#X obj 56 489 outlet;
#X obj 352 212 symbol p4;
#X obj 383 22 inlet;
#X symbolatom 187 255 10 0 0 0 - - -;
#X obj 56 361 pack s s s s s s s;
#X symbolatom 187 278 10 0 0 0 - - -;
#X symbolatom 187 301 10 0 0 0 - - -;
#X symbolatom 187 325 10 0 0 0 - - -;
#X obj 352 242 symbol p5;
#X obj 352 272 symbol p6;
#X obj 352 302 symbol p7;
#X obj 436 22 inlet;
#X obj 490 22 inlet;
#X obj 543 22 inlet;
#X obj 117 70 t b b b b b b b b b b;
#X connect 0 0 1 1;
#X connect 1 0 14 0;
#X connect 2 0 1 0;
#X connect 2 1 0 0;
#X connect 3 0 18 0;
#X connect 4 0 18 1;
#X connect 5 0 18 2;
#X connect 6 0 28 0;
#X connect 7 0 6 0;
#X connect 8 0 11 1;
#X connect 9 0 12 1;
#X connect 10 0 13 1;
#X connect 11 0 3 0;
#X connect 12 0 4 0;
#X connect 13 0 5 0;
#X connect 15 0 17 0;
#X connect 16 0 15 1;
#X connect 17 0 18 3;
#X connect 18 0 2 0;
#X connect 19 0 18 4;
#X connect 20 0 18 5;
#X connect 21 0 18 6;
#X connect 22 0 19 0;
#X connect 23 0 20 0;
#X connect 24 0 21 0;
#X connect 25 0 22 1;
#X connect 26 0 23 1;
#X connect 27 0 24 1;
#X connect 28 0 3 0;
#X connect 28 1 4 0;
#X connect 28 2 5 0;
#X connect 28 3 11 0;
#X connect 28 4 12 0;
#X connect 28 5 13 0;
#X connect 28 6 15 0;
#X connect 28 7 22 0;
#X connect 28 8 23 0;
#X connect 28 9 24 0;
#X restore 71 297 pd param_setup;
#X obj 99 48 loadbang;
#X obj 71 323 list append;
#X msg 146 76 symbol decay;
#X msg 166 106 symbol hipf;
#X msg 186 136 symbol res_mul;
#X msg 206 166 symbol reso;
#X msg 226 196 symbol fm_ctr_freq;
#X msg 246 226 symbol fm_mod_freq;
#X msg 266 256 symbol fm_depth;
#X connect 0 0 2 0;
#X connect 2 0 4 0;
#X connect 3 0 5 0;
#X connect 3 0 6 0;
#X connect 3 0 7 0;
#X connect 3 0 8 0;
#X connect 3 0 9 0;
#X connect 3 0 10 0;
#X connect 3 0 11 0;
#X connect 4 0 1 0;
#X connect 5 0 2 1;
#X connect 6 0 2 2;
#X connect 7 0 2 3;
#X connect 8 0 2 4;
#X connect 9 0 2 5;
#X connect 10 0 2 6;
#X connect 11 0 2 7;
#X restore 387 357 pd preset_setup;
#N canvas 0 23 540 487 preset_setup 0;
#X obj 71 18 inlet;
#X obj 71 350 outlet;
#N canvas 3 238 632 552 param_setup 0;
#X obj 88 420 f \$0;
#X obj 56 463 list append;
#X obj 56 391 t l b;
#X symbolatom 187 183 10 0 0 0 - - -;
#X symbolatom 187 208 10 0 0 0 - - -;
#X symbolatom 187 231 10 0 0 0 - - -;
#X obj 117 47 bng 15 250 50 0 empty empty empty 17 7 0 10 -262144 -1
-1;
#X obj 117 22 inlet;
#X obj 222 22 inlet;
#X obj 276 22 inlet;
#X obj 330 22 inlet;
#X obj 352 122 symbol p1;
#X obj 352 152 symbol p2;
#X obj 352 182 symbol p3;
#X obj 56 489 outlet;
#X obj 352 212 symbol p4;
#X obj 383 22 inlet;
#X symbolatom 187 255 10 0 0 0 - - -;
#X obj 56 361 pack s s s s s s s;
#X symbolatom 187 278 10 0 0 0 - - -;
#X symbolatom 187 301 10 0 0 0 - - -;
#X symbolatom 187 325 10 0 0 0 - - -;
#X obj 352 242 symbol p5;
#X obj 352 272 symbol p6;
#X obj 352 302 symbol p7;
#X obj 436 22 inlet;
#X obj 490 22 inlet;
#X obj 543 22 inlet;
#X obj 117 70 t b b b b b b b b b b;
#X connect 0 0 1 1;
#X connect 1 0 14 0;
#X connect 2 0 1 0;
#X connect 2 1 0 0;
#X connect 3 0 18 0;
#X connect 4 0 18 1;
#X connect 5 0 18 2;
#X connect 6 0 28 0;
#X connect 7 0 6 0;
#X connect 8 0 11 1;
#X connect 9 0 12 1;
#X connect 10 0 13 1;
#X connect 11 0 3 0;
#X connect 12 0 4 0;
#X connect 13 0 5 0;
#X connect 15 0 17 0;
#X connect 16 0 15 1;
#X connect 17 0 18 3;
#X connect 18 0 2 0;
#X connect 19 0 18 4;
#X connect 20 0 18 5;
#X connect 21 0 18 6;
#X connect 22 0 19 0;
#X connect 23 0 20 0;
#X connect 24 0 21 0;
#X connect 25 0 22 1;
#X connect 26 0 23 1;
#X connect 27 0 24 1;
#X connect 28 0 3 0;
#X connect 28 1 4 0;
#X connect 28 2 5 0;
#X connect 28 3 11 0;
#X connect 28 4 12 0;
#X connect 28 5 13 0;
#X connect 28 6 15 0;
#X connect 28 7 22 0;
#X connect 28 8 23 0;
#X connect 28 9 24 0;
#X restore 71 297 pd param_setup;
#X obj 99 48 loadbang;
#X obj 71 323 list append;
#X msg 146 76 symbol decay;
#X msg 166 106 symbol hipf;
#X msg 186 136 symbol res_mul;
#X msg 206 166 symbol reso;
#X msg 226 196 symbol fm_ctr_freq;
#X msg 246 226 symbol fm_mod_freq;
#X msg 266 256 symbol fm_depth;
#X connect 0 0 2 0;
#X connect 2 0 4 0;
#X connect 3 0 5 0;
#X connect 3 0 6 0;
#X connect 3 0 7 0;
#X connect 3 0 8 0;
#X connect 3 0 9 0;
#X connect 3 0 10 0;
#X connect 3 0 11 0;
#X connect 4 0 1 0;
#X connect 5 0 2 1;
#X connect 6 0 2 2;
#X connect 7 0 2 3;
#X connect 8 0 2 4;
#X connect 9 0 2 5;
#X connect 10 0 2 6;
#X connect 11 0 2 7;
#X restore 521 357 pd preset_setup;
#N canvas 0 23 540 487 preset_setup 0;
#X obj 71 18 inlet;
#X obj 71 350 outlet;
#N canvas 3 238 632 552 param_setup 0;
#X obj 88 420 f \$0;
#X obj 56 463 list append;
#X obj 56 391 t l b;
#X symbolatom 187 183 10 0 0 0 - - -;
#X symbolatom 187 208 10 0 0 0 - - -;
#X symbolatom 187 231 10 0 0 0 - - -;
#X obj 117 47 bng 15 250 50 0 empty empty empty 17 7 0 10 -262144 -1
-1;
#X obj 117 22 inlet;
#X obj 222 22 inlet;
#X obj 276 22 inlet;
#X obj 330 22 inlet;
#X obj 352 122 symbol p1;
#X obj 352 152 symbol p2;
#X obj 352 182 symbol p3;
#X obj 56 489 outlet;
#X obj 352 212 symbol p4;
#X obj 383 22 inlet;
#X symbolatom 187 255 10 0 0 0 - - -;
#X obj 56 361 pack s s s s s s s;
#X symbolatom 187 278 10 0 0 0 - - -;
#X symbolatom 187 301 10 0 0 0 - - -;
#X symbolatom 187 325 10 0 0 0 - - -;
#X obj 352 242 symbol p5;
#X obj 352 272 symbol p6;
#X obj 352 302 symbol p7;
#X obj 436 22 inlet;
#X obj 490 22 inlet;
#X obj 543 22 inlet;
#X obj 117 70 t b b b b b b b b b b;
#X connect 0 0 1 1;
#X connect 1 0 14 0;
#X connect 2 0 1 0;
#X connect 2 1 0 0;
#X connect 3 0 18 0;
#X connect 4 0 18 1;
#X connect 5 0 18 2;
#X connect 6 0 28 0;
#X connect 7 0 6 0;
#X connect 8 0 11 1;
#X connect 9 0 12 1;
#X connect 10 0 13 1;
#X connect 11 0 3 0;
#X connect 12 0 4 0;
#X connect 13 0 5 0;
#X connect 15 0 17 0;
#X connect 16 0 15 1;
#X connect 17 0 18 3;
#X connect 18 0 2 0;
#X connect 19 0 18 4;
#X connect 20 0 18 5;
#X connect 21 0 18 6;
#X connect 22 0 19 0;
#X connect 23 0 20 0;
#X connect 24 0 21 0;
#X connect 25 0 22 1;
#X connect 26 0 23 1;
#X connect 27 0 24 1;
#X connect 28 0 3 0;
#X connect 28 1 4 0;
#X connect 28 2 5 0;
#X connect 28 3 11 0;
#X connect 28 4 12 0;
#X connect 28 5 13 0;
#X connect 28 6 15 0;
#X connect 28 7 22 0;
#X connect 28 8 23 0;
#X connect 28 9 24 0;
#X restore 71 297 pd param_setup;
#X obj 99 48 loadbang;
#X obj 71 323 list append;
#X msg 146 76 symbol decay;
#X msg 166 106 symbol hipf;
#X msg 186 136 symbol res_mul;
#X msg 206 166 symbol reso;
#X msg 226 196 symbol fm_ctr_freq;
#X msg 246 226 symbol fm_mod_freq;
#X msg 266 256 symbol fm_depth;
#X connect 0 0 2 0;
#X connect 2 0 4 0;
#X connect 3 0 5 0;
#X connect 3 0 6 0;
#X connect 3 0 7 0;
#X connect 3 0 8 0;
#X connect 3 0 9 0;
#X connect 3 0 10 0;
#X connect 3 0 11 0;
#X connect 4 0 1 0;
#X connect 5 0 2 1;
#X connect 6 0 2 2;
#X connect 7 0 2 3;
#X connect 8 0 2 4;
#X connect 9 0 2 5;
#X connect 10 0 2 6;
#X connect 11 0 2 7;
#X restore 653 357 pd preset_setup;
#N canvas 0 23 540 487 preset_setup 0;
#X obj 71 18 inlet;
#X obj 71 350 outlet;
#N canvas 3 238 632 552 param_setup 0;
#X obj 88 420 f \$0;
#X obj 56 463 list append;
#X obj 56 391 t l b;
#X symbolatom 187 183 10 0 0 0 - - -;
#X symbolatom 187 208 10 0 0 0 - - -;
#X symbolatom 187 231 10 0 0 0 - - -;
#X obj 117 47 bng 15 250 50 0 empty empty empty 17 7 0 10 -262144 -1
-1;
#X obj 117 22 inlet;
#X obj 222 22 inlet;
#X obj 276 22 inlet;
#X obj 330 22 inlet;
#X obj 352 122 symbol p1;
#X obj 352 152 symbol p2;
#X obj 352 182 symbol p3;
#X obj 56 489 outlet;
#X obj 352 212 symbol p4;
#X obj 383 22 inlet;
#X symbolatom 187 255 10 0 0 0 - - -;
#X obj 56 361 pack s s s s s s s;
#X symbolatom 187 278 10 0 0 0 - - -;
#X symbolatom 187 301 10 0 0 0 - - -;
#X symbolatom 187 325 10 0 0 0 - - -;
#X obj 352 242 symbol p5;
#X obj 352 272 symbol p6;
#X obj 352 302 symbol p7;
#X obj 436 22 inlet;
#X obj 490 22 inlet;
#X obj 543 22 inlet;
#X obj 117 70 t b b b b b b b b b b;
#X connect 0 0 1 1;
#X connect 1 0 14 0;
#X connect 2 0 1 0;
#X connect 2 1 0 0;
#X connect 3 0 18 0;
#X connect 4 0 18 1;
#X connect 5 0 18 2;
#X connect 6 0 28 0;
#X connect 7 0 6 0;
#X connect 8 0 11 1;
#X connect 9 0 12 1;
#X connect 10 0 13 1;
#X connect 11 0 3 0;
#X connect 12 0 4 0;
#X connect 13 0 5 0;
#X connect 15 0 17 0;
#X connect 16 0 15 1;
#X connect 17 0 18 3;
#X connect 18 0 2 0;
#X connect 19 0 18 4;
#X connect 20 0 18 5;
#X connect 21 0 18 6;
#X connect 22 0 19 0;
#X connect 23 0 20 0;
#X connect 24 0 21 0;
#X connect 25 0 22 1;
#X connect 26 0 23 1;
#X connect 27 0 24 1;
#X connect 28 0 3 0;
#X connect 28 1 4 0;
#X connect 28 2 5 0;
#X connect 28 3 11 0;
#X connect 28 4 12 0;
#X connect 28 5 13 0;
#X connect 28 6 15 0;
#X connect 28 7 22 0;
#X connect 28 8 23 0;
#X connect 28 9 24 0;
#X restore 71 297 pd param_setup;
#X obj 99 48 loadbang;
#X obj 71 323 list append;
#X msg 146 76 symbol decay;
#X msg 166 106 symbol hipf;
#X msg 186 136 symbol res_mul;
#X msg 206 166 symbol reso;
#X msg 226 196 symbol fm_ctr_freq;
#X msg 246 226 symbol fm_mod_freq;
#X msg 266 256 symbol fm_depth;
#X connect 0 0 2 0;
#X connect 2 0 4 0;
#X connect 3 0 5 0;
#X connect 3 0 6 0;
#X connect 3 0 7 0;
#X connect 3 0 8 0;
#X connect 3 0 9 0;
#X connect 3 0 10 0;
#X connect 3 0 11 0;
#X connect 4 0 1 0;
#X connect 5 0 2 1;
#X connect 6 0 2 2;
#X connect 7 0 2 3;
#X connect 8 0 2 4;
#X connect 9 0 2 5;
#X connect 10 0 2 6;
#X connect 11 0 2 7;
#X restore 785 357 pd preset_setup;
#N canvas 0 23 540 487 preset_setup 0;
#X obj 71 18 inlet;
#X obj 71 350 outlet;
#N canvas 3 238 632 552 param_setup 0;
#X obj 88 420 f \$0;
#X obj 56 463 list append;
#X obj 56 391 t l b;
#X symbolatom 187 183 10 0 0 0 - - -;
#X symbolatom 187 208 10 0 0 0 - - -;
#X symbolatom 187 231 10 0 0 0 - - -;
#X obj 117 47 bng 15 250 50 0 empty empty empty 17 7 0 10 -262144 -1
-1;
#X obj 117 22 inlet;
#X obj 222 22 inlet;
#X obj 276 22 inlet;
#X obj 330 22 inlet;
#X obj 352 122 symbol p1;
#X obj 352 152 symbol p2;
#X obj 352 182 symbol p3;
#X obj 56 489 outlet;
#X obj 352 212 symbol p4;
#X obj 383 22 inlet;
#X symbolatom 187 255 10 0 0 0 - - -;
#X obj 56 361 pack s s s s s s s;
#X symbolatom 187 278 10 0 0 0 - - -;
#X symbolatom 187 301 10 0 0 0 - - -;
#X symbolatom 187 325 10 0 0 0 - - -;
#X obj 352 242 symbol p5;
#X obj 352 272 symbol p6;
#X obj 352 302 symbol p7;
#X obj 436 22 inlet;
#X obj 490 22 inlet;
#X obj 543 22 inlet;
#X obj 117 70 t b b b b b b b b b b;
#X connect 0 0 1 1;
#X connect 1 0 14 0;
#X connect 2 0 1 0;
#X connect 2 1 0 0;
#X connect 3 0 18 0;
#X connect 4 0 18 1;
#X connect 5 0 18 2;
#X connect 6 0 28 0;
#X connect 7 0 6 0;
#X connect 8 0 11 1;
#X connect 9 0 12 1;
#X connect 10 0 13 1;
#X connect 11 0 3 0;
#X connect 12 0 4 0;
#X connect 13 0 5 0;
#X connect 15 0 17 0;
#X connect 16 0 15 1;
#X connect 17 0 18 3;
#X connect 18 0 2 0;
#X connect 19 0 18 4;
#X connect 20 0 18 5;
#X connect 21 0 18 6;
#X connect 22 0 19 0;
#X connect 23 0 20 0;
#X connect 24 0 21 0;
#X connect 25 0 22 1;
#X connect 26 0 23 1;
#X connect 27 0 24 1;
#X connect 28 0 3 0;
#X connect 28 1 4 0;
#X connect 28 2 5 0;
#X connect 28 3 11 0;
#X connect 28 4 12 0;
#X connect 28 5 13 0;
#X connect 28 6 15 0;
#X connect 28 7 22 0;
#X connect 28 8 23 0;
#X connect 28 9 24 0;
#X restore 71 297 pd param_setup;
#X obj 99 48 loadbang;
#X obj 71 323 list append;
#X msg 146 76 symbol decay;
#X msg 166 106 symbol hipf;
#X msg 186 136 symbol res_mul;
#X msg 206 166 symbol reso;
#X msg 226 196 symbol fm_ctr_freq;
#X msg 246 226 symbol fm_mod_freq;
#X msg 266 256 symbol fm_depth;
#X connect 0 0 2 0;
#X connect 2 0 4 0;
#X connect 3 0 5 0;
#X connect 3 0 6 0;
#X connect 3 0 7 0;
#X connect 3 0 8 0;
#X connect 3 0 9 0;
#X connect 3 0 10 0;
#X connect 3 0 11 0;
#X connect 4 0 1 0;
#X connect 5 0 2 1;
#X connect 6 0 2 2;
#X connect 7 0 2 3;
#X connect 8 0 2 4;
#X connect 9 0 2 5;
#X connect 10 0 2 6;
#X connect 11 0 2 7;
#X restore 118 508 pd preset_setup;
#N canvas 0 23 540 487 preset_setup 0;
#X obj 71 18 inlet;
#X obj 71 350 outlet;
#N canvas 3 238 632 552 param_setup 0;
#X obj 88 420 f \$0;
#X obj 56 463 list append;
#X obj 56 391 t l b;
#X symbolatom 187 183 10 0 0 0 - - -;
#X symbolatom 187 208 10 0 0 0 - - -;
#X symbolatom 187 231 10 0 0 0 - - -;
#X obj 117 47 bng 15 250 50 0 empty empty empty 17 7 0 10 -262144 -1
-1;
#X obj 117 22 inlet;
#X obj 222 22 inlet;
#X obj 276 22 inlet;
#X obj 330 22 inlet;
#X obj 352 122 symbol p1;
#X obj 352 152 symbol p2;
#X obj 352 182 symbol p3;
#X obj 56 489 outlet;
#X obj 352 212 symbol p4;
#X obj 383 22 inlet;
#X symbolatom 187 255 10 0 0 0 - - -;
#X obj 56 361 pack s s s s s s s;
#X symbolatom 187 278 10 0 0 0 - - -;
#X symbolatom 187 301 10 0 0 0 - - -;
#X symbolatom 187 325 10 0 0 0 - - -;
#X obj 352 242 symbol p5;
#X obj 352 272 symbol p6;
#X obj 352 302 symbol p7;
#X obj 436 22 inlet;
#X obj 490 22 inlet;
#X obj 543 22 inlet;
#X obj 117 70 t b b b b b b b b b b;
#X connect 0 0 1 1;
#X connect 1 0 14 0;
#X connect 2 0 1 0;
#X connect 2 1 0 0;
#X connect 3 0 18 0;
#X connect 4 0 18 1;
#X connect 5 0 18 2;
#X connect 6 0 28 0;
#X connect 7 0 6 0;
#X connect 8 0 11 1;
#X connect 9 0 12 1;
#X connect 10 0 13 1;
#X connect 11 0 3 0;
#X connect 12 0 4 0;
#X connect 13 0 5 0;
#X connect 15 0 17 0;
#X connect 16 0 15 1;
#X connect 17 0 18 3;
#X connect 18 0 2 0;
#X connect 19 0 18 4;
#X connect 20 0 18 5;
#X connect 21 0 18 6;
#X connect 22 0 19 0;
#X connect 23 0 20 0;
#X connect 24 0 21 0;
#X connect 25 0 22 1;
#X connect 26 0 23 1;
#X connect 27 0 24 1;
#X connect 28 0 3 0;
#X connect 28 1 4 0;
#X connect 28 2 5 0;
#X connect 28 3 11 0;
#X connect 28 4 12 0;
#X connect 28 5 13 0;
#X connect 28 6 15 0;
#X connect 28 7 22 0;
#X connect 28 8 23 0;
#X connect 28 9 24 0;
#X restore 71 297 pd param_setup;
#X obj 99 48 loadbang;
#X obj 71 323 list append;
#X msg 146 76 symbol decay;
#X msg 166 106 symbol hipf;
#X msg 186 136 symbol res_mul;
#X msg 206 166 symbol reso;
#X msg 226 196 symbol fm_ctr_freq;
#X msg 246 226 symbol fm_mod_freq;
#X msg 266 256 symbol fm_depth;
#X connect 0 0 2 0;
#X connect 2 0 4 0;
#X connect 3 0 5 0;
#X connect 3 0 6 0;
#X connect 3 0 7 0;
#X connect 3 0 8 0;
#X connect 3 0 9 0;
#X connect 3 0 10 0;
#X connect 3 0 11 0;
#X connect 4 0 1 0;
#X connect 5 0 2 1;
#X connect 6 0 2 2;
#X connect 7 0 2 3;
#X connect 8 0 2 4;
#X connect 9 0 2 5;
#X connect 10 0 2 6;
#X connect 11 0 2 7;
#X restore 252 508 pd preset_setup;
#N canvas 0 23 540 487 preset_setup 0;
#X obj 71 18 inlet;
#X obj 71 350 outlet;
#N canvas 3 238 632 552 param_setup 0;
#X obj 88 420 f \$0;
#X obj 56 463 list append;
#X obj 56 391 t l b;
#X symbolatom 187 183 10 0 0 0 - - -;
#X symbolatom 187 208 10 0 0 0 - - -;
#X symbolatom 187 231 10 0 0 0 - - -;
#X obj 117 47 bng 15 250 50 0 empty empty empty 17 7 0 10 -262144 -1
-1;
#X obj 117 22 inlet;
#X obj 222 22 inlet;
#X obj 276 22 inlet;
#X obj 330 22 inlet;
#X obj 352 122 symbol p1;
#X obj 352 152 symbol p2;
#X obj 352 182 symbol p3;
#X obj 56 489 outlet;
#X obj 352 212 symbol p4;
#X obj 383 22 inlet;
#X symbolatom 187 255 10 0 0 0 - - -;
#X obj 56 361 pack s s s s s s s;
#X symbolatom 187 278 10 0 0 0 - - -;
#X symbolatom 187 301 10 0 0 0 - - -;
#X symbolatom 187 325 10 0 0 0 - - -;
#X obj 352 242 symbol p5;
#X obj 352 272 symbol p6;
#X obj 352 302 symbol p7;
#X obj 436 22 inlet;
#X obj 490 22 inlet;
#X obj 543 22 inlet;
#X obj 117 70 t b b b b b b b b b b;
#X connect 0 0 1 1;
#X connect 1 0 14 0;
#X connect 2 0 1 0;
#X connect 2 1 0 0;
#X connect 3 0 18 0;
#X connect 4 0 18 1;
#X connect 5 0 18 2;
#X connect 6 0 28 0;
#X connect 7 0 6 0;
#X connect 8 0 11 1;
#X connect 9 0 12 1;
#X connect 10 0 13 1;
#X connect 11 0 3 0;
#X connect 12 0 4 0;
#X connect 13 0 5 0;
#X connect 15 0 17 0;
#X connect 16 0 15 1;
#X connect 17 0 18 3;
#X connect 18 0 2 0;
#X connect 19 0 18 4;
#X connect 20 0 18 5;
#X connect 21 0 18 6;
#X connect 22 0 19 0;
#X connect 23 0 20 0;
#X connect 24 0 21 0;
#X connect 25 0 22 1;
#X connect 26 0 23 1;
#X connect 27 0 24 1;
#X connect 28 0 3 0;
#X connect 28 1 4 0;
#X connect 28 2 5 0;
#X connect 28 3 11 0;
#X connect 28 4 12 0;
#X connect 28 5 13 0;
#X connect 28 6 15 0;
#X connect 28 7 22 0;
#X connect 28 8 23 0;
#X connect 28 9 24 0;
#X restore 71 297 pd param_setup;
#X obj 99 48 loadbang;
#X obj 71 323 list append;
#X msg 146 76 symbol decay;
#X msg 166 106 symbol hipf;
#X msg 186 136 symbol res_mul;
#X msg 206 166 symbol reso;
#X msg 226 196 symbol fm_ctr_freq;
#X msg 246 226 symbol fm_mod_freq;
#X msg 266 256 symbol fm_depth;
#X connect 0 0 2 0;
#X connect 2 0 4 0;
#X connect 3 0 5 0;
#X connect 3 0 6 0;
#X connect 3 0 7 0;
#X connect 3 0 8 0;
#X connect 3 0 9 0;
#X connect 3 0 10 0;
#X connect 3 0 11 0;
#X connect 4 0 1 0;
#X connect 5 0 2 1;
#X connect 6 0 2 2;
#X connect 7 0 2 3;
#X connect 8 0 2 4;
#X connect 9 0 2 5;
#X connect 10 0 2 6;
#X connect 11 0 2 7;
#X restore 387 508 pd preset_setup;
#N canvas 0 23 540 487 preset_setup 0;
#X obj 71 18 inlet;
#X obj 71 350 outlet;
#N canvas 3 238 632 552 param_setup 0;
#X obj 88 420 f \$0;
#X obj 56 463 list append;
#X obj 56 391 t l b;
#X symbolatom 187 183 10 0 0 0 - - -;
#X symbolatom 187 208 10 0 0 0 - - -;
#X symbolatom 187 231 10 0 0 0 - - -;
#X obj 117 47 bng 15 250 50 0 empty empty empty 17 7 0 10 -262144 -1
-1;
#X obj 117 22 inlet;
#X obj 222 22 inlet;
#X obj 276 22 inlet;
#X obj 330 22 inlet;
#X obj 352 122 symbol p1;
#X obj 352 152 symbol p2;
#X obj 352 182 symbol p3;
#X obj 56 489 outlet;
#X obj 352 212 symbol p4;
#X obj 383 22 inlet;
#X symbolatom 187 255 10 0 0 0 - - -;
#X obj 56 361 pack s s s s s s s;
#X symbolatom 187 278 10 0 0 0 - - -;
#X symbolatom 187 301 10 0 0 0 - - -;
#X symbolatom 187 325 10 0 0 0 - - -;
#X obj 352 242 symbol p5;
#X obj 352 272 symbol p6;
#X obj 352 302 symbol p7;
#X obj 436 22 inlet;
#X obj 490 22 inlet;
#X obj 543 22 inlet;
#X obj 117 70 t b b b b b b b b b b;
#X connect 0 0 1 1;
#X connect 1 0 14 0;
#X connect 2 0 1 0;
#X connect 2 1 0 0;
#X connect 3 0 18 0;
#X connect 4 0 18 1;
#X connect 5 0 18 2;
#X connect 6 0 28 0;
#X connect 7 0 6 0;
#X connect 8 0 11 1;
#X connect 9 0 12 1;
#X connect 10 0 13 1;
#X connect 11 0 3 0;
#X connect 12 0 4 0;
#X connect 13 0 5 0;
#X connect 15 0 17 0;
#X connect 16 0 15 1;
#X connect 17 0 18 3;
#X connect 18 0 2 0;
#X connect 19 0 18 4;
#X connect 20 0 18 5;
#X connect 21 0 18 6;
#X connect 22 0 19 0;
#X connect 23 0 20 0;
#X connect 24 0 21 0;
#X connect 25 0 22 1;
#X connect 26 0 23 1;
#X connect 27 0 24 1;
#X connect 28 0 3 0;
#X connect 28 1 4 0;
#X connect 28 2 5 0;
#X connect 28 3 11 0;
#X connect 28 4 12 0;
#X connect 28 5 13 0;
#X connect 28 6 15 0;
#X connect 28 7 22 0;
#X connect 28 8 23 0;
#X connect 28 9 24 0;
#X restore 71 297 pd param_setup;
#X obj 99 48 loadbang;
#X obj 71 323 list append;
#X msg 146 76 symbol decay;
#X msg 166 106 symbol hipf;
#X msg 186 136 symbol res_mul;
#X msg 206 166 symbol reso;
#X msg 226 196 symbol fm_ctr_freq;
#X msg 246 226 symbol fm_mod_freq;
#X msg 266 256 symbol fm_depth;
#X connect 0 0 2 0;
#X connect 2 0 4 0;
#X connect 3 0 5 0;
#X connect 3 0 6 0;
#X connect 3 0 7 0;
#X connect 3 0 8 0;
#X connect 3 0 9 0;
#X connect 3 0 10 0;
#X connect 3 0 11 0;
#X connect 4 0 1 0;
#X connect 5 0 2 1;
#X connect 6 0 2 2;
#X connect 7 0 2 3;
#X connect 8 0 2 4;
#X connect 9 0 2 5;
#X connect 10 0 2 6;
#X connect 11 0 2 7;
#X restore 521 508 pd preset_setup;
#N canvas 0 23 540 487 preset_setup 0;
#X obj 71 18 inlet;
#X obj 71 350 outlet;
#N canvas 3 238 632 552 param_setup 0;
#X obj 88 420 f \$0;
#X obj 56 463 list append;
#X obj 56 391 t l b;
#X symbolatom 187 183 10 0 0 0 - - -;
#X symbolatom 187 208 10 0 0 0 - - -;
#X symbolatom 187 231 10 0 0 0 - - -;
#X obj 117 47 bng 15 250 50 0 empty empty empty 17 7 0 10 -262144 -1
-1;
#X obj 117 22 inlet;
#X obj 222 22 inlet;
#X obj 276 22 inlet;
#X obj 330 22 inlet;
#X obj 352 122 symbol p1;
#X obj 352 152 symbol p2;
#X obj 352 182 symbol p3;
#X obj 56 489 outlet;
#X obj 352 212 symbol p4;
#X obj 383 22 inlet;
#X symbolatom 187 255 10 0 0 0 - - -;
#X obj 56 361 pack s s s s s s s;
#X symbolatom 187 278 10 0 0 0 - - -;
#X symbolatom 187 301 10 0 0 0 - - -;
#X symbolatom 187 325 10 0 0 0 - - -;
#X obj 352 242 symbol p5;
#X obj 352 272 symbol p6;
#X obj 352 302 symbol p7;
#X obj 436 22 inlet;
#X obj 490 22 inlet;
#X obj 543 22 inlet;
#X obj 117 70 t b b b b b b b b b b;
#X connect 0 0 1 1;
#X connect 1 0 14 0;
#X connect 2 0 1 0;
#X connect 2 1 0 0;
#X connect 3 0 18 0;
#X connect 4 0 18 1;
#X connect 5 0 18 2;
#X connect 6 0 28 0;
#X connect 7 0 6 0;
#X connect 8 0 11 1;
#X connect 9 0 12 1;
#X connect 10 0 13 1;
#X connect 11 0 3 0;
#X connect 12 0 4 0;
#X connect 13 0 5 0;
#X connect 15 0 17 0;
#X connect 16 0 15 1;
#X connect 17 0 18 3;
#X connect 18 0 2 0;
#X connect 19 0 18 4;
#X connect 20 0 18 5;
#X connect 21 0 18 6;
#X connect 22 0 19 0;
#X connect 23 0 20 0;
#X connect 24 0 21 0;
#X connect 25 0 22 1;
#X connect 26 0 23 1;
#X connect 27 0 24 1;
#X connect 28 0 3 0;
#X connect 28 1 4 0;
#X connect 28 2 5 0;
#X connect 28 3 11 0;
#X connect 28 4 12 0;
#X connect 28 5 13 0;
#X connect 28 6 15 0;
#X connect 28 7 22 0;
#X connect 28 8 23 0;
#X connect 28 9 24 0;
#X restore 71 297 pd param_setup;
#X obj 99 48 loadbang;
#X obj 71 323 list append;
#X msg 146 76 symbol decay;
#X msg 166 106 symbol hipf;
#X msg 186 136 symbol res_mul;
#X msg 206 166 symbol reso;
#X msg 226 196 symbol fm_ctr_freq;
#X msg 246 226 symbol fm_mod_freq;
#X msg 266 256 symbol fm_depth;
#X connect 0 0 2 0;
#X connect 2 0 4 0;
#X connect 3 0 5 0;
#X connect 3 0 6 0;
#X connect 3 0 7 0;
#X connect 3 0 8 0;
#X connect 3 0 9 0;
#X connect 3 0 10 0;
#X connect 3 0 11 0;
#X connect 4 0 1 0;
#X connect 5 0 2 1;
#X connect 6 0 2 2;
#X connect 7 0 2 3;
#X connect 8 0 2 4;
#X connect 9 0 2 5;
#X connect 10 0 2 6;
#X connect 11 0 2 7;
#X restore 653 508 pd preset_setup;
#N canvas 0 23 540 487 preset_setup 0;
#X obj 71 18 inlet;
#X obj 71 350 outlet;
#N canvas 3 238 632 552 param_setup 0;
#X obj 88 420 f \$0;
#X obj 56 463 list append;
#X obj 56 391 t l b;
#X symbolatom 187 183 10 0 0 0 - - -;
#X symbolatom 187 208 10 0 0 0 - - -;
#X symbolatom 187 231 10 0 0 0 - - -;
#X obj 117 47 bng 15 250 50 0 empty empty empty 17 7 0 10 -262144 -1
-1;
#X obj 117 22 inlet;
#X obj 222 22 inlet;
#X obj 276 22 inlet;
#X obj 330 22 inlet;
#X obj 352 122 symbol p1;
#X obj 352 152 symbol p2;
#X obj 352 182 symbol p3;
#X obj 56 489 outlet;
#X obj 352 212 symbol p4;
#X obj 383 22 inlet;
#X symbolatom 187 255 10 0 0 0 - - -;
#X obj 56 361 pack s s s s s s s;
#X symbolatom 187 278 10 0 0 0 - - -;
#X symbolatom 187 301 10 0 0 0 - - -;
#X symbolatom 187 325 10 0 0 0 - - -;
#X obj 352 242 symbol p5;
#X obj 352 272 symbol p6;
#X obj 352 302 symbol p7;
#X obj 436 22 inlet;
#X obj 490 22 inlet;
#X obj 543 22 inlet;
#X obj 117 70 t b b b b b b b b b b;
#X connect 0 0 1 1;
#X connect 1 0 14 0;
#X connect 2 0 1 0;
#X connect 2 1 0 0;
#X connect 3 0 18 0;
#X connect 4 0 18 1;
#X connect 5 0 18 2;
#X connect 6 0 28 0;
#X connect 7 0 6 0;
#X connect 8 0 11 1;
#X connect 9 0 12 1;
#X connect 10 0 13 1;
#X connect 11 0 3 0;
#X connect 12 0 4 0;
#X connect 13 0 5 0;
#X connect 15 0 17 0;
#X connect 16 0 15 1;
#X connect 17 0 18 3;
#X connect 18 0 2 0;
#X connect 19 0 18 4;
#X connect 20 0 18 5;
#X connect 21 0 18 6;
#X connect 22 0 19 0;
#X connect 23 0 20 0;
#X connect 24 0 21 0;
#X connect 25 0 22 1;
#X connect 26 0 23 1;
#X connect 27 0 24 1;
#X connect 28 0 3 0;
#X connect 28 1 4 0;
#X connect 28 2 5 0;
#X connect 28 3 11 0;
#X connect 28 4 12 0;
#X connect 28 5 13 0;
#X connect 28 6 15 0;
#X connect 28 7 22 0;
#X connect 28 8 23 0;
#X connect 28 9 24 0;
#X restore 71 297 pd param_setup;
#X obj 99 48 loadbang;
#X obj 71 323 list append;
#X msg 146 76 symbol decay;
#X msg 166 106 symbol hipf;
#X msg 186 136 symbol res_mul;
#X msg 206 166 symbol reso;
#X msg 226 196 symbol fm_ctr_freq;
#X msg 246 226 symbol fm_mod_freq;
#X msg 266 256 symbol fm_depth;
#X connect 0 0 2 0;
#X connect 2 0 4 0;
#X connect 3 0 5 0;
#X connect 3 0 6 0;
#X connect 3 0 7 0;
#X connect 3 0 8 0;
#X connect 3 0 9 0;
#X connect 3 0 10 0;
#X connect 3 0 11 0;
#X connect 4 0 1 0;
#X connect 5 0 2 1;
#X connect 6 0 2 2;
#X connect 7 0 2 3;
#X connect 8 0 2 4;
#X connect 9 0 2 5;
#X connect 10 0 2 6;
#X connect 11 0 2 7;
#X restore 785 508 pd preset_setup;
#N canvas 0 23 540 487 preset_setup 0;
#X obj 71 18 inlet;
#X obj 71 350 outlet;
#N canvas 3 238 632 552 param_setup 0;
#X obj 88 420 f \$0;
#X obj 56 463 list append;
#X obj 56 391 t l b;
#X symbolatom 187 183 10 0 0 0 - - -;
#X symbolatom 187 208 10 0 0 0 - - -;
#X symbolatom 187 231 10 0 0 0 - - -;
#X obj 117 47 bng 15 250 50 0 empty empty empty 17 7 0 10 -262144 -1
-1;
#X obj 117 22 inlet;
#X obj 222 22 inlet;
#X obj 276 22 inlet;
#X obj 330 22 inlet;
#X obj 352 122 symbol p1;
#X obj 352 152 symbol p2;
#X obj 352 182 symbol p3;
#X obj 56 489 outlet;
#X obj 352 212 symbol p4;
#X obj 383 22 inlet;
#X symbolatom 187 255 10 0 0 0 - - -;
#X obj 56 361 pack s s s s s s s;
#X symbolatom 187 278 10 0 0 0 - - -;
#X symbolatom 187 301 10 0 0 0 - - -;
#X symbolatom 187 325 10 0 0 0 - - -;
#X obj 352 242 symbol p5;
#X obj 352 272 symbol p6;
#X obj 352 302 symbol p7;
#X obj 436 22 inlet;
#X obj 490 22 inlet;
#X obj 543 22 inlet;
#X obj 117 70 t b b b b b b b b b b;
#X connect 0 0 1 1;
#X connect 1 0 14 0;
#X connect 2 0 1 0;
#X connect 2 1 0 0;
#X connect 3 0 18 0;
#X connect 4 0 18 1;
#X connect 5 0 18 2;
#X connect 6 0 28 0;
#X connect 7 0 6 0;
#X connect 8 0 11 1;
#X connect 9 0 12 1;
#X connect 10 0 13 1;
#X connect 11 0 3 0;
#X connect 12 0 4 0;
#X connect 13 0 5 0;
#X connect 15 0 17 0;
#X connect 16 0 15 1;
#X connect 17 0 18 3;
#X connect 18 0 2 0;
#X connect 19 0 18 4;
#X connect 20 0 18 5;
#X connect 21 0 18 6;
#X connect 22 0 19 0;
#X connect 23 0 20 0;
#X connect 24 0 21 0;
#X connect 25 0 22 1;
#X connect 26 0 23 1;
#X connect 27 0 24 1;
#X connect 28 0 3 0;
#X connect 28 1 4 0;
#X connect 28 2 5 0;
#X connect 28 3 11 0;
#X connect 28 4 12 0;
#X connect 28 5 13 0;
#X connect 28 6 15 0;
#X connect 28 7 22 0;
#X connect 28 8 23 0;
#X connect 28 9 24 0;
#X restore 71 297 pd param_setup;
#X obj 99 48 loadbang;
#X obj 71 323 list append;
#X msg 146 76 symbol decay;
#X msg 166 106 symbol hipf;
#X msg 186 136 symbol res_mul;
#X msg 206 166 symbol reso;
#X msg 226 196 symbol fm_ctr_freq;
#X msg 246 226 symbol fm_mod_freq;
#X msg 266 256 symbol fm_depth;
#X connect 0 0 2 0;
#X connect 2 0 4 0;
#X connect 3 0 5 0;
#X connect 3 0 6 0;
#X connect 3 0 7 0;
#X connect 3 0 8 0;
#X connect 3 0 9 0;
#X connect 3 0 10 0;
#X connect 3 0 11 0;
#X connect 4 0 1 0;
#X connect 5 0 2 1;
#X connect 6 0 2 2;
#X connect 7 0 2 3;
#X connect 8 0 2 4;
#X connect 9 0 2 5;
#X connect 10 0 2 6;
#X connect 11 0 2 7;
#X restore 118 658 pd preset_setup;
#N canvas 0 23 540 487 preset_setup 0;
#X obj 71 18 inlet;
#X obj 71 350 outlet;
#N canvas 3 238 632 552 param_setup 0;
#X obj 88 420 f \$0;
#X obj 56 463 list append;
#X obj 56 391 t l b;
#X symbolatom 187 183 10 0 0 0 - - -;
#X symbolatom 187 208 10 0 0 0 - - -;
#X symbolatom 187 231 10 0 0 0 - - -;
#X obj 117 47 bng 15 250 50 0 empty empty empty 17 7 0 10 -262144 -1
-1;
#X obj 117 22 inlet;
#X obj 222 22 inlet;
#X obj 276 22 inlet;
#X obj 330 22 inlet;
#X obj 352 122 symbol p1;
#X obj 352 152 symbol p2;
#X obj 352 182 symbol p3;
#X obj 56 489 outlet;
#X obj 352 212 symbol p4;
#X obj 383 22 inlet;
#X symbolatom 187 255 10 0 0 0 - - -;
#X obj 56 361 pack s s s s s s s;
#X symbolatom 187 278 10 0 0 0 - - -;
#X symbolatom 187 301 10 0 0 0 - - -;
#X symbolatom 187 325 10 0 0 0 - - -;
#X obj 352 242 symbol p5;
#X obj 352 272 symbol p6;
#X obj 352 302 symbol p7;
#X obj 436 22 inlet;
#X obj 490 22 inlet;
#X obj 543 22 inlet;
#X obj 117 70 t b b b b b b b b b b;
#X connect 0 0 1 1;
#X connect 1 0 14 0;
#X connect 2 0 1 0;
#X connect 2 1 0 0;
#X connect 3 0 18 0;
#X connect 4 0 18 1;
#X connect 5 0 18 2;
#X connect 6 0 28 0;
#X connect 7 0 6 0;
#X connect 8 0 11 1;
#X connect 9 0 12 1;
#X connect 10 0 13 1;
#X connect 11 0 3 0;
#X connect 12 0 4 0;
#X connect 13 0 5 0;
#X connect 15 0 17 0;
#X connect 16 0 15 1;
#X connect 17 0 18 3;
#X connect 18 0 2 0;
#X connect 19 0 18 4;
#X connect 20 0 18 5;
#X connect 21 0 18 6;
#X connect 22 0 19 0;
#X connect 23 0 20 0;
#X connect 24 0 21 0;
#X connect 25 0 22 1;
#X connect 26 0 23 1;
#X connect 27 0 24 1;
#X connect 28 0 3 0;
#X connect 28 1 4 0;
#X connect 28 2 5 0;
#X connect 28 3 11 0;
#X connect 28 4 12 0;
#X connect 28 5 13 0;
#X connect 28 6 15 0;
#X connect 28 7 22 0;
#X connect 28 8 23 0;
#X connect 28 9 24 0;
#X restore 71 297 pd param_setup;
#X obj 99 48 loadbang;
#X obj 71 323 list append;
#X msg 146 76 symbol decay;
#X msg 166 106 symbol hipf;
#X msg 186 136 symbol res_mul;
#X msg 206 166 symbol reso;
#X msg 226 196 symbol fm_ctr_freq;
#X msg 246 226 symbol fm_mod_freq;
#X msg 266 256 symbol fm_depth;
#X connect 0 0 2 0;
#X connect 2 0 4 0;
#X connect 3 0 5 0;
#X connect 3 0 6 0;
#X connect 3 0 7 0;
#X connect 3 0 8 0;
#X connect 3 0 9 0;
#X connect 3 0 10 0;
#X connect 3 0 11 0;
#X connect 4 0 1 0;
#X connect 5 0 2 1;
#X connect 6 0 2 2;
#X connect 7 0 2 3;
#X connect 8 0 2 4;
#X connect 9 0 2 5;
#X connect 10 0 2 6;
#X connect 11 0 2 7;
#X restore 252 658 pd preset_setup;
#X obj 48 10 inlet;
#X obj 117 10 inlet;
#X obj 184 10 inlet;
#X obj 247 10 inlet;
#X obj 316 10 inlet;
#X obj 390 10 inlet;
#X obj 463 10 inlet;
#X obj 513 10 inlet;
#X connect 0 0 3 1;
#X connect 1 0 3 0;
#X connect 2 0 3 4;
#X connect 3 0 18 0;
#X connect 4 0 3 2;
#X connect 5 0 3 3;
#X connect 6 0 0 0;
#X connect 7 0 2 0;
#X connect 8 0 4 0;
#X connect 9 0 5 0;
#X connect 10 0 3 5;
#X connect 11 0 10 0;
#X connect 12 0 3 6;
#X connect 13 0 12 0;
#X connect 14 0 3 7;
#X connect 15 0 14 0;
#X connect 16 0 19 0;
#X connect 17 0 1 0;
#X connect 19 0 20 0;
#X connect 19 1 40 0;
#X connect 19 2 35 0;
#X connect 19 3 41 0;
#X connect 19 4 36 0;
#X connect 19 5 42 0;
#X connect 19 6 37 0;
#X connect 19 7 43 0;
#X connect 19 8 38 0;
#X connect 19 9 44 0;
#X connect 19 10 39 0;
#X connect 19 11 45 0;
#X connect 19 12 46 0;
#X connect 19 13 47 0;
#X connect 20 0 21 0;
#X connect 35 0 22 0;
#X connect 36 0 23 0;
#X connect 37 0 24 0;
#X connect 38 0 25 0;
#X connect 39 0 26 0;
#X connect 40 0 32 0;
#X connect 41 0 31 0;
#X connect 42 0 30 0;
#X connect 43 0 29 0;
#X connect 44 0 28 0;
#X connect 45 0 27 0;
#X connect 46 0 33 0;
#X connect 47 0 34 0;
#X connect 48 0 6 0;
#X connect 49 0 8 0;
#X connect 50 0 9 0;
#X connect 51 0 7 0;
#X connect 52 0 11 0;
#X connect 53 0 13 0;
#X connect 54 0 15 0;
#X connect 55 0 16 0;
#X coords 0 -1 1 1 480 220 1 40 40;
